<?xml version="1.0" standalone="no"?>
<!DOCTYPE svg PUBLIC "-//W3C//DTD SVG 1.1//EN" "http://www.w3.org/Graphics/SVG/1.1/DTD/svg11.dtd" >
<svg xmlns="http://www.w3.org/2000/svg" xmlns:xlink="http://www.w3.org/1999/xlink" version="1.1">
<metadata>
Created by FontForge 20170924 at Mon Apr 11 10:03:56 2022
 By www-data
Copyright \(c\) 2019 by Dominik Huber. All rights reserved.
</metadata>
<defs>
<font id="GTPlanarTrial-Md" horiz-adv-x="593" >
  <font-face 
    font-family="GT Planar Trial Md"
    font-weight="500"
    font-stretch="normal"
    units-per-em="1000"
    panose-1="0 0 0 0 0 0 0 0 0 0"
    ascent="806"
    descent="-194"
    x-height="488"
    cap-height="700"
    bbox="-20 -180 1275 715"
    underline-thickness="50"
    underline-position="-125"
    stemh="112"
    stemv="122"
    unicode-range="U+0020-1EF3"
  />
<missing-glyph horiz-adv-x="550" 
d="M422 342v158h-30v-158h30zM50 0v700h450v-700h-450zM71 420c0 -46 25 -81 67 -81c18 0 35 6 43 20l4 -17h23v87h-67v-28h40v-2c0 -13 -9 -33 -36 -33s-41 20 -41 53c0 32 14 55 40 55c20 0 28 -13 31 -23l30 12c-7 19 -23 39 -60 39c-48 0 -74 -35 -74 -82zM89 278h44
v-127h30v127h44v29h-118v-29zM198 151h30v49c0 18 7 35 28 35c4 0 6 0 10 -1v28c-3 1 -5 1 -10 1c-14 0 -25 -10 -30 -21v18h-28v-109zM226 342h29v50c0 18 8 35 30 35c5 0 7 0 10 -1v27c-3 1 -6 2 -11 2c-15 0 -25 -11 -31 -21v18h-27v-110zM272 279h32v30h-32v-30z
M273 151h30v109h-30v-109zM301 471h32v29h-32v-29zM302 342h30v110h-30v-110zM311 182c0 -21 16 -34 38 -34c16 0 28 6 35 19c0 -6 0 -11 1 -16h29c-1 5 -3 11 -3 21v40c0 34 -10 51 -46 51c-33 0 -50 -14 -51 -37h29c1 10 8 15 21 15c15 0 18 -9 18 -22
c-24 -2 -40 -5 -50 -8c-12 -5 -21 -14 -21 -29zM341 183c0 9 7 14 23 16l18 2v-3c0 -18 -10 -28 -24 -28c-11 0 -17 6 -17 13zM347 342h29v158h-29v-158zM427 151h29v158h-29v-158zM438 471h32v29h-32v-29zM439 342h30v110h-30v-110z" />
    <glyph glyph-name=".notdef" horiz-adv-x="550" 
d="M422 342v158h-30v-158h30zM50 0v700h450v-700h-450zM71 420c0 -46 25 -81 67 -81c18 0 35 6 43 20l4 -17h23v87h-67v-28h40v-2c0 -13 -9 -33 -36 -33s-41 20 -41 53c0 32 14 55 40 55c20 0 28 -13 31 -23l30 12c-7 19 -23 39 -60 39c-48 0 -74 -35 -74 -82zM89 278h44
v-127h30v127h44v29h-118v-29zM198 151h30v49c0 18 7 35 28 35c4 0 6 0 10 -1v28c-3 1 -5 1 -10 1c-14 0 -25 -10 -30 -21v18h-28v-109zM226 342h29v50c0 18 8 35 30 35c5 0 7 0 10 -1v27c-3 1 -6 2 -11 2c-15 0 -25 -11 -31 -21v18h-27v-110zM272 279h32v30h-32v-30z
M273 151h30v109h-30v-109zM301 471h32v29h-32v-29zM302 342h30v110h-30v-110zM311 182c0 -21 16 -34 38 -34c16 0 28 6 35 19c0 -6 0 -11 1 -16h29c-1 5 -3 11 -3 21v40c0 34 -10 51 -46 51c-33 0 -50 -14 -51 -37h29c1 10 8 15 21 15c15 0 18 -9 18 -22
c-24 -2 -40 -5 -50 -8c-12 -5 -21 -14 -21 -29zM341 183c0 9 7 14 23 16l18 2v-3c0 -18 -10 -28 -24 -28c-11 0 -17 6 -17 13zM347 342h29v158h-29v-158zM427 151h29v158h-29v-158zM438 471h32v29h-32v-29zM439 342h30v110h-30v-110z" />
    <glyph glyph-name=".null" horiz-adv-x="0" 
 />
    <glyph glyph-name="space" unicode=" " horiz-adv-x="252" 
 />
    <glyph glyph-name="space" unicode="&#xa0;" horiz-adv-x="252" 
 />
    <glyph glyph-name="A" unicode="A" horiz-adv-x="719" 
d="M17 0l259 700h169l258 -700h-135l-67 191h-283l-67 -191h-134zM258 303h204l-102 291z" />
    <glyph glyph-name="B" unicode="B" horiz-adv-x="682" 
d="M87 0v700h306c128 0 209 -68 209 -175c0 -68 -38 -125 -92 -154c66 -26 112 -85 112 -167c0 -120 -82 -204 -217 -204h-318zM210 113h178c69 0 109 38 109 102s-39 99 -109 99h-178v-201zM210 420h166c64 0 101 31 101 84c0 55 -39 83 -101 83h-166v-167z" />
    <glyph glyph-name="C" unicode="C" horiz-adv-x="694" 
d="M371 -15c-187 0 -318 120 -318 364s127 366 320 366c154 0 262 -86 284 -245h-129c-14 85 -77 130 -155 130c-115 0 -193 -72 -193 -250c0 -175 82 -250 191 -250c87 0 143 55 157 140h128c-24 -154 -125 -255 -285 -255z" />
    <glyph glyph-name="D" unicode="D" horiz-adv-x="720" 
d="M87 0v700h253c203 0 327 -133 327 -350c0 -216 -123 -350 -327 -350h-253zM210 113h137c127 0 193 95 193 237s-66 237 -193 237h-137v-474z" />
    <glyph glyph-name="E" unicode="E" horiz-adv-x="598" 
d="M87 0v700h443v-115h-320v-160h320v-115h-320v-195h320v-115h-443z" />
    <glyph glyph-name="F" unicode="F" horiz-adv-x="565" 
d="M87 0v700h429v-115h-306v-170h306v-115h-306v-300h-123z" />
    <glyph glyph-name="G" unicode="G" horiz-adv-x="726" 
d="M362 -15c-182 0 -309 133 -309 364c0 230 124 366 320 366c161 0 267 -86 286 -235h-128c-15 75 -71 121 -158 121c-121 0 -193 -88 -193 -253c0 -169 74 -249 200 -249c87 0 149 47 159 141h-224v112h344v-352h-102v79c-37 -57 -107 -94 -195 -94z" />
    <glyph glyph-name="H" unicode="H" horiz-adv-x="734" 
d="M525 0v310h-315v-310h-123v700h123v-275h315v275h123v-700h-123z" />
    <glyph glyph-name="I" unicode="I" horiz-adv-x="296" 
d="M87 0v700h123v-700h-123z" />
    <glyph glyph-name="J" unicode="J" horiz-adv-x="483" 
d="M18 0v115h163c70 0 102 38 102 122v463h123v-463c0 -169 -65 -237 -225 -237h-163z" />
    <glyph glyph-name="K" unicode="K" horiz-adv-x="674" 
d="M505 0l-225 304h-70v-304h-123v700h123v-270h68l227 270h151l-275 -328l275 -372h-151z" />
    <glyph glyph-name="L" unicode="L" horiz-adv-x="548" 
d="M87 0v700h123v-585h320v-115h-443z" />
    <glyph glyph-name="M" unicode="M" horiz-adv-x="901" 
d="M87 0v700h172l191 -537l192 537h172v-700h-120v528l-189 -528h-110l-189 531v-531h-119z" />
    <glyph glyph-name="N" unicode="N" horiz-adv-x="734" 
d="M87 0v700h148l290 -506v506h123v-700h-148l-290 505v-505h-123z" />
    <glyph glyph-name="O" unicode="O" horiz-adv-x="745" 
d="M372 -15c-188 0 -319 127 -319 365s131 365 319 365c189 0 319 -127 319 -365s-130 -365 -319 -365zM180 350c0 -169 80 -250 192 -250c113 0 192 81 192 250s-79 250 -192 250c-112 0 -192 -81 -192 -250z" />
    <glyph glyph-name="P" unicode="P" horiz-adv-x="659" 
d="M87 0v700h297c147 0 238 -81 238 -214s-91 -215 -238 -215h-174v-271h-123zM210 386h169c75 0 118 38 118 100s-43 99 -118 99h-169v-199z" />
    <glyph glyph-name="Q" unicode="Q" horiz-adv-x="747" 
d="M372 0c-188 0 -319 126 -319 360c0 231 131 355 319 355c189 0 319 -124 319 -349c0 -105 -35 -197 -105 -257h130v-109h-344zM180 360c0 -166 80 -245 192 -245c113 0 192 79 192 245c0 162 -79 240 -192 240c-112 0 -192 -78 -192 -240z" />
    <glyph glyph-name="R" unicode="R" horiz-adv-x="690" 
d="M87 0v700h307c147 0 238 -79 238 -209c0 -116 -73 -192 -193 -207l213 -284h-152l-211 284h-79v-284h-123zM210 396h184c72 0 113 36 113 95s-41 94 -113 94h-184v-189z" />
    <glyph glyph-name="S" unicode="S" horiz-adv-x="633" 
d="M323 -15c-177 0 -283 87 -285 232h126c1 -75 61 -122 159 -122c85 0 139 42 139 109c0 54 -35 85 -109 95l-86 12c-140 18 -207 86 -207 196c0 126 103 208 257 208c162 0 259 -79 262 -204h-125c-3 60 -55 96 -137 96c-78 0 -130 -36 -130 -92c0 -51 37 -78 117 -89
l81 -11c136 -17 204 -85 204 -203c0 -138 -100 -227 -266 -227z" />
    <glyph glyph-name="T" unicode="T" horiz-adv-x="589" 
d="M233 0v585h-216v115h555v-115h-216v-585h-123z" />
    <glyph glyph-name="U" unicode="U" horiz-adv-x="699" 
d="M349 -15c-169 0 -272 105 -272 278v437h123v-428c0 -112 55 -172 149 -172s149 60 149 172v428h124v-437c0 -173 -103 -278 -273 -278z" />
    <glyph glyph-name="V" unicode="V" horiz-adv-x="687" 
d="M259 0l-242 700h137l190 -565l189 565h138l-243 -700h-169z" />
    <glyph glyph-name="W" unicode="W" horiz-adv-x="958" 
d="M205 0l-180 700h132l127 -533l127 533h136l127 -530l126 530h133l-180 -700h-146l-128 528l-128 -528h-146z" />
    <glyph glyph-name="X" unicode="X" horiz-adv-x="677" 
d="M17 0l245 369l-234 331h154l156 -234l158 234h153l-235 -331l247 -369h-151l-172 269l-170 -269h-151z" />
    <glyph glyph-name="Y" unicode="Y" horiz-adv-x="676" 
d="M276 0v296l-268 404h147l183 -281l183 281h146l-268 -404v-296h-123z" />
    <glyph glyph-name="Z" unicode="Z" horiz-adv-x="614" 
d="M40 0v115l373 470h-363v115h516v-115l-372 -470h377v-115h-531z" />
    <glyph glyph-name="Aacute" unicode="&#xc1;" horiz-adv-x="719" 
d="M17 0l259 700h169l258 -700h-135l-67 191h-283l-67 -191h-134zM258 303h204l-102 291z" />
    <glyph glyph-name="Abreve" unicode="&#x102;" horiz-adv-x="719" 
d="M17 0l259 700h169l258 -700h-135l-67 191h-283l-67 -191h-134zM258 303h204l-102 291z" />
    <glyph glyph-name="Acircumflex" unicode="&#xc2;" horiz-adv-x="719" 
d="M17 0l259 700h169l258 -700h-135l-67 191h-283l-67 -191h-134zM258 303h204l-102 291z" />
    <glyph glyph-name="Adieresis" unicode="&#xc4;" horiz-adv-x="719" 
d="M17 0l259 700h169l258 -700h-135l-67 191h-283l-67 -191h-134zM258 303h204l-102 291z" />
    <glyph glyph-name="AE" unicode="&#xc6;" horiz-adv-x="1313" 
d="M17 0l259 700h169l258 -700h-135l-67 191h-283l-67 -191h-134zM258 303h204l-102 291zM802 0v700h443v-115h-320v-160h320v-115h-320v-195h320v-115h-443z" />
    <glyph glyph-name="AEacute" unicode="&#x1fc;" horiz-adv-x="1313" 
d="M17 0l259 700h169l258 -700h-135l-67 191h-283l-67 -191h-134zM258 303h204l-102 291zM802 0v700h443v-115h-320v-160h320v-115h-320v-195h320v-115h-443z" />
    <glyph glyph-name="Agrave" unicode="&#xc0;" horiz-adv-x="719" 
d="M17 0l259 700h169l258 -700h-135l-67 191h-283l-67 -191h-134zM258 303h204l-102 291z" />
    <glyph glyph-name="Amacron" unicode="&#x100;" horiz-adv-x="719" 
d="M17 0l259 700h169l258 -700h-135l-67 191h-283l-67 -191h-134zM258 303h204l-102 291z" />
    <glyph glyph-name="Aogonek" unicode="&#x104;" horiz-adv-x="719" 
d="M17 0l259 700h169l258 -700h-135l-67 191h-283l-67 -191h-134zM258 303h204l-102 291z" />
    <glyph glyph-name="Aring" unicode="&#xc5;" horiz-adv-x="719" 
d="M17 0l259 700h169l258 -700h-135l-67 191h-283l-67 -191h-134zM258 303h204l-102 291z" />
    <glyph glyph-name="Atilde" unicode="&#xc3;" horiz-adv-x="719" 
d="M17 0l259 700h169l258 -700h-135l-67 191h-283l-67 -191h-134zM258 303h204l-102 291z" />
    <glyph glyph-name="Cacute" unicode="&#x106;" horiz-adv-x="694" 
d="M371 -15c-187 0 -318 120 -318 364s127 366 320 366c154 0 262 -86 284 -245h-129c-14 85 -77 130 -155 130c-115 0 -193 -72 -193 -250c0 -175 82 -250 191 -250c87 0 143 55 157 140h128c-24 -154 -125 -255 -285 -255z" />
    <glyph glyph-name="Ccaron" unicode="&#x10c;" horiz-adv-x="694" 
d="M371 -15c-187 0 -318 120 -318 364s127 366 320 366c154 0 262 -86 284 -245h-129c-14 85 -77 130 -155 130c-115 0 -193 -72 -193 -250c0 -175 82 -250 191 -250c87 0 143 55 157 140h128c-24 -154 -125 -255 -285 -255z" />
    <glyph glyph-name="Ccedilla" unicode="&#xc7;" horiz-adv-x="694" 
d="M371 -15c-187 0 -318 120 -318 364s127 366 320 366c154 0 262 -86 284 -245h-129c-14 85 -77 130 -155 130c-115 0 -193 -72 -193 -250c0 -175 82 -250 191 -250c87 0 143 55 157 140h128c-24 -154 -125 -255 -285 -255z" />
    <glyph glyph-name="Ccircumflex" unicode="&#x108;" horiz-adv-x="694" 
d="M371 -15c-187 0 -318 120 -318 364s127 366 320 366c154 0 262 -86 284 -245h-129c-14 85 -77 130 -155 130c-115 0 -193 -72 -193 -250c0 -175 82 -250 191 -250c87 0 143 55 157 140h128c-24 -154 -125 -255 -285 -255z" />
    <glyph glyph-name="Cdotaccent" unicode="&#x10a;" horiz-adv-x="694" 
d="M371 -15c-187 0 -318 120 -318 364s127 366 320 366c154 0 262 -86 284 -245h-129c-14 85 -77 130 -155 130c-115 0 -193 -72 -193 -250c0 -175 82 -250 191 -250c87 0 143 55 157 140h128c-24 -154 -125 -255 -285 -255z" />
    <glyph glyph-name="Dcaron" unicode="&#x10e;" horiz-adv-x="720" 
d="M87 0v700h253c203 0 327 -133 327 -350c0 -216 -123 -350 -327 -350h-253zM210 113h137c127 0 193 95 193 237s-66 237 -193 237h-137v-474z" />
    <glyph glyph-name="Dcroat" unicode="&#x110;" horiz-adv-x="720" 
d="M87 0v700h253c203 0 327 -133 327 -350c0 -216 -123 -350 -327 -350h-253zM210 113h137c127 0 193 95 193 237s-66 237 -193 237h-137v-474z" />
    <glyph glyph-name="Eacute" unicode="&#xc9;" horiz-adv-x="598" 
d="M87 0v700h443v-115h-320v-160h320v-115h-320v-195h320v-115h-443z" />
    <glyph glyph-name="Ebreve" unicode="&#x114;" horiz-adv-x="598" 
d="M87 0v700h443v-115h-320v-160h320v-115h-320v-195h320v-115h-443z" />
    <glyph glyph-name="Ecaron" unicode="&#x11a;" horiz-adv-x="598" 
d="M87 0v700h443v-115h-320v-160h320v-115h-320v-195h320v-115h-443z" />
    <glyph glyph-name="Ecircumflex" unicode="&#xca;" horiz-adv-x="598" 
d="M87 0v700h443v-115h-320v-160h320v-115h-320v-195h320v-115h-443z" />
    <glyph glyph-name="Edieresis" unicode="&#xcb;" horiz-adv-x="598" 
d="M87 0v700h443v-115h-320v-160h320v-115h-320v-195h320v-115h-443z" />
    <glyph glyph-name="Edotaccent" unicode="&#x116;" horiz-adv-x="598" 
d="M87 0v700h443v-115h-320v-160h320v-115h-320v-195h320v-115h-443z" />
    <glyph glyph-name="Egrave" unicode="&#xc8;" horiz-adv-x="598" 
d="M87 0v700h443v-115h-320v-160h320v-115h-320v-195h320v-115h-443z" />
    <glyph glyph-name="Emacron" unicode="&#x112;" horiz-adv-x="598" 
d="M87 0v700h443v-115h-320v-160h320v-115h-320v-195h320v-115h-443z" />
    <glyph glyph-name="Eogonek" unicode="&#x118;" horiz-adv-x="598" 
d="M87 0v700h443v-115h-320v-160h320v-115h-320v-195h320v-115h-443z" />
    <glyph glyph-name="Eth" unicode="&#xd0;" horiz-adv-x="720" 
d="M87 0v700h253c203 0 327 -133 327 -350c0 -216 -123 -350 -327 -350h-253zM210 113h137c127 0 193 95 193 237s-66 237 -193 237h-137v-474z" />
    <glyph glyph-name="Gbreve" unicode="&#x11e;" horiz-adv-x="726" 
d="M362 -15c-182 0 -309 133 -309 364c0 230 124 366 320 366c161 0 267 -86 286 -235h-128c-15 75 -71 121 -158 121c-121 0 -193 -88 -193 -253c0 -169 74 -249 200 -249c87 0 149 47 159 141h-224v112h344v-352h-102v79c-37 -57 -107 -94 -195 -94z" />
    <glyph glyph-name="Gcircumflex" unicode="&#x11c;" horiz-adv-x="726" 
d="M362 -15c-182 0 -309 133 -309 364c0 230 124 366 320 366c161 0 267 -86 286 -235h-128c-15 75 -71 121 -158 121c-121 0 -193 -88 -193 -253c0 -169 74 -249 200 -249c87 0 149 47 159 141h-224v112h344v-352h-102v79c-37 -57 -107 -94 -195 -94z" />
    <glyph glyph-name="uni0122" unicode="&#x122;" horiz-adv-x="726" 
d="M362 -15c-182 0 -309 133 -309 364c0 230 124 366 320 366c161 0 267 -86 286 -235h-128c-15 75 -71 121 -158 121c-121 0 -193 -88 -193 -253c0 -169 74 -249 200 -249c87 0 149 47 159 141h-224v112h344v-352h-102v79c-37 -57 -107 -94 -195 -94z" />
    <glyph glyph-name="Gdotaccent" unicode="&#x120;" horiz-adv-x="726" 
d="M362 -15c-182 0 -309 133 -309 364c0 230 124 366 320 366c161 0 267 -86 286 -235h-128c-15 75 -71 121 -158 121c-121 0 -193 -88 -193 -253c0 -169 74 -249 200 -249c87 0 149 47 159 141h-224v112h344v-352h-102v79c-37 -57 -107 -94 -195 -94z" />
    <glyph glyph-name="Hbar" unicode="&#x126;" horiz-adv-x="734" 
d="M525 0v310h-315v-310h-123v700h123v-275h315v275h123v-700h-123z" />
    <glyph glyph-name="Hcircumflex" unicode="&#x124;" horiz-adv-x="734" 
d="M525 0v310h-315v-310h-123v700h123v-275h315v275h123v-700h-123z" />
    <glyph glyph-name="Iacute" unicode="&#xcd;" horiz-adv-x="296" 
d="M87 0v700h123v-700h-123z" />
    <glyph glyph-name="Ibreve" unicode="&#x12c;" horiz-adv-x="296" 
d="M87 0v700h123v-700h-123z" />
    <glyph glyph-name="Icircumflex" unicode="&#xce;" horiz-adv-x="296" 
d="M87 0v700h123v-700h-123z" />
    <glyph glyph-name="Idieresis" unicode="&#xcf;" horiz-adv-x="296" 
d="M87 0v700h123v-700h-123z" />
    <glyph glyph-name="Idotaccent" unicode="&#x130;" horiz-adv-x="296" 
d="M87 0v700h123v-700h-123z" />
    <glyph glyph-name="Igrave" unicode="&#xcc;" horiz-adv-x="296" 
d="M87 0v700h123v-700h-123z" />
    <glyph glyph-name="IJ" unicode="&#x132;" horiz-adv-x="777" 
d="M87 0v700h123v-700h-123zM312 0v115h163c70 0 102 38 102 122v463h123v-463c0 -169 -65 -237 -225 -237h-163z" />
    <glyph glyph-name="Imacron" unicode="&#x12a;" horiz-adv-x="296" 
d="M87 0v700h123v-700h-123z" />
    <glyph glyph-name="Iogonek" unicode="&#x12e;" horiz-adv-x="296" 
d="M87 0v700h123v-700h-123z" />
    <glyph glyph-name="Itilde" unicode="&#x128;" horiz-adv-x="296" 
d="M87 0v700h123v-700h-123z" />
    <glyph glyph-name="Jcircumflex" unicode="&#x134;" horiz-adv-x="483" 
d="M18 0v115h163c70 0 102 38 102 122v463h123v-463c0 -169 -65 -237 -225 -237h-163z" />
    <glyph glyph-name="uni0136" unicode="&#x136;" horiz-adv-x="674" 
d="M505 0l-225 304h-70v-304h-123v700h123v-270h68l227 270h151l-275 -328l275 -372h-151z" />
    <glyph glyph-name="Lacute" unicode="&#x139;" horiz-adv-x="548" 
d="M87 0v700h123v-585h320v-115h-443z" />
    <glyph glyph-name="Lcaron" unicode="&#x13d;" horiz-adv-x="548" 
d="M87 0v700h123v-585h320v-115h-443z" />
    <glyph glyph-name="uni013B" unicode="&#x13b;" horiz-adv-x="548" 
d="M87 0v700h123v-585h320v-115h-443z" />
    <glyph glyph-name="Ldot" unicode="&#x13f;" horiz-adv-x="548" 
d="M87 0v700h123v-585h320v-115h-443z" />
    <glyph glyph-name="Lslash" unicode="&#x141;" horiz-adv-x="548" 
d="M87 0v700h123v-585h320v-115h-443z" />
    <glyph glyph-name="Nacute" unicode="&#x143;" horiz-adv-x="734" 
d="M87 0v700h148l290 -506v506h123v-700h-148l-290 505v-505h-123z" />
    <glyph glyph-name="Ncaron" unicode="&#x147;" horiz-adv-x="734" 
d="M87 0v700h148l290 -506v506h123v-700h-148l-290 505v-505h-123z" />
    <glyph glyph-name="uni0145" unicode="&#x145;" horiz-adv-x="734" 
d="M87 0v700h148l290 -506v506h123v-700h-148l-290 505v-505h-123z" />
    <glyph glyph-name="Ntilde" unicode="&#xd1;" horiz-adv-x="734" 
d="M87 0v700h148l290 -506v506h123v-700h-148l-290 505v-505h-123z" />
    <glyph glyph-name="Eng" unicode="&#x14a;" horiz-adv-x="734" 
d="M87 0v700h148l290 -506v506h123v-700h-148l-290 505v-505h-123z" />
    <glyph glyph-name="Oacute" unicode="&#xd3;" horiz-adv-x="745" 
d="M372 -15c-188 0 -319 127 -319 365s131 365 319 365c189 0 319 -127 319 -365s-130 -365 -319 -365zM180 350c0 -169 80 -250 192 -250c113 0 192 81 192 250s-79 250 -192 250c-112 0 -192 -81 -192 -250z" />
    <glyph glyph-name="Obreve" unicode="&#x14e;" horiz-adv-x="745" 
d="M372 -15c-188 0 -319 127 -319 365s131 365 319 365c189 0 319 -127 319 -365s-130 -365 -319 -365zM180 350c0 -169 80 -250 192 -250c113 0 192 81 192 250s-79 250 -192 250c-112 0 -192 -81 -192 -250z" />
    <glyph glyph-name="Ocircumflex" unicode="&#xd4;" horiz-adv-x="745" 
d="M372 -15c-188 0 -319 127 -319 365s131 365 319 365c189 0 319 -127 319 -365s-130 -365 -319 -365zM180 350c0 -169 80 -250 192 -250c113 0 192 81 192 250s-79 250 -192 250c-112 0 -192 -81 -192 -250z" />
    <glyph glyph-name="Odieresis" unicode="&#xd6;" horiz-adv-x="745" 
d="M372 -15c-188 0 -319 127 -319 365s131 365 319 365c189 0 319 -127 319 -365s-130 -365 -319 -365zM180 350c0 -169 80 -250 192 -250c113 0 192 81 192 250s-79 250 -192 250c-112 0 -192 -81 -192 -250z" />
    <glyph glyph-name="OE" unicode="&#x152;" horiz-adv-x="1343" 
d="M372 -15c-188 0 -319 127 -319 365s131 365 319 365c189 0 319 -127 319 -365s-130 -365 -319 -365zM180 350c0 -169 80 -250 192 -250c113 0 192 81 192 250s-79 250 -192 250c-112 0 -192 -81 -192 -250zM832 0v700h443v-115h-320v-160h320v-115h-320v-195h320v-115
h-443z" />
    <glyph glyph-name="Ograve" unicode="&#xd2;" horiz-adv-x="745" 
d="M372 -15c-188 0 -319 127 -319 365s131 365 319 365c189 0 319 -127 319 -365s-130 -365 -319 -365zM180 350c0 -169 80 -250 192 -250c113 0 192 81 192 250s-79 250 -192 250c-112 0 -192 -81 -192 -250z" />
    <glyph glyph-name="Ohungarumlaut" unicode="&#x150;" horiz-adv-x="745" 
d="M372 -15c-188 0 -319 127 -319 365s131 365 319 365c189 0 319 -127 319 -365s-130 -365 -319 -365zM180 350c0 -169 80 -250 192 -250c113 0 192 81 192 250s-79 250 -192 250c-112 0 -192 -81 -192 -250z" />
    <glyph glyph-name="Omacron" unicode="&#x14c;" horiz-adv-x="745" 
d="M372 -15c-188 0 -319 127 -319 365s131 365 319 365c189 0 319 -127 319 -365s-130 -365 -319 -365zM180 350c0 -169 80 -250 192 -250c113 0 192 81 192 250s-79 250 -192 250c-112 0 -192 -81 -192 -250z" />
    <glyph glyph-name="Oslash" unicode="&#xd8;" horiz-adv-x="745" 
d="M372 -15c-188 0 -319 127 -319 365s131 365 319 365c189 0 319 -127 319 -365s-130 -365 -319 -365zM180 350c0 -169 80 -250 192 -250c113 0 192 81 192 250s-79 250 -192 250c-112 0 -192 -81 -192 -250z" />
    <glyph glyph-name="Oslashacute" unicode="&#x1fe;" horiz-adv-x="745" 
d="M372 -15c-188 0 -319 127 -319 365s131 365 319 365c189 0 319 -127 319 -365s-130 -365 -319 -365zM180 350c0 -169 80 -250 192 -250c113 0 192 81 192 250s-79 250 -192 250c-112 0 -192 -81 -192 -250z" />
    <glyph glyph-name="Otilde" unicode="&#xd5;" horiz-adv-x="745" 
d="M372 -15c-188 0 -319 127 -319 365s131 365 319 365c189 0 319 -127 319 -365s-130 -365 -319 -365zM180 350c0 -169 80 -250 192 -250c113 0 192 81 192 250s-79 250 -192 250c-112 0 -192 -81 -192 -250z" />
    <glyph glyph-name="Racute" unicode="&#x154;" horiz-adv-x="690" 
d="M87 0v700h307c147 0 238 -79 238 -209c0 -116 -73 -192 -193 -207l213 -284h-152l-211 284h-79v-284h-123zM210 396h184c72 0 113 36 113 95s-41 94 -113 94h-184v-189z" />
    <glyph glyph-name="Rcaron" unicode="&#x158;" horiz-adv-x="690" 
d="M87 0v700h307c147 0 238 -79 238 -209c0 -116 -73 -192 -193 -207l213 -284h-152l-211 284h-79v-284h-123zM210 396h184c72 0 113 36 113 95s-41 94 -113 94h-184v-189z" />
    <glyph glyph-name="uni0156" unicode="&#x156;" horiz-adv-x="690" 
d="M87 0v700h307c147 0 238 -79 238 -209c0 -116 -73 -192 -193 -207l213 -284h-152l-211 284h-79v-284h-123zM210 396h184c72 0 113 36 113 95s-41 94 -113 94h-184v-189z" />
    <glyph glyph-name="Sacute" unicode="&#x15a;" horiz-adv-x="633" 
d="M323 -15c-177 0 -283 87 -285 232h126c1 -75 61 -122 159 -122c85 0 139 42 139 109c0 54 -35 85 -109 95l-86 12c-140 18 -207 86 -207 196c0 126 103 208 257 208c162 0 259 -79 262 -204h-125c-3 60 -55 96 -137 96c-78 0 -130 -36 -130 -92c0 -51 37 -78 117 -89
l81 -11c136 -17 204 -85 204 -203c0 -138 -100 -227 -266 -227z" />
    <glyph glyph-name="Scaron" unicode="&#x160;" horiz-adv-x="633" 
d="M323 -15c-177 0 -283 87 -285 232h126c1 -75 61 -122 159 -122c85 0 139 42 139 109c0 54 -35 85 -109 95l-86 12c-140 18 -207 86 -207 196c0 126 103 208 257 208c162 0 259 -79 262 -204h-125c-3 60 -55 96 -137 96c-78 0 -130 -36 -130 -92c0 -51 37 -78 117 -89
l81 -11c136 -17 204 -85 204 -203c0 -138 -100 -227 -266 -227z" />
    <glyph glyph-name="Scedilla" unicode="&#x15e;" horiz-adv-x="633" 
d="M323 -15c-177 0 -283 87 -285 232h126c1 -75 61 -122 159 -122c85 0 139 42 139 109c0 54 -35 85 -109 95l-86 12c-140 18 -207 86 -207 196c0 126 103 208 257 208c162 0 259 -79 262 -204h-125c-3 60 -55 96 -137 96c-78 0 -130 -36 -130 -92c0 -51 37 -78 117 -89
l81 -11c136 -17 204 -85 204 -203c0 -138 -100 -227 -266 -227z" />
    <glyph glyph-name="Scircumflex" unicode="&#x15c;" horiz-adv-x="633" 
d="M323 -15c-177 0 -283 87 -285 232h126c1 -75 61 -122 159 -122c85 0 139 42 139 109c0 54 -35 85 -109 95l-86 12c-140 18 -207 86 -207 196c0 126 103 208 257 208c162 0 259 -79 262 -204h-125c-3 60 -55 96 -137 96c-78 0 -130 -36 -130 -92c0 -51 37 -78 117 -89
l81 -11c136 -17 204 -85 204 -203c0 -138 -100 -227 -266 -227z" />
    <glyph glyph-name="uni0218" unicode="&#x218;" horiz-adv-x="633" 
d="M323 -15c-177 0 -283 87 -285 232h126c1 -75 61 -122 159 -122c85 0 139 42 139 109c0 54 -35 85 -109 95l-86 12c-140 18 -207 86 -207 196c0 126 103 208 257 208c162 0 259 -79 262 -204h-125c-3 60 -55 96 -137 96c-78 0 -130 -36 -130 -92c0 -51 37 -78 117 -89
l81 -11c136 -17 204 -85 204 -203c0 -138 -100 -227 -266 -227z" />
    <glyph glyph-name="Tbar" unicode="&#x166;" horiz-adv-x="589" 
d="M233 0v585h-216v115h555v-115h-216v-585h-123z" />
    <glyph glyph-name="Tcaron" unicode="&#x164;" horiz-adv-x="589" 
d="M233 0v585h-216v115h555v-115h-216v-585h-123z" />
    <glyph glyph-name="uni0162" unicode="&#x162;" horiz-adv-x="589" 
d="M233 0v585h-216v115h555v-115h-216v-585h-123z" />
    <glyph glyph-name="uni021A" unicode="&#x21a;" horiz-adv-x="589" 
d="M233 0v585h-216v115h555v-115h-216v-585h-123z" />
    <glyph glyph-name="Thorn" unicode="&#xde;" horiz-adv-x="659" 
d="M87 0v700h297c147 0 238 -81 238 -214s-91 -215 -238 -215h-174v-271h-123zM210 386h169c75 0 118 38 118 100s-43 99 -118 99h-169v-199z" />
    <glyph glyph-name="Uacute" unicode="&#xda;" horiz-adv-x="699" 
d="M349 -15c-169 0 -272 105 -272 278v437h123v-428c0 -112 55 -172 149 -172s149 60 149 172v428h124v-437c0 -173 -103 -278 -273 -278z" />
    <glyph glyph-name="Ubreve" unicode="&#x16c;" horiz-adv-x="699" 
d="M349 -15c-169 0 -272 105 -272 278v437h123v-428c0 -112 55 -172 149 -172s149 60 149 172v428h124v-437c0 -173 -103 -278 -273 -278z" />
    <glyph glyph-name="Ucircumflex" unicode="&#xdb;" horiz-adv-x="699" 
d="M349 -15c-169 0 -272 105 -272 278v437h123v-428c0 -112 55 -172 149 -172s149 60 149 172v428h124v-437c0 -173 -103 -278 -273 -278z" />
    <glyph glyph-name="Udieresis" unicode="&#xdc;" horiz-adv-x="699" 
d="M349 -15c-169 0 -272 105 -272 278v437h123v-428c0 -112 55 -172 149 -172s149 60 149 172v428h124v-437c0 -173 -103 -278 -273 -278z" />
    <glyph glyph-name="Ugrave" unicode="&#xd9;" horiz-adv-x="699" 
d="M349 -15c-169 0 -272 105 -272 278v437h123v-428c0 -112 55 -172 149 -172s149 60 149 172v428h124v-437c0 -173 -103 -278 -273 -278z" />
    <glyph glyph-name="Uhungarumlaut" unicode="&#x170;" horiz-adv-x="699" 
d="M349 -15c-169 0 -272 105 -272 278v437h123v-428c0 -112 55 -172 149 -172s149 60 149 172v428h124v-437c0 -173 -103 -278 -273 -278z" />
    <glyph glyph-name="Umacron" unicode="&#x16a;" horiz-adv-x="699" 
d="M349 -15c-169 0 -272 105 -272 278v437h123v-428c0 -112 55 -172 149 -172s149 60 149 172v428h124v-437c0 -173 -103 -278 -273 -278z" />
    <glyph glyph-name="Uogonek" unicode="&#x172;" horiz-adv-x="699" 
d="M349 -15c-169 0 -272 105 -272 278v437h123v-428c0 -112 55 -172 149 -172s149 60 149 172v428h124v-437c0 -173 -103 -278 -273 -278z" />
    <glyph glyph-name="Uring" unicode="&#x16e;" horiz-adv-x="699" 
d="M349 -15c-169 0 -272 105 -272 278v437h123v-428c0 -112 55 -172 149 -172s149 60 149 172v428h124v-437c0 -173 -103 -278 -273 -278z" />
    <glyph glyph-name="Utilde" unicode="&#x168;" horiz-adv-x="699" 
d="M349 -15c-169 0 -272 105 -272 278v437h123v-428c0 -112 55 -172 149 -172s149 60 149 172v428h124v-437c0 -173 -103 -278 -273 -278z" />
    <glyph glyph-name="Wacute" unicode="&#x1e82;" horiz-adv-x="958" 
d="M205 0l-180 700h132l127 -533l127 533h136l127 -530l126 530h133l-180 -700h-146l-128 528l-128 -528h-146z" />
    <glyph glyph-name="Wcircumflex" unicode="&#x174;" horiz-adv-x="958" 
d="M205 0l-180 700h132l127 -533l127 533h136l127 -530l126 530h133l-180 -700h-146l-128 528l-128 -528h-146z" />
    <glyph glyph-name="Wdieresis" unicode="&#x1e84;" horiz-adv-x="958" 
d="M205 0l-180 700h132l127 -533l127 533h136l127 -530l126 530h133l-180 -700h-146l-128 528l-128 -528h-146z" />
    <glyph glyph-name="Wgrave" unicode="&#x1e80;" horiz-adv-x="958" 
d="M205 0l-180 700h132l127 -533l127 533h136l127 -530l126 530h133l-180 -700h-146l-128 528l-128 -528h-146z" />
    <glyph glyph-name="Yacute" unicode="&#xdd;" horiz-adv-x="676" 
d="M276 0v296l-268 404h147l183 -281l183 281h146l-268 -404v-296h-123z" />
    <glyph glyph-name="Ycircumflex" unicode="&#x176;" horiz-adv-x="676" 
d="M276 0v296l-268 404h147l183 -281l183 281h146l-268 -404v-296h-123z" />
    <glyph glyph-name="Ydieresis" unicode="&#x178;" horiz-adv-x="676" 
d="M276 0v296l-268 404h147l183 -281l183 281h146l-268 -404v-296h-123z" />
    <glyph glyph-name="Ygrave" unicode="&#x1ef2;" horiz-adv-x="676" 
d="M276 0v296l-268 404h147l183 -281l183 281h146l-268 -404v-296h-123z" />
    <glyph glyph-name="Zacute" unicode="&#x179;" horiz-adv-x="614" 
d="M40 0v115l373 470h-363v115h516v-115l-372 -470h377v-115h-531z" />
    <glyph glyph-name="Zcaron" unicode="&#x17d;" horiz-adv-x="614" 
d="M40 0v115l373 470h-363v115h516v-115l-372 -470h377v-115h-531z" />
    <glyph glyph-name="Zdotaccent" unicode="&#x17b;" horiz-adv-x="614" 
d="M40 0v115l373 470h-363v115h516v-115l-372 -470h377v-115h-531z" />
    <glyph glyph-name="a" unicode="a" horiz-adv-x="539" 
d="M218 -15c-113 0 -185 59 -185 154c0 90 59 152 178 160l136 8v24c0 52 -26 74 -83 74c-56 0 -82 -15 -89 -56h-118c10 100 79 154 215 154c118 0 188 -60 188 -165v-227c0 -10 5 -15 15 -15h43v-96h-90c-34 0 -55 19 -55 52v4c-28 -44 -83 -71 -155 -71zM152 143
c0 -36 29 -60 82 -60c66 0 113 36 113 107v27l-118 -10c-52 -4 -77 -31 -77 -64z" />
    <glyph glyph-name="b" unicode="b" horiz-adv-x="614" 
d="M339 -15c-70 0 -130 27 -161 73v-58h-105v700h119v-260c30 40 84 63 147 63c139 0 234 -104 234 -259s-95 -259 -234 -259zM190 244c0 -90 52 -151 130 -151c77 0 130 61 130 151s-53 151 -130 151c-78 0 -130 -61 -130 -151z" />
    <glyph glyph-name="c" unicode="c" horiz-adv-x="542" 
d="M284 -15c-149 0 -242 110 -242 257c0 153 99 261 248 261c126 0 214 -74 224 -181h-121c-9 39 -44 73 -104 73c-76 0 -124 -59 -124 -151c0 -94 49 -151 123 -151c57 0 97 34 107 83h121c-13 -100 -95 -191 -232 -191z" />
    <glyph glyph-name="d" unicode="d" horiz-adv-x="614" 
d="M276 -15c-140 0 -234 104 -234 259s94 259 234 259c62 0 116 -23 146 -63v260h119v-700h-105v58c-31 -46 -91 -73 -160 -73zM165 244c0 -90 52 -151 130 -151c77 0 129 61 129 151s-52 151 -129 151c-78 0 -130 -61 -130 -151z" />
    <glyph glyph-name="e" unicode="e" horiz-adv-x="555" 
d="M287 -15c-148 0 -245 104 -245 262c0 156 98 256 239 256c148 0 238 -96 238 -249c0 -15 0 -31 -2 -51h-358c6 -74 53 -118 129 -118c51 0 85 22 101 57h122c-30 -95 -105 -157 -224 -157zM159 295h240v3c0 64 -42 109 -118 109c-72 0 -118 -45 -122 -112z" />
    <glyph glyph-name="f" unicode="f" horiz-adv-x="429" 
d="M133 561c0 90 53 139 142 139h164v-105h-137c-31 0 -50 -14 -50 -47v-60h157v-105h-157v-383h-119v383h-125v105h125v73z" />
    <glyph glyph-name="g" unicode="g" horiz-adv-x="569" 
d="M179 -180c-110 0 -157 55 -157 123c0 41 21 78 62 99c-27 19 -43 48 -43 79c0 40 23 78 80 94c-42 31 -61 76 -61 121c0 94 72 167 198 167c78 0 143 -39 165 -91v15c0 49 30 61 62 61h72v-105h-81c-12 0 -19 -5 -19 -19v-38c0 -102 -81 -167 -192 -167h-80
c-25 0 -41 -11 -41 -33c0 -21 18 -33 41 -33h171c100 0 158 -48 158 -129c0 -82 -47 -144 -162 -144h-173zM135 -45c0 -26 18 -46 60 -46h149c31 0 57 16 57 50c0 28 -22 44 -54 44h-150c-43 0 -62 -21 -62 -48zM173 331c0 -48 32 -80 85 -80c54 0 86 32 86 80
s-33 80 -85 80c-54 0 -86 -32 -86 -80z" />
    <glyph glyph-name="h" unicode="h" horiz-adv-x="582" 
d="M73 0v700h119v-250c31 35 78 53 132 53c120 0 194 -76 194 -208v-295h-119v283c0 76 -36 112 -99 112c-65 0 -108 -46 -108 -116v-279h-119z" />
    <glyph glyph-name="i" unicode="i" horiz-adv-x="266" 
d="M73 0v488h119v-488h-119zM69 573v122h128v-122h-128z" />
    <glyph glyph-name="j" unicode="j" horiz-adv-x="273" 
d="M-20 -180v107h68c25 0 33 11 33 43v518h119v-533c0 -94 -54 -135 -139 -135h-81zM76 573v122h128v-122h-128z" />
    <glyph glyph-name="k" unicode="k" horiz-adv-x="544" 
d="M387 0l-147 209h-48v-209h-119v700h119v-382h48l145 170h146l-187 -221l187 -267h-144z" />
    <glyph glyph-name="l" unicode="l" horiz-adv-x="304" 
d="M178 0c-73 0 -105 27 -105 97v603h119v-562c0 -23 9 -33 33 -33h57v-105h-104z" />
    <glyph glyph-name="m" unicode="m" horiz-adv-x="824" 
d="M73 0v488h105v-54c28 48 71 69 128 69c64 0 111 -30 135 -81c34 55 83 81 142 81c113 0 178 -71 178 -194v-309h-120v301c0 61 -27 94 -80 94c-51 0 -85 -39 -85 -97v-298h-119v301c0 61 -27 94 -80 94c-50 0 -85 -40 -85 -97v-298h-119z" />
    <glyph glyph-name="n" unicode="n" horiz-adv-x="582" 
d="M73 0v488h105v-57c29 48 84 72 146 72c120 0 194 -76 194 -208v-295h-119v283c0 76 -36 112 -99 112c-65 0 -108 -46 -108 -116v-279h-119z" />
    <glyph glyph-name="o" unicode="o" 
d="M296 -15c-150 0 -254 104 -254 259s104 259 254 259c151 0 255 -104 255 -259s-104 -259 -255 -259zM165 244c0 -90 52 -151 131 -151s132 61 132 151s-53 151 -132 151s-131 -61 -131 -151z" />
    <glyph glyph-name="p" unicode="p" horiz-adv-x="614" 
d="M73 -180v668h105v-58c31 46 91 73 161 73c139 0 234 -104 234 -259s-95 -259 -234 -259c-63 0 -117 23 -147 63v-228h-119zM190 244c0 -90 52 -151 130 -151c77 0 130 61 130 151s-53 151 -130 151c-78 0 -130 -61 -130 -151z" />
    <glyph glyph-name="q" unicode="q" horiz-adv-x="614" 
d="M422 -180v228c-30 -40 -84 -63 -146 -63c-140 0 -234 104 -234 259s94 259 234 259c69 0 129 -27 160 -73v58h105v-668h-119zM165 244c0 -90 52 -151 130 -151c77 0 129 61 129 151s-52 151 -129 151c-78 0 -130 -61 -130 -151z" />
    <glyph glyph-name="r" unicode="r" horiz-adv-x="394" 
d="M73 0v488h105v-85c12 54 50 85 111 85h90v-105h-103c-58 0 -84 -30 -84 -91v-292h-119z" />
    <glyph glyph-name="s" unicode="s" horiz-adv-x="495" 
d="M248 -15c-133 0 -213 54 -218 157h123c4 -41 39 -61 99 -61c54 0 87 23 87 59c0 31 -24 47 -67 51l-78 8c-91 10 -148 64 -148 147c0 97 78 157 202 157c123 0 201 -52 207 -154h-119c-2 39 -36 57 -90 57c-51 0 -83 -20 -83 -54c0 -29 23 -45 72 -51l79 -9
c92 -11 145 -65 145 -146c0 -98 -81 -161 -211 -161z" />
    <glyph glyph-name="t" unicode="t" horiz-adv-x="426" 
d="M257 0c-86 0 -125 35 -125 124v259h-125v105h125v143h119v-143h149v-105h-149v-232c0 -32 12 -46 46 -46h103v-105h-143z" />
    <glyph glyph-name="u" unicode="u" horiz-adv-x="567" 
d="M253 -15c-119 0 -192 76 -192 208v295h119v-283c0 -76 34 -112 96 -112c64 0 105 45 105 116v279h119v-488h-105v47c-32 -41 -85 -62 -142 -62z" />
    <glyph glyph-name="v" unicode="v" horiz-adv-x="554" 
d="M209 0l-199 488h133l135 -359l134 359h132l-199 -488h-136z" />
    <glyph glyph-name="w" unicode="w" horiz-adv-x="799" 
d="M163 0l-146 488h124l95 -355l95 355h137l95 -355l95 355h124l-146 -488h-141l-95 354l-96 -354h-141z" />
    <glyph glyph-name="x" unicode="x" horiz-adv-x="545" 
d="M13 0l183 251l-173 237h144l106 -153l105 153h144l-173 -237l183 -251h-144l-116 160l-115 -160h-144z" />
    <glyph glyph-name="y" unicode="y" horiz-adv-x="546" 
d="M27 -180v106h95c29 0 44 10 54 33l35 78l-201 451h136l129 -315l128 315h133l-264 -592c-22 -50 -51 -76 -121 -76h-124z" />
    <glyph glyph-name="z" unicode="z" horiz-adv-x="514" 
d="M44 0v105l262 278h-257v105h414v-105l-262 -278h272v-105h-429z" />
    <glyph glyph-name="aacute" unicode="&#xe1;" horiz-adv-x="539" 
d="M218 -15c-113 0 -185 59 -185 154c0 90 59 152 178 160l136 8v24c0 52 -26 74 -83 74c-56 0 -82 -15 -89 -56h-118c10 100 79 154 215 154c118 0 188 -60 188 -165v-227c0 -10 5 -15 15 -15h43v-96h-90c-34 0 -55 19 -55 52v4c-28 -44 -83 -71 -155 -71zM152 143
c0 -36 29 -60 82 -60c66 0 113 36 113 107v27l-118 -10c-52 -4 -77 -31 -77 -64z" />
    <glyph glyph-name="abreve" unicode="&#x103;" horiz-adv-x="539" 
d="M218 -15c-113 0 -185 59 -185 154c0 90 59 152 178 160l136 8v24c0 52 -26 74 -83 74c-56 0 -82 -15 -89 -56h-118c10 100 79 154 215 154c118 0 188 -60 188 -165v-227c0 -10 5 -15 15 -15h43v-96h-90c-34 0 -55 19 -55 52v4c-28 -44 -83 -71 -155 -71zM152 143
c0 -36 29 -60 82 -60c66 0 113 36 113 107v27l-118 -10c-52 -4 -77 -31 -77 -64z" />
    <glyph glyph-name="acircumflex" unicode="&#xe2;" horiz-adv-x="539" 
d="M218 -15c-113 0 -185 59 -185 154c0 90 59 152 178 160l136 8v24c0 52 -26 74 -83 74c-56 0 -82 -15 -89 -56h-118c10 100 79 154 215 154c118 0 188 -60 188 -165v-227c0 -10 5 -15 15 -15h43v-96h-90c-34 0 -55 19 -55 52v4c-28 -44 -83 -71 -155 -71zM152 143
c0 -36 29 -60 82 -60c66 0 113 36 113 107v27l-118 -10c-52 -4 -77 -31 -77 -64z" />
    <glyph glyph-name="adieresis" unicode="&#xe4;" horiz-adv-x="539" 
d="M218 -15c-113 0 -185 59 -185 154c0 90 59 152 178 160l136 8v24c0 52 -26 74 -83 74c-56 0 -82 -15 -89 -56h-118c10 100 79 154 215 154c118 0 188 -60 188 -165v-227c0 -10 5 -15 15 -15h43v-96h-90c-34 0 -55 19 -55 52v4c-28 -44 -83 -71 -155 -71zM152 143
c0 -36 29 -60 82 -60c66 0 113 36 113 107v27l-118 -10c-52 -4 -77 -31 -77 -64z" />
    <glyph glyph-name="ae" unicode="&#xe6;" horiz-adv-x="1094" 
d="M218 -15c-113 0 -185 59 -185 154c0 90 59 152 178 160l136 8v24c0 52 -26 74 -83 74c-56 0 -82 -15 -89 -56h-118c10 100 79 154 215 154c118 0 188 -60 188 -165v-227c0 -10 5 -15 15 -15h43v-96h-90c-34 0 -55 19 -55 52v4c-28 -44 -83 -71 -155 -71zM152 143
c0 -36 29 -60 82 -60c66 0 113 36 113 107v27l-118 -10c-52 -4 -77 -31 -77 -64zM581 247c0 156 98 256 239 256c148 0 238 -96 238 -249c0 -15 0 -31 -2 -51h-358c6 -74 53 -118 129 -118c51 0 85 22 101 57h122c-30 -95 -105 -157 -224 -157c-148 0 -245 104 -245 262z
M698 295h240v3c0 64 -42 109 -118 109c-72 0 -118 -45 -122 -112z" />
    <glyph glyph-name="aeacute" unicode="&#x1fd;" horiz-adv-x="1094" 
d="M218 -15c-113 0 -185 59 -185 154c0 90 59 152 178 160l136 8v24c0 52 -26 74 -83 74c-56 0 -82 -15 -89 -56h-118c10 100 79 154 215 154c118 0 188 -60 188 -165v-227c0 -10 5 -15 15 -15h43v-96h-90c-34 0 -55 19 -55 52v4c-28 -44 -83 -71 -155 -71zM152 143
c0 -36 29 -60 82 -60c66 0 113 36 113 107v27l-118 -10c-52 -4 -77 -31 -77 -64zM581 247c0 156 98 256 239 256c148 0 238 -96 238 -249c0 -15 0 -31 -2 -51h-358c6 -74 53 -118 129 -118c51 0 85 22 101 57h122c-30 -95 -105 -157 -224 -157c-148 0 -245 104 -245 262z
M698 295h240v3c0 64 -42 109 -118 109c-72 0 -118 -45 -122 -112z" />
    <glyph glyph-name="agrave" unicode="&#xe0;" horiz-adv-x="539" 
d="M218 -15c-113 0 -185 59 -185 154c0 90 59 152 178 160l136 8v24c0 52 -26 74 -83 74c-56 0 -82 -15 -89 -56h-118c10 100 79 154 215 154c118 0 188 -60 188 -165v-227c0 -10 5 -15 15 -15h43v-96h-90c-34 0 -55 19 -55 52v4c-28 -44 -83 -71 -155 -71zM152 143
c0 -36 29 -60 82 -60c66 0 113 36 113 107v27l-118 -10c-52 -4 -77 -31 -77 -64z" />
    <glyph glyph-name="amacron" unicode="&#x101;" horiz-adv-x="539" 
d="M218 -15c-113 0 -185 59 -185 154c0 90 59 152 178 160l136 8v24c0 52 -26 74 -83 74c-56 0 -82 -15 -89 -56h-118c10 100 79 154 215 154c118 0 188 -60 188 -165v-227c0 -10 5 -15 15 -15h43v-96h-90c-34 0 -55 19 -55 52v4c-28 -44 -83 -71 -155 -71zM152 143
c0 -36 29 -60 82 -60c66 0 113 36 113 107v27l-118 -10c-52 -4 -77 -31 -77 -64z" />
    <glyph glyph-name="aogonek" unicode="&#x105;" horiz-adv-x="539" 
d="M218 -15c-113 0 -185 59 -185 154c0 90 59 152 178 160l136 8v24c0 52 -26 74 -83 74c-56 0 -82 -15 -89 -56h-118c10 100 79 154 215 154c118 0 188 -60 188 -165v-227c0 -10 5 -15 15 -15h43v-96h-90c-34 0 -55 19 -55 52v4c-28 -44 -83 -71 -155 -71zM152 143
c0 -36 29 -60 82 -60c66 0 113 36 113 107v27l-118 -10c-52 -4 -77 -31 -77 -64z" />
    <glyph glyph-name="aring" unicode="&#xe5;" horiz-adv-x="539" 
d="M218 -15c-113 0 -185 59 -185 154c0 90 59 152 178 160l136 8v24c0 52 -26 74 -83 74c-56 0 -82 -15 -89 -56h-118c10 100 79 154 215 154c118 0 188 -60 188 -165v-227c0 -10 5 -15 15 -15h43v-96h-90c-34 0 -55 19 -55 52v4c-28 -44 -83 -71 -155 -71zM152 143
c0 -36 29 -60 82 -60c66 0 113 36 113 107v27l-118 -10c-52 -4 -77 -31 -77 -64z" />
    <glyph glyph-name="atilde" unicode="&#xe3;" horiz-adv-x="539" 
d="M218 -15c-113 0 -185 59 -185 154c0 90 59 152 178 160l136 8v24c0 52 -26 74 -83 74c-56 0 -82 -15 -89 -56h-118c10 100 79 154 215 154c118 0 188 -60 188 -165v-227c0 -10 5 -15 15 -15h43v-96h-90c-34 0 -55 19 -55 52v4c-28 -44 -83 -71 -155 -71zM152 143
c0 -36 29 -60 82 -60c66 0 113 36 113 107v27l-118 -10c-52 -4 -77 -31 -77 -64z" />
    <glyph glyph-name="cacute" unicode="&#x107;" horiz-adv-x="542" 
d="M284 -15c-149 0 -242 110 -242 257c0 153 99 261 248 261c126 0 214 -74 224 -181h-121c-9 39 -44 73 -104 73c-76 0 -124 -59 -124 -151c0 -94 49 -151 123 -151c57 0 97 34 107 83h121c-13 -100 -95 -191 -232 -191z" />
    <glyph glyph-name="ccaron" unicode="&#x10d;" horiz-adv-x="542" 
d="M284 -15c-149 0 -242 110 -242 257c0 153 99 261 248 261c126 0 214 -74 224 -181h-121c-9 39 -44 73 -104 73c-76 0 -124 -59 -124 -151c0 -94 49 -151 123 -151c57 0 97 34 107 83h121c-13 -100 -95 -191 -232 -191z" />
    <glyph glyph-name="ccedilla" unicode="&#xe7;" horiz-adv-x="542" 
d="M284 -15c-149 0 -242 110 -242 257c0 153 99 261 248 261c126 0 214 -74 224 -181h-121c-9 39 -44 73 -104 73c-76 0 -124 -59 -124 -151c0 -94 49 -151 123 -151c57 0 97 34 107 83h121c-13 -100 -95 -191 -232 -191z" />
    <glyph glyph-name="ccircumflex" unicode="&#x109;" horiz-adv-x="542" 
d="M284 -15c-149 0 -242 110 -242 257c0 153 99 261 248 261c126 0 214 -74 224 -181h-121c-9 39 -44 73 -104 73c-76 0 -124 -59 -124 -151c0 -94 49 -151 123 -151c57 0 97 34 107 83h121c-13 -100 -95 -191 -232 -191z" />
    <glyph glyph-name="cdotaccent" unicode="&#x10b;" horiz-adv-x="542" 
d="M284 -15c-149 0 -242 110 -242 257c0 153 99 261 248 261c126 0 214 -74 224 -181h-121c-9 39 -44 73 -104 73c-76 0 -124 -59 -124 -151c0 -94 49 -151 123 -151c57 0 97 34 107 83h121c-13 -100 -95 -191 -232 -191z" />
    <glyph glyph-name="dcaron" unicode="&#x10f;" horiz-adv-x="614" 
d="M276 -15c-140 0 -234 104 -234 259s94 259 234 259c62 0 116 -23 146 -63v260h119v-700h-105v58c-31 -46 -91 -73 -160 -73zM165 244c0 -90 52 -151 130 -151c77 0 129 61 129 151s-52 151 -129 151c-78 0 -130 -61 -130 -151z" />
    <glyph glyph-name="dcroat" unicode="&#x111;" horiz-adv-x="614" 
d="M276 -15c-140 0 -234 104 -234 259s94 259 234 259c62 0 116 -23 146 -63v260h119v-700h-105v58c-31 -46 -91 -73 -160 -73zM165 244c0 -90 52 -151 130 -151c77 0 129 61 129 151s-52 151 -129 151c-78 0 -130 -61 -130 -151z" />
    <glyph glyph-name="eacute" unicode="&#xe9;" horiz-adv-x="555" 
d="M287 -15c-148 0 -245 104 -245 262c0 156 98 256 239 256c148 0 238 -96 238 -249c0 -15 0 -31 -2 -51h-358c6 -74 53 -118 129 -118c51 0 85 22 101 57h122c-30 -95 -105 -157 -224 -157zM159 295h240v3c0 64 -42 109 -118 109c-72 0 -118 -45 -122 -112z" />
    <glyph glyph-name="ebreve" unicode="&#x115;" horiz-adv-x="555" 
d="M287 -15c-148 0 -245 104 -245 262c0 156 98 256 239 256c148 0 238 -96 238 -249c0 -15 0 -31 -2 -51h-358c6 -74 53 -118 129 -118c51 0 85 22 101 57h122c-30 -95 -105 -157 -224 -157zM159 295h240v3c0 64 -42 109 -118 109c-72 0 -118 -45 -122 -112z" />
    <glyph glyph-name="ecaron" unicode="&#x11b;" horiz-adv-x="555" 
d="M287 -15c-148 0 -245 104 -245 262c0 156 98 256 239 256c148 0 238 -96 238 -249c0 -15 0 -31 -2 -51h-358c6 -74 53 -118 129 -118c51 0 85 22 101 57h122c-30 -95 -105 -157 -224 -157zM159 295h240v3c0 64 -42 109 -118 109c-72 0 -118 -45 -122 -112z" />
    <glyph glyph-name="ecircumflex" unicode="&#xea;" horiz-adv-x="555" 
d="M287 -15c-148 0 -245 104 -245 262c0 156 98 256 239 256c148 0 238 -96 238 -249c0 -15 0 -31 -2 -51h-358c6 -74 53 -118 129 -118c51 0 85 22 101 57h122c-30 -95 -105 -157 -224 -157zM159 295h240v3c0 64 -42 109 -118 109c-72 0 -118 -45 -122 -112z" />
    <glyph glyph-name="edieresis" unicode="&#xeb;" horiz-adv-x="555" 
d="M287 -15c-148 0 -245 104 -245 262c0 156 98 256 239 256c148 0 238 -96 238 -249c0 -15 0 -31 -2 -51h-358c6 -74 53 -118 129 -118c51 0 85 22 101 57h122c-30 -95 -105 -157 -224 -157zM159 295h240v3c0 64 -42 109 -118 109c-72 0 -118 -45 -122 -112z" />
    <glyph glyph-name="edotaccent" unicode="&#x117;" horiz-adv-x="555" 
d="M287 -15c-148 0 -245 104 -245 262c0 156 98 256 239 256c148 0 238 -96 238 -249c0 -15 0 -31 -2 -51h-358c6 -74 53 -118 129 -118c51 0 85 22 101 57h122c-30 -95 -105 -157 -224 -157zM159 295h240v3c0 64 -42 109 -118 109c-72 0 -118 -45 -122 -112z" />
    <glyph glyph-name="egrave" unicode="&#xe8;" horiz-adv-x="555" 
d="M287 -15c-148 0 -245 104 -245 262c0 156 98 256 239 256c148 0 238 -96 238 -249c0 -15 0 -31 -2 -51h-358c6 -74 53 -118 129 -118c51 0 85 22 101 57h122c-30 -95 -105 -157 -224 -157zM159 295h240v3c0 64 -42 109 -118 109c-72 0 -118 -45 -122 -112z" />
    <glyph glyph-name="emacron" unicode="&#x113;" horiz-adv-x="555" 
d="M287 -15c-148 0 -245 104 -245 262c0 156 98 256 239 256c148 0 238 -96 238 -249c0 -15 0 -31 -2 -51h-358c6 -74 53 -118 129 -118c51 0 85 22 101 57h122c-30 -95 -105 -157 -224 -157zM159 295h240v3c0 64 -42 109 -118 109c-72 0 -118 -45 -122 -112z" />
    <glyph glyph-name="eogonek" unicode="&#x119;" horiz-adv-x="555" 
d="M287 -15c-148 0 -245 104 -245 262c0 156 98 256 239 256c148 0 238 -96 238 -249c0 -15 0 -31 -2 -51h-358c6 -74 53 -118 129 -118c51 0 85 22 101 57h122c-30 -95 -105 -157 -224 -157zM159 295h240v3c0 64 -42 109 -118 109c-72 0 -118 -45 -122 -112z" />
    <glyph glyph-name="gbreve" unicode="&#x11f;" horiz-adv-x="569" 
d="M179 -180c-110 0 -157 55 -157 123c0 41 21 78 62 99c-27 19 -43 48 -43 79c0 40 23 78 80 94c-42 31 -61 76 -61 121c0 94 72 167 198 167c78 0 143 -39 165 -91v15c0 49 30 61 62 61h72v-105h-81c-12 0 -19 -5 -19 -19v-38c0 -102 -81 -167 -192 -167h-80
c-25 0 -41 -11 -41 -33c0 -21 18 -33 41 -33h171c100 0 158 -48 158 -129c0 -82 -47 -144 -162 -144h-173zM135 -45c0 -26 18 -46 60 -46h149c31 0 57 16 57 50c0 28 -22 44 -54 44h-150c-43 0 -62 -21 -62 -48zM173 331c0 -48 32 -80 85 -80c54 0 86 32 86 80
s-33 80 -85 80c-54 0 -86 -32 -86 -80z" />
    <glyph glyph-name="gcircumflex" unicode="&#x11d;" horiz-adv-x="569" 
d="M179 -180c-110 0 -157 55 -157 123c0 41 21 78 62 99c-27 19 -43 48 -43 79c0 40 23 78 80 94c-42 31 -61 76 -61 121c0 94 72 167 198 167c78 0 143 -39 165 -91v15c0 49 30 61 62 61h72v-105h-81c-12 0 -19 -5 -19 -19v-38c0 -102 -81 -167 -192 -167h-80
c-25 0 -41 -11 -41 -33c0 -21 18 -33 41 -33h171c100 0 158 -48 158 -129c0 -82 -47 -144 -162 -144h-173zM135 -45c0 -26 18 -46 60 -46h149c31 0 57 16 57 50c0 28 -22 44 -54 44h-150c-43 0 -62 -21 -62 -48zM173 331c0 -48 32 -80 85 -80c54 0 86 32 86 80
s-33 80 -85 80c-54 0 -86 -32 -86 -80z" />
    <glyph glyph-name="uni0123" unicode="&#x123;" horiz-adv-x="569" 
d="M179 -180c-110 0 -157 55 -157 123c0 41 21 78 62 99c-27 19 -43 48 -43 79c0 40 23 78 80 94c-42 31 -61 76 -61 121c0 94 72 167 198 167c78 0 143 -39 165 -91v15c0 49 30 61 62 61h72v-105h-81c-12 0 -19 -5 -19 -19v-38c0 -102 -81 -167 -192 -167h-80
c-25 0 -41 -11 -41 -33c0 -21 18 -33 41 -33h171c100 0 158 -48 158 -129c0 -82 -47 -144 -162 -144h-173zM135 -45c0 -26 18 -46 60 -46h149c31 0 57 16 57 50c0 28 -22 44 -54 44h-150c-43 0 -62 -21 -62 -48zM173 331c0 -48 32 -80 85 -80c54 0 86 32 86 80
s-33 80 -85 80c-54 0 -86 -32 -86 -80z" />
    <glyph glyph-name="gdotaccent" unicode="&#x121;" horiz-adv-x="569" 
d="M179 -180c-110 0 -157 55 -157 123c0 41 21 78 62 99c-27 19 -43 48 -43 79c0 40 23 78 80 94c-42 31 -61 76 -61 121c0 94 72 167 198 167c78 0 143 -39 165 -91v15c0 49 30 61 62 61h72v-105h-81c-12 0 -19 -5 -19 -19v-38c0 -102 -81 -167 -192 -167h-80
c-25 0 -41 -11 -41 -33c0 -21 18 -33 41 -33h171c100 0 158 -48 158 -129c0 -82 -47 -144 -162 -144h-173zM135 -45c0 -26 18 -46 60 -46h149c31 0 57 16 57 50c0 28 -22 44 -54 44h-150c-43 0 -62 -21 -62 -48zM173 331c0 -48 32 -80 85 -80c54 0 86 32 86 80
s-33 80 -85 80c-54 0 -86 -32 -86 -80z" />
    <glyph glyph-name="hbar" unicode="&#x127;" horiz-adv-x="582" 
d="M73 0v700h119v-250c31 35 78 53 132 53c120 0 194 -76 194 -208v-295h-119v283c0 76 -36 112 -99 112c-65 0 -108 -46 -108 -116v-279h-119z" />
    <glyph glyph-name="hcircumflex" unicode="&#x125;" horiz-adv-x="582" 
d="M73 0v700h119v-250c31 35 78 53 132 53c120 0 194 -76 194 -208v-295h-119v283c0 76 -36 112 -99 112c-65 0 -108 -46 -108 -116v-279h-119z" />
    <glyph glyph-name="iacute" unicode="&#xed;" horiz-adv-x="266" 
d="M73 0v488h119v-488h-119zM69 573v122h128v-122h-128z" />
    <glyph glyph-name="ibreve" unicode="&#x12d;" horiz-adv-x="266" 
d="M73 0v488h119v-488h-119zM69 573v122h128v-122h-128z" />
    <glyph glyph-name="icircumflex" unicode="&#xee;" horiz-adv-x="266" 
d="M73 0v488h119v-488h-119zM69 573v122h128v-122h-128z" />
    <glyph glyph-name="idieresis" unicode="&#xef;" horiz-adv-x="266" 
d="M73 0v488h119v-488h-119zM69 573v122h128v-122h-128z" />
    <glyph glyph-name="dotlessi" unicode="&#x131;" horiz-adv-x="266" 
d="M73 0v488h119v-488h-119zM69 573v122h128v-122h-128z" />
    <glyph glyph-name="igrave" unicode="&#xec;" horiz-adv-x="266" 
d="M73 0v488h119v-488h-119zM69 573v122h128v-122h-128z" />
    <glyph glyph-name="ij" unicode="&#x133;" horiz-adv-x="535" 
d="M73 0v488h119v-488h-119zM69 573v122h128v-122h-128zM242 -180v107h68c25 0 33 11 33 43v518h119v-533c0 -94 -54 -135 -139 -135h-81zM338 573v122h128v-122h-128z" />
    <glyph glyph-name="imacron" unicode="&#x12b;" horiz-adv-x="266" 
d="M73 0v488h119v-488h-119zM69 573v122h128v-122h-128z" />
    <glyph glyph-name="iogonek" unicode="&#x12f;" horiz-adv-x="266" 
d="M73 0v488h119v-488h-119zM69 573v122h128v-122h-128z" />
    <glyph glyph-name="itilde" unicode="&#x129;" horiz-adv-x="266" 
d="M73 0v488h119v-488h-119zM69 573v122h128v-122h-128z" />
    <glyph glyph-name="jcircumflex" unicode="&#x135;" horiz-adv-x="273" 
d="M-20 -180v107h68c25 0 33 11 33 43v518h119v-533c0 -94 -54 -135 -139 -135h-81zM76 573v122h128v-122h-128z" />
    <glyph glyph-name="uni0237" unicode="&#x237;" horiz-adv-x="273" 
d="M-20 -180v107h68c25 0 33 11 33 43v518h119v-533c0 -94 -54 -135 -139 -135h-81zM76 573v122h128v-122h-128z" />
    <glyph glyph-name="uni0137" unicode="&#x137;" horiz-adv-x="544" 
d="M387 0l-147 209h-48v-209h-119v700h119v-382h48l145 170h146l-187 -221l187 -267h-144z" />
    <glyph glyph-name="kgreenlandic" unicode="&#x138;" horiz-adv-x="544" 
d="M387 0l-147 209h-48v-209h-119v700h119v-382h48l145 170h146l-187 -221l187 -267h-144z" />
    <glyph glyph-name="lacute" unicode="&#x13a;" horiz-adv-x="304" 
d="M178 0c-73 0 -105 27 -105 97v603h119v-562c0 -23 9 -33 33 -33h57v-105h-104z" />
    <glyph glyph-name="lcaron" unicode="&#x13e;" horiz-adv-x="304" 
d="M178 0c-73 0 -105 27 -105 97v603h119v-562c0 -23 9 -33 33 -33h57v-105h-104z" />
    <glyph glyph-name="uni013C" unicode="&#x13c;" horiz-adv-x="304" 
d="M178 0c-73 0 -105 27 -105 97v603h119v-562c0 -23 9 -33 33 -33h57v-105h-104z" />
    <glyph glyph-name="ldot" unicode="&#x140;" horiz-adv-x="304" 
d="M178 0c-73 0 -105 27 -105 97v603h119v-562c0 -23 9 -33 33 -33h57v-105h-104z" />
    <glyph glyph-name="lslash" unicode="&#x142;" horiz-adv-x="304" 
d="M178 0c-73 0 -105 27 -105 97v603h119v-562c0 -23 9 -33 33 -33h57v-105h-104z" />
    <glyph glyph-name="nacute" unicode="&#x144;" horiz-adv-x="582" 
d="M73 0v488h105v-57c29 48 84 72 146 72c120 0 194 -76 194 -208v-295h-119v283c0 76 -36 112 -99 112c-65 0 -108 -46 -108 -116v-279h-119z" />
    <glyph glyph-name="napostrophe" unicode="&#x149;" horiz-adv-x="582" 
d="M73 0v488h105v-57c29 48 84 72 146 72c120 0 194 -76 194 -208v-295h-119v283c0 76 -36 112 -99 112c-65 0 -108 -46 -108 -116v-279h-119z" />
    <glyph glyph-name="ncaron" unicode="&#x148;" horiz-adv-x="582" 
d="M73 0v488h105v-57c29 48 84 72 146 72c120 0 194 -76 194 -208v-295h-119v283c0 76 -36 112 -99 112c-65 0 -108 -46 -108 -116v-279h-119z" />
    <glyph glyph-name="uni0146" unicode="&#x146;" horiz-adv-x="582" 
d="M73 0v488h105v-57c29 48 84 72 146 72c120 0 194 -76 194 -208v-295h-119v283c0 76 -36 112 -99 112c-65 0 -108 -46 -108 -116v-279h-119z" />
    <glyph glyph-name="ntilde" unicode="&#xf1;" horiz-adv-x="582" 
d="M73 0v488h105v-57c29 48 84 72 146 72c120 0 194 -76 194 -208v-295h-119v283c0 76 -36 112 -99 112c-65 0 -108 -46 -108 -116v-279h-119z" />
    <glyph glyph-name="eng" unicode="&#x14b;" horiz-adv-x="582" 
d="M73 0v488h105v-57c29 48 84 72 146 72c120 0 194 -76 194 -208v-295h-119v283c0 76 -36 112 -99 112c-65 0 -108 -46 -108 -116v-279h-119z" />
    <glyph glyph-name="oacute" unicode="&#xf3;" 
d="M296 -15c-150 0 -254 104 -254 259s104 259 254 259c151 0 255 -104 255 -259s-104 -259 -255 -259zM165 244c0 -90 52 -151 131 -151s132 61 132 151s-53 151 -132 151s-131 -61 -131 -151z" />
    <glyph glyph-name="obreve" unicode="&#x14f;" 
d="M296 -15c-150 0 -254 104 -254 259s104 259 254 259c151 0 255 -104 255 -259s-104 -259 -255 -259zM165 244c0 -90 52 -151 131 -151s132 61 132 151s-53 151 -132 151s-131 -61 -131 -151z" />
    <glyph glyph-name="ocircumflex" unicode="&#xf4;" 
d="M296 -15c-150 0 -254 104 -254 259s104 259 254 259c151 0 255 -104 255 -259s-104 -259 -255 -259zM165 244c0 -90 52 -151 131 -151s132 61 132 151s-53 151 -132 151s-131 -61 -131 -151z" />
    <glyph glyph-name="odieresis" unicode="&#xf6;" 
d="M296 -15c-150 0 -254 104 -254 259s104 259 254 259c151 0 255 -104 255 -259s-104 -259 -255 -259zM165 244c0 -90 52 -151 131 -151s132 61 132 151s-53 151 -132 151s-131 -61 -131 -151z" />
    <glyph glyph-name="oe" unicode="&#x153;" horiz-adv-x="1149" 
d="M296 -15c-150 0 -254 104 -254 259s104 259 254 259c151 0 255 -104 255 -259s-104 -259 -255 -259zM165 244c0 -90 52 -151 131 -151s132 61 132 151s-53 151 -132 151s-131 -61 -131 -151zM636 247c0 156 98 256 239 256c148 0 238 -96 238 -249c0 -15 0 -31 -2 -51
h-358c6 -74 53 -118 129 -118c51 0 85 22 101 57h122c-30 -95 -105 -157 -224 -157c-148 0 -245 104 -245 262zM753 295h240v3c0 64 -42 109 -118 109c-72 0 -118 -45 -122 -112z" />
    <glyph glyph-name="ograve" unicode="&#xf2;" 
d="M296 -15c-150 0 -254 104 -254 259s104 259 254 259c151 0 255 -104 255 -259s-104 -259 -255 -259zM165 244c0 -90 52 -151 131 -151s132 61 132 151s-53 151 -132 151s-131 -61 -131 -151z" />
    <glyph glyph-name="ohungarumlaut" unicode="&#x151;" 
d="M296 -15c-150 0 -254 104 -254 259s104 259 254 259c151 0 255 -104 255 -259s-104 -259 -255 -259zM165 244c0 -90 52 -151 131 -151s132 61 132 151s-53 151 -132 151s-131 -61 -131 -151z" />
    <glyph glyph-name="omacron" unicode="&#x14d;" 
d="M296 -15c-150 0 -254 104 -254 259s104 259 254 259c151 0 255 -104 255 -259s-104 -259 -255 -259zM165 244c0 -90 52 -151 131 -151s132 61 132 151s-53 151 -132 151s-131 -61 -131 -151z" />
    <glyph glyph-name="oslash" unicode="&#xf8;" 
d="M296 -15c-150 0 -254 104 -254 259s104 259 254 259c151 0 255 -104 255 -259s-104 -259 -255 -259zM165 244c0 -90 52 -151 131 -151s132 61 132 151s-53 151 -132 151s-131 -61 -131 -151z" />
    <glyph glyph-name="oslashacute" unicode="&#x1ff;" 
d="M296 -15c-150 0 -254 104 -254 259s104 259 254 259c151 0 255 -104 255 -259s-104 -259 -255 -259zM165 244c0 -90 52 -151 131 -151s132 61 132 151s-53 151 -132 151s-131 -61 -131 -151z" />
    <glyph glyph-name="otilde" unicode="&#xf5;" 
d="M296 -15c-150 0 -254 104 -254 259s104 259 254 259c151 0 255 -104 255 -259s-104 -259 -255 -259zM165 244c0 -90 52 -151 131 -151s132 61 132 151s-53 151 -132 151s-131 -61 -131 -151z" />
    <glyph glyph-name="racute" unicode="&#x155;" horiz-adv-x="394" 
d="M73 0v488h105v-85c12 54 50 85 111 85h90v-105h-103c-58 0 -84 -30 -84 -91v-292h-119z" />
    <glyph glyph-name="rcaron" unicode="&#x159;" horiz-adv-x="394" 
d="M73 0v488h105v-85c12 54 50 85 111 85h90v-105h-103c-58 0 -84 -30 -84 -91v-292h-119z" />
    <glyph glyph-name="uni0157" unicode="&#x157;" horiz-adv-x="394" 
d="M73 0v488h105v-85c12 54 50 85 111 85h90v-105h-103c-58 0 -84 -30 -84 -91v-292h-119z" />
    <glyph glyph-name="sacute" unicode="&#x15b;" horiz-adv-x="495" 
d="M248 -15c-133 0 -213 54 -218 157h123c4 -41 39 -61 99 -61c54 0 87 23 87 59c0 31 -24 47 -67 51l-78 8c-91 10 -148 64 -148 147c0 97 78 157 202 157c123 0 201 -52 207 -154h-119c-2 39 -36 57 -90 57c-51 0 -83 -20 -83 -54c0 -29 23 -45 72 -51l79 -9
c92 -11 145 -65 145 -146c0 -98 -81 -161 -211 -161z" />
    <glyph glyph-name="scaron" unicode="&#x161;" horiz-adv-x="495" 
d="M248 -15c-133 0 -213 54 -218 157h123c4 -41 39 -61 99 -61c54 0 87 23 87 59c0 31 -24 47 -67 51l-78 8c-91 10 -148 64 -148 147c0 97 78 157 202 157c123 0 201 -52 207 -154h-119c-2 39 -36 57 -90 57c-51 0 -83 -20 -83 -54c0 -29 23 -45 72 -51l79 -9
c92 -11 145 -65 145 -146c0 -98 -81 -161 -211 -161z" />
    <glyph glyph-name="scedilla" unicode="&#x15f;" horiz-adv-x="495" 
d="M248 -15c-133 0 -213 54 -218 157h123c4 -41 39 -61 99 -61c54 0 87 23 87 59c0 31 -24 47 -67 51l-78 8c-91 10 -148 64 -148 147c0 97 78 157 202 157c123 0 201 -52 207 -154h-119c-2 39 -36 57 -90 57c-51 0 -83 -20 -83 -54c0 -29 23 -45 72 -51l79 -9
c92 -11 145 -65 145 -146c0 -98 -81 -161 -211 -161z" />
    <glyph glyph-name="scircumflex" unicode="&#x15d;" horiz-adv-x="495" 
d="M248 -15c-133 0 -213 54 -218 157h123c4 -41 39 -61 99 -61c54 0 87 23 87 59c0 31 -24 47 -67 51l-78 8c-91 10 -148 64 -148 147c0 97 78 157 202 157c123 0 201 -52 207 -154h-119c-2 39 -36 57 -90 57c-51 0 -83 -20 -83 -54c0 -29 23 -45 72 -51l79 -9
c92 -11 145 -65 145 -146c0 -98 -81 -161 -211 -161z" />
    <glyph glyph-name="uni0219" unicode="&#x219;" horiz-adv-x="495" 
d="M248 -15c-133 0 -213 54 -218 157h123c4 -41 39 -61 99 -61c54 0 87 23 87 59c0 31 -24 47 -67 51l-78 8c-91 10 -148 64 -148 147c0 97 78 157 202 157c123 0 201 -52 207 -154h-119c-2 39 -36 57 -90 57c-51 0 -83 -20 -83 -54c0 -29 23 -45 72 -51l79 -9
c92 -11 145 -65 145 -146c0 -98 -81 -161 -211 -161z" />
    <glyph glyph-name="tbar" unicode="&#x167;" horiz-adv-x="426" 
d="M257 0c-86 0 -125 35 -125 124v259h-125v105h125v143h119v-143h149v-105h-149v-232c0 -32 12 -46 46 -46h103v-105h-143z" />
    <glyph glyph-name="tcaron" unicode="&#x165;" horiz-adv-x="426" 
d="M257 0c-86 0 -125 35 -125 124v259h-125v105h125v143h119v-143h149v-105h-149v-232c0 -32 12 -46 46 -46h103v-105h-143z" />
    <glyph glyph-name="uni0163" unicode="&#x163;" horiz-adv-x="426" 
d="M257 0c-86 0 -125 35 -125 124v259h-125v105h125v143h119v-143h149v-105h-149v-232c0 -32 12 -46 46 -46h103v-105h-143z" />
    <glyph glyph-name="uni021B" unicode="&#x21b;" horiz-adv-x="426" 
d="M257 0c-86 0 -125 35 -125 124v259h-125v105h125v143h119v-143h149v-105h-149v-232c0 -32 12 -46 46 -46h103v-105h-143z" />
    <glyph glyph-name="thorn" unicode="&#xfe;" horiz-adv-x="614" 
d="M73 -180v668h105v-58c31 46 91 73 161 73c139 0 234 -104 234 -259s-95 -259 -234 -259c-63 0 -117 23 -147 63v-228h-119zM190 244c0 -90 52 -151 130 -151c77 0 130 61 130 151s-53 151 -130 151c-78 0 -130 -61 -130 -151z" />
    <glyph glyph-name="uacute" unicode="&#xfa;" horiz-adv-x="567" 
d="M253 -15c-119 0 -192 76 -192 208v295h119v-283c0 -76 34 -112 96 -112c64 0 105 45 105 116v279h119v-488h-105v47c-32 -41 -85 -62 -142 -62z" />
    <glyph glyph-name="ubreve" unicode="&#x16d;" horiz-adv-x="567" 
d="M253 -15c-119 0 -192 76 -192 208v295h119v-283c0 -76 34 -112 96 -112c64 0 105 45 105 116v279h119v-488h-105v47c-32 -41 -85 -62 -142 -62z" />
    <glyph glyph-name="ucircumflex" unicode="&#xfb;" horiz-adv-x="567" 
d="M253 -15c-119 0 -192 76 -192 208v295h119v-283c0 -76 34 -112 96 -112c64 0 105 45 105 116v279h119v-488h-105v47c-32 -41 -85 -62 -142 -62z" />
    <glyph glyph-name="udieresis" unicode="&#xfc;" horiz-adv-x="567" 
d="M253 -15c-119 0 -192 76 -192 208v295h119v-283c0 -76 34 -112 96 -112c64 0 105 45 105 116v279h119v-488h-105v47c-32 -41 -85 -62 -142 -62z" />
    <glyph glyph-name="ugrave" unicode="&#xf9;" horiz-adv-x="567" 
d="M253 -15c-119 0 -192 76 -192 208v295h119v-283c0 -76 34 -112 96 -112c64 0 105 45 105 116v279h119v-488h-105v47c-32 -41 -85 -62 -142 -62z" />
    <glyph glyph-name="uhungarumlaut" unicode="&#x171;" horiz-adv-x="567" 
d="M253 -15c-119 0 -192 76 -192 208v295h119v-283c0 -76 34 -112 96 -112c64 0 105 45 105 116v279h119v-488h-105v47c-32 -41 -85 -62 -142 -62z" />
    <glyph glyph-name="umacron" unicode="&#x16b;" horiz-adv-x="567" 
d="M253 -15c-119 0 -192 76 -192 208v295h119v-283c0 -76 34 -112 96 -112c64 0 105 45 105 116v279h119v-488h-105v47c-32 -41 -85 -62 -142 -62z" />
    <glyph glyph-name="uogonek" unicode="&#x173;" horiz-adv-x="567" 
d="M253 -15c-119 0 -192 76 -192 208v295h119v-283c0 -76 34 -112 96 -112c64 0 105 45 105 116v279h119v-488h-105v47c-32 -41 -85 -62 -142 -62z" />
    <glyph glyph-name="uring" unicode="&#x16f;" horiz-adv-x="567" 
d="M253 -15c-119 0 -192 76 -192 208v295h119v-283c0 -76 34 -112 96 -112c64 0 105 45 105 116v279h119v-488h-105v47c-32 -41 -85 -62 -142 -62z" />
    <glyph glyph-name="utilde" unicode="&#x169;" horiz-adv-x="567" 
d="M253 -15c-119 0 -192 76 -192 208v295h119v-283c0 -76 34 -112 96 -112c64 0 105 45 105 116v279h119v-488h-105v47c-32 -41 -85 -62 -142 -62z" />
    <glyph glyph-name="wacute" unicode="&#x1e83;" horiz-adv-x="799" 
d="M163 0l-146 488h124l95 -355l95 355h137l95 -355l95 355h124l-146 -488h-141l-95 354l-96 -354h-141z" />
    <glyph glyph-name="wcircumflex" unicode="&#x175;" horiz-adv-x="799" 
d="M163 0l-146 488h124l95 -355l95 355h137l95 -355l95 355h124l-146 -488h-141l-95 354l-96 -354h-141z" />
    <glyph glyph-name="wdieresis" unicode="&#x1e85;" horiz-adv-x="799" 
d="M163 0l-146 488h124l95 -355l95 355h137l95 -355l95 355h124l-146 -488h-141l-95 354l-96 -354h-141z" />
    <glyph glyph-name="wgrave" unicode="&#x1e81;" horiz-adv-x="799" 
d="M163 0l-146 488h124l95 -355l95 355h137l95 -355l95 355h124l-146 -488h-141l-95 354l-96 -354h-141z" />
    <glyph glyph-name="yacute" unicode="&#xfd;" horiz-adv-x="546" 
d="M27 -180v106h95c29 0 44 10 54 33l35 78l-201 451h136l129 -315l128 315h133l-264 -592c-22 -50 -51 -76 -121 -76h-124z" />
    <glyph glyph-name="ycircumflex" unicode="&#x177;" horiz-adv-x="546" 
d="M27 -180v106h95c29 0 44 10 54 33l35 78l-201 451h136l129 -315l128 315h133l-264 -592c-22 -50 -51 -76 -121 -76h-124z" />
    <glyph glyph-name="ydieresis" unicode="&#xff;" horiz-adv-x="546" 
d="M27 -180v106h95c29 0 44 10 54 33l35 78l-201 451h136l129 -315l128 315h133l-264 -592c-22 -50 -51 -76 -121 -76h-124z" />
    <glyph glyph-name="ygrave" unicode="&#x1ef3;" horiz-adv-x="546" 
d="M27 -180v106h95c29 0 44 10 54 33l35 78l-201 451h136l129 -315l128 315h133l-264 -592c-22 -50 -51 -76 -121 -76h-124z" />
    <glyph glyph-name="zacute" unicode="&#x17a;" horiz-adv-x="514" 
d="M44 0v105l262 278h-257v105h414v-105l-262 -278h272v-105h-429z" />
    <glyph glyph-name="zcaron" unicode="&#x17e;" horiz-adv-x="514" 
d="M44 0v105l262 278h-257v105h414v-105l-262 -278h272v-105h-429z" />
    <glyph glyph-name="zdotaccent" unicode="&#x17c;" horiz-adv-x="514" 
d="M44 0v105l262 278h-257v105h414v-105l-262 -278h272v-105h-429z" />
    <glyph glyph-name="ordfeminine" unicode="&#xaa;" horiz-adv-x="539" 
d="M218 -15c-113 0 -185 59 -185 154c0 90 59 152 178 160l136 8v24c0 52 -26 74 -83 74c-56 0 -82 -15 -89 -56h-118c10 100 79 154 215 154c118 0 188 -60 188 -165v-227c0 -10 5 -15 15 -15h43v-96h-90c-34 0 -55 19 -55 52v4c-28 -44 -83 -71 -155 -71zM152 143
c0 -36 29 -60 82 -60c66 0 113 36 113 107v27l-118 -10c-52 -4 -77 -31 -77 -64z" />
    <glyph glyph-name="ordmasculine" unicode="&#xba;" 
d="M296 -15c-150 0 -254 104 -254 259s104 259 254 259c151 0 255 -104 255 -259s-104 -259 -255 -259zM165 244c0 -90 52 -151 131 -151s132 61 132 151s-53 151 -132 151s-131 -61 -131 -151z" />
    <glyph glyph-name="comma" unicode="," horiz-adv-x="285" 
d="M72 -137v72h56c11 0 14 3 14 10v55h-70v152h141v-209c0 -56 -28 -80 -74 -80h-67z" />
    <glyph glyph-name="period" unicode="." horiz-adv-x="285" 
d="M72 0v152h141v-152h-141z" />
    <glyph glyph-name="hyphen" unicode="-" horiz-adv-x="417" 
d="M52 206v113h313v-113h-313z" />
    <glyph glyph-name="zero" unicode="0" horiz-adv-x="672" 
d="M336 -15c-193 0 -288 128 -288 365s95 365 288 365s288 -128 288 -365s-95 -365 -288 -365zM172 350c0 -174 51 -259 164 -259s164 85 164 259s-51 259 -164 259s-164 -85 -164 -259z" />
    <glyph glyph-name="one" unicode="1" horiz-adv-x="527" 
d="M32 0v112h178v473h-122v115h242v-588h171v-112h-469z" />
    <glyph glyph-name="two" unicode="2" horiz-adv-x="576" 
d="M40 134c0 131 65 190 173 221l99 28c71 20 103 51 103 105c0 60 -43 100 -111 100h-230v112h230c138 0 235 -81 235 -211c0 -103 -72 -173 -168 -201l-124 -37c-59 -18 -83 -46 -83 -97v-42h367v-112h-491v134z" />
    <glyph glyph-name="three" unicode="3" horiz-adv-x="574" 
d="M39 0v112h226c90 0 140 40 140 106c0 62 -49 101 -137 101h-109v98l182 171h-312v112h472v-112l-194 -174c136 0 222 -79 222 -195c0 -132 -108 -219 -264 -219h-226z" />
    <glyph glyph-name="four" unicode="4" horiz-adv-x="634" 
d="M391 0v198h-365v109l320 393h165v-393h109v-109h-109v-198h-120zM157 307h234v290z" />
    <glyph glyph-name="five" unicode="5" horiz-adv-x="563" 
d="M47 0v112h224c76 0 128 44 128 111c0 65 -46 111 -128 111h-207v366h429v-112h-310v-146h103c141 0 236 -87 236 -215c0 -134 -100 -227 -251 -227h-224z" />
    <glyph glyph-name="six" unicode="6" horiz-adv-x="616" 
d="M322 -15c-157 0 -274 109 -274 329c0 232 93 386 336 386h141v-112h-141c-152 0 -206 -69 -214 -198c31 39 88 69 170 69c144 0 243 -97 243 -233c0 -138 -106 -241 -261 -241zM179 222c0 -76 58 -129 140 -129s140 52 140 128c0 77 -58 130 -140 130s-140 -53 -140 -129
z" />
    <glyph glyph-name="seven" unicode="7" horiz-adv-x="577" 
d="M185 149c0 156 18 260 138 374l67 65h-352v112h515v-112l-125 -115c-87 -81 -119 -154 -119 -317v-156h-124v149z" />
    <glyph glyph-name="eight" unicode="8" horiz-adv-x="638" 
d="M319 -15c-173 0 -273 87 -273 217c0 79 49 145 119 170c-64 25 -99 85 -99 150c0 115 100 193 253 193s253 -78 253 -193c0 -65 -35 -125 -99 -150c70 -25 119 -91 119 -170c0 -130 -100 -217 -273 -217zM169 206c0 -69 54 -118 150 -118s150 49 150 118
s-55 114 -150 114s-150 -45 -150 -114zM189 515c0 -57 50 -95 130 -95s130 38 130 95c0 58 -48 97 -130 97s-130 -39 -130 -97z" />
    <glyph glyph-name="nine" unicode="9" horiz-adv-x="616" 
d="M294 715c157 0 274 -109 274 -329c0 -232 -93 -386 -336 -386h-141v112h141c152 0 206 69 214 198c-31 -39 -88 -69 -170 -69c-144 0 -243 97 -243 233c0 138 106 241 261 241zM157 479c0 -77 58 -130 140 -130s140 53 140 129s-58 129 -140 129s-140 -52 -140 -128z" />
    </font>
</defs>
</svg>
