<?xml version="1.0" standalone="no"?>
<!DOCTYPE svg PUBLIC "-//W3C//DTD SVG 1.1//EN" "http://www.w3.org/Graphics/SVG/1.1/DTD/svg11.dtd" >
<svg xmlns="http://www.w3.org/2000/svg" xmlns:xlink="http://www.w3.org/1999/xlink" version="1.1">
<metadata>
Created by FontForge 20170924 at Mon Apr 11 10:03:55 2022
 By www-data
Copyright \(c\) 2019 by Dominik Huber. All rights reserved.
</metadata>
<defs>
<font id="GTPlanarTrial-Rg" horiz-adv-x="576" >
  <font-face 
    font-family="GT Planar Trial Rg"
    font-weight="400"
    font-stretch="normal"
    units-per-em="1000"
    panose-1="0 0 0 0 0 0 0 0 0 0"
    ascent="806"
    descent="-194"
    x-height="481"
    cap-height="700"
    bbox="-17 -180 1267 714"
    underline-thickness="50"
    underline-position="-125"
    stemh="91"
    stemv="99"
    unicode-range="U+0020-1EF3"
  />
<missing-glyph horiz-adv-x="550" 
d="M422 342v158h-30v-158h30zM50 0v700h450v-700h-450zM71 420c0 -46 25 -81 67 -81c18 0 35 6 43 20l4 -17h23v87h-67v-28h40v-2c0 -13 -9 -33 -36 -33s-41 20 -41 53c0 32 14 55 40 55c20 0 28 -13 31 -23l30 12c-7 19 -23 39 -60 39c-48 0 -74 -35 -74 -82zM89 278h44
v-127h30v127h44v29h-118v-29zM198 151h30v49c0 18 7 35 28 35c4 0 6 0 10 -1v28c-3 1 -5 1 -10 1c-14 0 -25 -10 -30 -21v18h-28v-109zM226 342h29v50c0 18 8 35 30 35c5 0 7 0 10 -1v27c-3 1 -6 2 -11 2c-15 0 -25 -11 -31 -21v18h-27v-110zM272 279h32v30h-32v-30z
M273 151h30v109h-30v-109zM301 471h32v29h-32v-29zM302 342h30v110h-30v-110zM311 182c0 -21 16 -34 38 -34c16 0 28 6 35 19c0 -6 0 -11 1 -16h29c-1 5 -3 11 -3 21v40c0 34 -10 51 -46 51c-33 0 -50 -14 -51 -37h29c1 10 8 15 21 15c15 0 18 -9 18 -22
c-24 -2 -40 -5 -50 -8c-12 -5 -21 -14 -21 -29zM341 183c0 9 7 14 23 16l18 2v-3c0 -18 -10 -28 -24 -28c-11 0 -17 6 -17 13zM347 342h29v158h-29v-158zM427 151h29v158h-29v-158zM438 471h32v29h-32v-29zM439 342h30v110h-30v-110z" />
    <glyph glyph-name=".notdef" horiz-adv-x="550" 
d="M422 342v158h-30v-158h30zM50 0v700h450v-700h-450zM71 420c0 -46 25 -81 67 -81c18 0 35 6 43 20l4 -17h23v87h-67v-28h40v-2c0 -13 -9 -33 -36 -33s-41 20 -41 53c0 32 14 55 40 55c20 0 28 -13 31 -23l30 12c-7 19 -23 39 -60 39c-48 0 -74 -35 -74 -82zM89 278h44
v-127h30v127h44v29h-118v-29zM198 151h30v49c0 18 7 35 28 35c4 0 6 0 10 -1v28c-3 1 -5 1 -10 1c-14 0 -25 -10 -30 -21v18h-28v-109zM226 342h29v50c0 18 8 35 30 35c5 0 7 0 10 -1v27c-3 1 -6 2 -11 2c-15 0 -25 -11 -31 -21v18h-27v-110zM272 279h32v30h-32v-30z
M273 151h30v109h-30v-109zM301 471h32v29h-32v-29zM302 342h30v110h-30v-110zM311 182c0 -21 16 -34 38 -34c16 0 28 6 35 19c0 -6 0 -11 1 -16h29c-1 5 -3 11 -3 21v40c0 34 -10 51 -46 51c-33 0 -50 -14 -51 -37h29c1 10 8 15 21 15c15 0 18 -9 18 -22
c-24 -2 -40 -5 -50 -8c-12 -5 -21 -14 -21 -29zM341 183c0 9 7 14 23 16l18 2v-3c0 -18 -10 -28 -24 -28c-11 0 -17 6 -17 13zM347 342h29v158h-29v-158zM427 151h29v158h-29v-158zM438 471h32v29h-32v-29zM439 342h30v110h-30v-110z" />
    <glyph glyph-name=".null" horiz-adv-x="0" 
 />
    <glyph glyph-name="space" unicode=" " horiz-adv-x="255" 
 />
    <glyph glyph-name="space" unicode="&#xa0;" horiz-adv-x="255" 
 />
    <glyph glyph-name="A" unicode="A" horiz-adv-x="704" 
d="M18 0l267 700h135l267 -700h-110l-75 204h-300l-75 -204h-109zM235 295h234l-117 318z" />
    <glyph glyph-name="B" unicode="B" horiz-adv-x="674" 
d="M90 0v700h294c127 0 207 -67 207 -173c0 -69 -38 -128 -95 -156c69 -25 115 -86 115 -169c0 -119 -79 -202 -214 -202h-307zM190 92h193c80 0 126 44 126 118s-44 115 -126 115h-193v-233zM190 411h180c76 0 119 37 119 100c0 64 -44 97 -119 97h-180v-197z" />
    <glyph glyph-name="C" unicode="C" horiz-adv-x="693" 
d="M372 -14c-186 0 -314 122 -314 363s123 365 316 365c152 0 256 -88 277 -238h-105c-15 92 -84 145 -172 145c-128 0 -213 -83 -213 -270c0 -185 89 -272 211 -272c97 0 158 65 174 155h104c-24 -145 -120 -248 -278 -248z" />
    <glyph glyph-name="D" unicode="D" horiz-adv-x="717" 
d="M90 0v700h246c198 0 323 -134 323 -350c0 -215 -124 -350 -323 -350h-246zM190 92h151c138 0 215 101 215 258s-77 258 -215 258h-151v-516z" />
    <glyph glyph-name="E" unicode="E" horiz-adv-x="590" 
d="M90 0v700h432v-94h-332v-191h332v-94h-332v-227h332v-94h-432z" />
    <glyph glyph-name="F" unicode="F" horiz-adv-x="557" 
d="M90 0v700h420v-94h-320v-201h320v-94h-320v-311h-100z" />
    <glyph glyph-name="G" unicode="G" horiz-adv-x="725" 
d="M366 -14c-181 0 -308 130 -308 363c0 232 123 365 316 365c157 0 260 -87 280 -228h-104c-17 81 -79 136 -176 136c-132 0 -213 -94 -213 -273c0 -183 85 -271 218 -271c101 0 170 60 179 173h-246v91h342v-342h-84v93c-37 -65 -110 -107 -204 -107z" />
    <glyph glyph-name="H" unicode="H" horiz-adv-x="729" 
d="M539 0v321h-349v-321h-100v700h100v-285h349v285h100v-700h-100z" />
    <glyph glyph-name="I" unicode="I" horiz-adv-x="281" 
d="M90 0v700h100v-700h-100z" />
    <glyph glyph-name="J" unicode="J" horiz-adv-x="479" 
d="M20 0v94h164c78 0 114 40 114 132v474h100v-474c0 -159 -64 -226 -214 -226h-164z" />
    <glyph glyph-name="K" unicode="K" horiz-adv-x="663" 
d="M518 0l-243 317h-85v-317h-100v700h100v-281h84l244 281h125l-285 -329l285 -371h-125z" />
    <glyph glyph-name="L" unicode="L" horiz-adv-x="540" 
d="M90 0v700h100v-606h329v-94h-429z" />
    <glyph glyph-name="M" unicode="M" horiz-adv-x="893" 
d="M90 0v700h140l217 -570l216 570h140v-700h-98v562l-214 -562h-89l-214 562v-562h-98z" />
    <glyph glyph-name="N" unicode="N" horiz-adv-x="729" 
d="M90 0v700h122l327 -545v545h100v-700h-122l-327 546v-546h-100z" />
    <glyph glyph-name="O" unicode="O" horiz-adv-x="745" 
d="M373 -14c-187 0 -315 127 -315 364s128 364 315 364c186 0 314 -127 314 -364s-128 -364 -314 -364zM161 350c0 -181 87 -271 212 -271c124 0 211 90 211 271s-87 271 -211 271c-125 0 -212 -90 -212 -271z" />
    <glyph glyph-name="P" unicode="P" horiz-adv-x="650" 
d="M90 0v700h290c146 0 232 -78 232 -206c0 -129 -86 -208 -232 -208h-190v-286h-100zM190 379h186c86 0 134 42 134 115c0 71 -48 112 -134 112h-186v-227z" />
    <glyph glyph-name="Q" unicode="Q" horiz-adv-x="744" 
d="M373 0c-187 0 -315 125 -315 359c0 232 128 355 315 355c186 0 314 -123 314 -350c0 -117 -39 -216 -119 -275h144v-89h-339zM161 359c0 -178 87 -266 212 -266c124 0 211 88 211 266c0 175 -87 262 -211 262c-125 0 -212 -87 -212 -262z" />
    <glyph glyph-name="R" unicode="R" horiz-adv-x="682" 
d="M90 0v700h300c146 0 232 -76 232 -201c0 -120 -78 -195 -211 -202l231 -297h-125l-230 298h-97v-298h-100zM190 389h200c83 0 130 40 130 110c0 68 -47 107 -130 107h-200v-217z" />
    <glyph glyph-name="S" unicode="S" horiz-adv-x="630" 
d="M321 -14c-173 0 -277 87 -278 228h103c1 -85 67 -139 175 -139c96 0 157 50 157 126c0 61 -39 98 -119 109l-92 13c-134 18 -201 84 -201 189c0 123 99 202 250 202c157 0 253 -76 256 -198h-103c-3 68 -61 110 -153 110c-88 0 -146 -42 -146 -108c0 -57 41 -89 127 -101
l87 -12c130 -18 198 -85 198 -198c0 -134 -99 -221 -261 -221z" />
    <glyph glyph-name="T" unicode="T" 
d="M238 0v606h-220v94h540v-94h-220v-606h-100z" />
    <glyph glyph-name="U" unicode="U" horiz-adv-x="695" 
d="M347 -14c-166 0 -266 104 -266 277v437h100v-431c0 -122 61 -189 166 -189s166 67 166 189v431h101v-437c0 -173 -100 -277 -267 -277z" />
    <glyph glyph-name="V" unicode="V" horiz-adv-x="675" 
d="M270 0l-252 700h112l208 -591l207 591h113l-252 -700h-136z" />
    <glyph glyph-name="W" unicode="W" horiz-adv-x="956" 
d="M214 0l-186 700h107l144 -567l143 567h112l144 -565l143 565h107l-186 -700h-120l-144 561l-144 -561h-120z" />
    <glyph glyph-name="X" unicode="X" horiz-adv-x="657" 
d="M18 0l249 366l-237 334h125l173 -254l174 254h125l-237 -333l249 -367h-123l-188 286l-187 -286h-123z" />
    <glyph glyph-name="Y" unicode="Y" horiz-adv-x="656" 
d="M278 0v302l-268 398h120l199 -299l198 299h119l-268 -398v-302h-100z" />
    <glyph glyph-name="Z" unicode="Z" horiz-adv-x="607" 
d="M43 0v94l390 512h-380v94h504v-94l-389 -512h394v-94h-519z" />
    <glyph glyph-name="Aacute" unicode="&#xc1;" horiz-adv-x="704" 
d="M18 0l267 700h135l267 -700h-110l-75 204h-300l-75 -204h-109zM235 295h234l-117 318z" />
    <glyph glyph-name="Abreve" unicode="&#x102;" horiz-adv-x="704" 
d="M18 0l267 700h135l267 -700h-110l-75 204h-300l-75 -204h-109zM235 295h234l-117 318z" />
    <glyph glyph-name="Acircumflex" unicode="&#xc2;" horiz-adv-x="704" 
d="M18 0l267 700h135l267 -700h-110l-75 204h-300l-75 -204h-109zM235 295h234l-117 318z" />
    <glyph glyph-name="Adieresis" unicode="&#xc4;" horiz-adv-x="704" 
d="M18 0l267 700h135l267 -700h-110l-75 204h-300l-75 -204h-109zM235 295h234l-117 318z" />
    <glyph glyph-name="AE" unicode="&#xc6;" horiz-adv-x="1291" 
d="M18 0l267 700h135l267 -700h-110l-75 204h-300l-75 -204h-109zM235 295h234l-117 318zM791 0v700h432v-94h-332v-191h332v-94h-332v-227h332v-94h-432z" />
    <glyph glyph-name="AEacute" unicode="&#x1fc;" horiz-adv-x="1291" 
d="M18 0l267 700h135l267 -700h-110l-75 204h-300l-75 -204h-109zM235 295h234l-117 318zM791 0v700h432v-94h-332v-191h332v-94h-332v-227h332v-94h-432z" />
    <glyph glyph-name="Agrave" unicode="&#xc0;" horiz-adv-x="704" 
d="M18 0l267 700h135l267 -700h-110l-75 204h-300l-75 -204h-109zM235 295h234l-117 318z" />
    <glyph glyph-name="Amacron" unicode="&#x100;" horiz-adv-x="704" 
d="M18 0l267 700h135l267 -700h-110l-75 204h-300l-75 -204h-109zM235 295h234l-117 318z" />
    <glyph glyph-name="Aogonek" unicode="&#x104;" horiz-adv-x="704" 
d="M18 0l267 700h135l267 -700h-110l-75 204h-300l-75 -204h-109zM235 295h234l-117 318z" />
    <glyph glyph-name="Aring" unicode="&#xc5;" horiz-adv-x="704" 
d="M18 0l267 700h135l267 -700h-110l-75 204h-300l-75 -204h-109zM235 295h234l-117 318z" />
    <glyph glyph-name="Atilde" unicode="&#xc3;" horiz-adv-x="704" 
d="M18 0l267 700h135l267 -700h-110l-75 204h-300l-75 -204h-109zM235 295h234l-117 318z" />
    <glyph glyph-name="Cacute" unicode="&#x106;" horiz-adv-x="693" 
d="M372 -14c-186 0 -314 122 -314 363s123 365 316 365c152 0 256 -88 277 -238h-105c-15 92 -84 145 -172 145c-128 0 -213 -83 -213 -270c0 -185 89 -272 211 -272c97 0 158 65 174 155h104c-24 -145 -120 -248 -278 -248z" />
    <glyph glyph-name="Ccaron" unicode="&#x10c;" horiz-adv-x="693" 
d="M372 -14c-186 0 -314 122 -314 363s123 365 316 365c152 0 256 -88 277 -238h-105c-15 92 -84 145 -172 145c-128 0 -213 -83 -213 -270c0 -185 89 -272 211 -272c97 0 158 65 174 155h104c-24 -145 -120 -248 -278 -248z" />
    <glyph glyph-name="Ccedilla" unicode="&#xc7;" horiz-adv-x="693" 
d="M372 -14c-186 0 -314 122 -314 363s123 365 316 365c152 0 256 -88 277 -238h-105c-15 92 -84 145 -172 145c-128 0 -213 -83 -213 -270c0 -185 89 -272 211 -272c97 0 158 65 174 155h104c-24 -145 -120 -248 -278 -248z" />
    <glyph glyph-name="Ccircumflex" unicode="&#x108;" horiz-adv-x="693" 
d="M372 -14c-186 0 -314 122 -314 363s123 365 316 365c152 0 256 -88 277 -238h-105c-15 92 -84 145 -172 145c-128 0 -213 -83 -213 -270c0 -185 89 -272 211 -272c97 0 158 65 174 155h104c-24 -145 -120 -248 -278 -248z" />
    <glyph glyph-name="Cdotaccent" unicode="&#x10a;" horiz-adv-x="693" 
d="M372 -14c-186 0 -314 122 -314 363s123 365 316 365c152 0 256 -88 277 -238h-105c-15 92 -84 145 -172 145c-128 0 -213 -83 -213 -270c0 -185 89 -272 211 -272c97 0 158 65 174 155h104c-24 -145 -120 -248 -278 -248z" />
    <glyph glyph-name="Dcaron" unicode="&#x10e;" horiz-adv-x="717" 
d="M90 0v700h246c198 0 323 -134 323 -350c0 -215 -124 -350 -323 -350h-246zM190 92h151c138 0 215 101 215 258s-77 258 -215 258h-151v-516z" />
    <glyph glyph-name="Dcroat" unicode="&#x110;" horiz-adv-x="717" 
d="M90 0v700h246c198 0 323 -134 323 -350c0 -215 -124 -350 -323 -350h-246zM190 92h151c138 0 215 101 215 258s-77 258 -215 258h-151v-516z" />
    <glyph glyph-name="Eacute" unicode="&#xc9;" horiz-adv-x="590" 
d="M90 0v700h432v-94h-332v-191h332v-94h-332v-227h332v-94h-432z" />
    <glyph glyph-name="Ebreve" unicode="&#x114;" horiz-adv-x="590" 
d="M90 0v700h432v-94h-332v-191h332v-94h-332v-227h332v-94h-432z" />
    <glyph glyph-name="Ecaron" unicode="&#x11a;" horiz-adv-x="590" 
d="M90 0v700h432v-94h-332v-191h332v-94h-332v-227h332v-94h-432z" />
    <glyph glyph-name="Ecircumflex" unicode="&#xca;" horiz-adv-x="590" 
d="M90 0v700h432v-94h-332v-191h332v-94h-332v-227h332v-94h-432z" />
    <glyph glyph-name="Edieresis" unicode="&#xcb;" horiz-adv-x="590" 
d="M90 0v700h432v-94h-332v-191h332v-94h-332v-227h332v-94h-432z" />
    <glyph glyph-name="Edotaccent" unicode="&#x116;" horiz-adv-x="590" 
d="M90 0v700h432v-94h-332v-191h332v-94h-332v-227h332v-94h-432z" />
    <glyph glyph-name="Egrave" unicode="&#xc8;" horiz-adv-x="590" 
d="M90 0v700h432v-94h-332v-191h332v-94h-332v-227h332v-94h-432z" />
    <glyph glyph-name="Emacron" unicode="&#x112;" horiz-adv-x="590" 
d="M90 0v700h432v-94h-332v-191h332v-94h-332v-227h332v-94h-432z" />
    <glyph glyph-name="Eogonek" unicode="&#x118;" horiz-adv-x="590" 
d="M90 0v700h432v-94h-332v-191h332v-94h-332v-227h332v-94h-432z" />
    <glyph glyph-name="Eth" unicode="&#xd0;" horiz-adv-x="717" 
d="M90 0v700h246c198 0 323 -134 323 -350c0 -215 -124 -350 -323 -350h-246zM190 92h151c138 0 215 101 215 258s-77 258 -215 258h-151v-516z" />
    <glyph glyph-name="Gbreve" unicode="&#x11e;" horiz-adv-x="725" 
d="M366 -14c-181 0 -308 130 -308 363c0 232 123 365 316 365c157 0 260 -87 280 -228h-104c-17 81 -79 136 -176 136c-132 0 -213 -94 -213 -273c0 -183 85 -271 218 -271c101 0 170 60 179 173h-246v91h342v-342h-84v93c-37 -65 -110 -107 -204 -107z" />
    <glyph glyph-name="Gcircumflex" unicode="&#x11c;" horiz-adv-x="725" 
d="M366 -14c-181 0 -308 130 -308 363c0 232 123 365 316 365c157 0 260 -87 280 -228h-104c-17 81 -79 136 -176 136c-132 0 -213 -94 -213 -273c0 -183 85 -271 218 -271c101 0 170 60 179 173h-246v91h342v-342h-84v93c-37 -65 -110 -107 -204 -107z" />
    <glyph glyph-name="uni0122" unicode="&#x122;" horiz-adv-x="725" 
d="M366 -14c-181 0 -308 130 -308 363c0 232 123 365 316 365c157 0 260 -87 280 -228h-104c-17 81 -79 136 -176 136c-132 0 -213 -94 -213 -273c0 -183 85 -271 218 -271c101 0 170 60 179 173h-246v91h342v-342h-84v93c-37 -65 -110 -107 -204 -107z" />
    <glyph glyph-name="Gdotaccent" unicode="&#x120;" horiz-adv-x="725" 
d="M366 -14c-181 0 -308 130 -308 363c0 232 123 365 316 365c157 0 260 -87 280 -228h-104c-17 81 -79 136 -176 136c-132 0 -213 -94 -213 -273c0 -183 85 -271 218 -271c101 0 170 60 179 173h-246v91h342v-342h-84v93c-37 -65 -110 -107 -204 -107z" />
    <glyph glyph-name="Hbar" unicode="&#x126;" horiz-adv-x="729" 
d="M539 0v321h-349v-321h-100v700h100v-285h349v285h100v-700h-100z" />
    <glyph glyph-name="Hcircumflex" unicode="&#x124;" horiz-adv-x="729" 
d="M539 0v321h-349v-321h-100v700h100v-285h349v285h100v-700h-100z" />
    <glyph glyph-name="Iacute" unicode="&#xcd;" horiz-adv-x="281" 
d="M90 0v700h100v-700h-100z" />
    <glyph glyph-name="Ibreve" unicode="&#x12c;" horiz-adv-x="281" 
d="M90 0v700h100v-700h-100z" />
    <glyph glyph-name="Icircumflex" unicode="&#xce;" horiz-adv-x="281" 
d="M90 0v700h100v-700h-100z" />
    <glyph glyph-name="Idieresis" unicode="&#xcf;" horiz-adv-x="281" 
d="M90 0v700h100v-700h-100z" />
    <glyph glyph-name="Idotaccent" unicode="&#x130;" horiz-adv-x="281" 
d="M90 0v700h100v-700h-100z" />
    <glyph glyph-name="Igrave" unicode="&#xcc;" horiz-adv-x="281" 
d="M90 0v700h100v-700h-100z" />
    <glyph glyph-name="IJ" unicode="&#x132;" horiz-adv-x="756" 
d="M90 0v700h100v-700h-100zM298 0v94h164c78 0 114 40 114 132v474h100v-474c0 -159 -64 -226 -214 -226h-164z" />
    <glyph glyph-name="Imacron" unicode="&#x12a;" horiz-adv-x="281" 
d="M90 0v700h100v-700h-100z" />
    <glyph glyph-name="Iogonek" unicode="&#x12e;" horiz-adv-x="281" 
d="M90 0v700h100v-700h-100z" />
    <glyph glyph-name="Itilde" unicode="&#x128;" horiz-adv-x="281" 
d="M90 0v700h100v-700h-100z" />
    <glyph glyph-name="Jcircumflex" unicode="&#x134;" horiz-adv-x="479" 
d="M20 0v94h164c78 0 114 40 114 132v474h100v-474c0 -159 -64 -226 -214 -226h-164z" />
    <glyph glyph-name="uni0136" unicode="&#x136;" horiz-adv-x="663" 
d="M518 0l-243 317h-85v-317h-100v700h100v-281h84l244 281h125l-285 -329l285 -371h-125z" />
    <glyph glyph-name="Lacute" unicode="&#x139;" horiz-adv-x="540" 
d="M90 0v700h100v-606h329v-94h-429z" />
    <glyph glyph-name="Lcaron" unicode="&#x13d;" horiz-adv-x="540" 
d="M90 0v700h100v-606h329v-94h-429z" />
    <glyph glyph-name="uni013B" unicode="&#x13b;" horiz-adv-x="540" 
d="M90 0v700h100v-606h329v-94h-429z" />
    <glyph glyph-name="Ldot" unicode="&#x13f;" horiz-adv-x="540" 
d="M90 0v700h100v-606h329v-94h-429z" />
    <glyph glyph-name="Lslash" unicode="&#x141;" horiz-adv-x="540" 
d="M90 0v700h100v-606h329v-94h-429z" />
    <glyph glyph-name="Nacute" unicode="&#x143;" horiz-adv-x="729" 
d="M90 0v700h122l327 -545v545h100v-700h-122l-327 546v-546h-100z" />
    <glyph glyph-name="Ncaron" unicode="&#x147;" horiz-adv-x="729" 
d="M90 0v700h122l327 -545v545h100v-700h-122l-327 546v-546h-100z" />
    <glyph glyph-name="uni0145" unicode="&#x145;" horiz-adv-x="729" 
d="M90 0v700h122l327 -545v545h100v-700h-122l-327 546v-546h-100z" />
    <glyph glyph-name="Ntilde" unicode="&#xd1;" horiz-adv-x="729" 
d="M90 0v700h122l327 -545v545h100v-700h-122l-327 546v-546h-100z" />
    <glyph glyph-name="Eng" unicode="&#x14a;" horiz-adv-x="729" 
d="M90 0v700h122l327 -545v545h100v-700h-122l-327 546v-546h-100z" />
    <glyph glyph-name="Oacute" unicode="&#xd3;" horiz-adv-x="745" 
d="M373 -14c-187 0 -315 127 -315 364s128 364 315 364c186 0 314 -127 314 -364s-128 -364 -314 -364zM161 350c0 -181 87 -271 212 -271c124 0 211 90 211 271s-87 271 -211 271c-125 0 -212 -90 -212 -271z" />
    <glyph glyph-name="Obreve" unicode="&#x14e;" horiz-adv-x="745" 
d="M373 -14c-187 0 -315 127 -315 364s128 364 315 364c186 0 314 -127 314 -364s-128 -364 -314 -364zM161 350c0 -181 87 -271 212 -271c124 0 211 90 211 271s-87 271 -211 271c-125 0 -212 -90 -212 -271z" />
    <glyph glyph-name="Ocircumflex" unicode="&#xd4;" horiz-adv-x="745" 
d="M373 -14c-187 0 -315 127 -315 364s128 364 315 364c186 0 314 -127 314 -364s-128 -364 -314 -364zM161 350c0 -181 87 -271 212 -271c124 0 211 90 211 271s-87 271 -211 271c-125 0 -212 -90 -212 -271z" />
    <glyph glyph-name="Odieresis" unicode="&#xd6;" horiz-adv-x="745" 
d="M373 -14c-187 0 -315 127 -315 364s128 364 315 364c186 0 314 -127 314 -364s-128 -364 -314 -364zM161 350c0 -181 87 -271 212 -271c124 0 211 90 211 271s-87 271 -211 271c-125 0 -212 -90 -212 -271z" />
    <glyph glyph-name="OE" unicode="&#x152;" horiz-adv-x="1335" 
d="M373 -14c-187 0 -315 127 -315 364s128 364 315 364c186 0 314 -127 314 -364s-128 -364 -314 -364zM161 350c0 -181 87 -271 212 -271c124 0 211 90 211 271s-87 271 -211 271c-125 0 -212 -90 -212 -271zM835 0v700h432v-94h-332v-191h332v-94h-332v-227h332v-94h-432z
" />
    <glyph glyph-name="Ograve" unicode="&#xd2;" horiz-adv-x="745" 
d="M373 -14c-187 0 -315 127 -315 364s128 364 315 364c186 0 314 -127 314 -364s-128 -364 -314 -364zM161 350c0 -181 87 -271 212 -271c124 0 211 90 211 271s-87 271 -211 271c-125 0 -212 -90 -212 -271z" />
    <glyph glyph-name="Ohungarumlaut" unicode="&#x150;" horiz-adv-x="745" 
d="M373 -14c-187 0 -315 127 -315 364s128 364 315 364c186 0 314 -127 314 -364s-128 -364 -314 -364zM161 350c0 -181 87 -271 212 -271c124 0 211 90 211 271s-87 271 -211 271c-125 0 -212 -90 -212 -271z" />
    <glyph glyph-name="Omacron" unicode="&#x14c;" horiz-adv-x="745" 
d="M373 -14c-187 0 -315 127 -315 364s128 364 315 364c186 0 314 -127 314 -364s-128 -364 -314 -364zM161 350c0 -181 87 -271 212 -271c124 0 211 90 211 271s-87 271 -211 271c-125 0 -212 -90 -212 -271z" />
    <glyph glyph-name="Oslash" unicode="&#xd8;" horiz-adv-x="745" 
d="M373 -14c-187 0 -315 127 -315 364s128 364 315 364c186 0 314 -127 314 -364s-128 -364 -314 -364zM161 350c0 -181 87 -271 212 -271c124 0 211 90 211 271s-87 271 -211 271c-125 0 -212 -90 -212 -271z" />
    <glyph glyph-name="Oslashacute" unicode="&#x1fe;" horiz-adv-x="745" 
d="M373 -14c-187 0 -315 127 -315 364s128 364 315 364c186 0 314 -127 314 -364s-128 -364 -314 -364zM161 350c0 -181 87 -271 212 -271c124 0 211 90 211 271s-87 271 -211 271c-125 0 -212 -90 -212 -271z" />
    <glyph glyph-name="Otilde" unicode="&#xd5;" horiz-adv-x="745" 
d="M373 -14c-187 0 -315 127 -315 364s128 364 315 364c186 0 314 -127 314 -364s-128 -364 -314 -364zM161 350c0 -181 87 -271 212 -271c124 0 211 90 211 271s-87 271 -211 271c-125 0 -212 -90 -212 -271z" />
    <glyph glyph-name="Racute" unicode="&#x154;" horiz-adv-x="682" 
d="M90 0v700h300c146 0 232 -76 232 -201c0 -120 -78 -195 -211 -202l231 -297h-125l-230 298h-97v-298h-100zM190 389h200c83 0 130 40 130 110c0 68 -47 107 -130 107h-200v-217z" />
    <glyph glyph-name="Rcaron" unicode="&#x158;" horiz-adv-x="682" 
d="M90 0v700h300c146 0 232 -76 232 -201c0 -120 -78 -195 -211 -202l231 -297h-125l-230 298h-97v-298h-100zM190 389h200c83 0 130 40 130 110c0 68 -47 107 -130 107h-200v-217z" />
    <glyph glyph-name="uni0156" unicode="&#x156;" horiz-adv-x="682" 
d="M90 0v700h300c146 0 232 -76 232 -201c0 -120 -78 -195 -211 -202l231 -297h-125l-230 298h-97v-298h-100zM190 389h200c83 0 130 40 130 110c0 68 -47 107 -130 107h-200v-217z" />
    <glyph glyph-name="Sacute" unicode="&#x15a;" horiz-adv-x="630" 
d="M321 -14c-173 0 -277 87 -278 228h103c1 -85 67 -139 175 -139c96 0 157 50 157 126c0 61 -39 98 -119 109l-92 13c-134 18 -201 84 -201 189c0 123 99 202 250 202c157 0 253 -76 256 -198h-103c-3 68 -61 110 -153 110c-88 0 -146 -42 -146 -108c0 -57 41 -89 127 -101
l87 -12c130 -18 198 -85 198 -198c0 -134 -99 -221 -261 -221z" />
    <glyph glyph-name="Scaron" unicode="&#x160;" horiz-adv-x="630" 
d="M321 -14c-173 0 -277 87 -278 228h103c1 -85 67 -139 175 -139c96 0 157 50 157 126c0 61 -39 98 -119 109l-92 13c-134 18 -201 84 -201 189c0 123 99 202 250 202c157 0 253 -76 256 -198h-103c-3 68 -61 110 -153 110c-88 0 -146 -42 -146 -108c0 -57 41 -89 127 -101
l87 -12c130 -18 198 -85 198 -198c0 -134 -99 -221 -261 -221z" />
    <glyph glyph-name="Scedilla" unicode="&#x15e;" horiz-adv-x="630" 
d="M321 -14c-173 0 -277 87 -278 228h103c1 -85 67 -139 175 -139c96 0 157 50 157 126c0 61 -39 98 -119 109l-92 13c-134 18 -201 84 -201 189c0 123 99 202 250 202c157 0 253 -76 256 -198h-103c-3 68 -61 110 -153 110c-88 0 -146 -42 -146 -108c0 -57 41 -89 127 -101
l87 -12c130 -18 198 -85 198 -198c0 -134 -99 -221 -261 -221z" />
    <glyph glyph-name="Scircumflex" unicode="&#x15c;" horiz-adv-x="630" 
d="M321 -14c-173 0 -277 87 -278 228h103c1 -85 67 -139 175 -139c96 0 157 50 157 126c0 61 -39 98 -119 109l-92 13c-134 18 -201 84 -201 189c0 123 99 202 250 202c157 0 253 -76 256 -198h-103c-3 68 -61 110 -153 110c-88 0 -146 -42 -146 -108c0 -57 41 -89 127 -101
l87 -12c130 -18 198 -85 198 -198c0 -134 -99 -221 -261 -221z" />
    <glyph glyph-name="uni0218" unicode="&#x218;" horiz-adv-x="630" 
d="M321 -14c-173 0 -277 87 -278 228h103c1 -85 67 -139 175 -139c96 0 157 50 157 126c0 61 -39 98 -119 109l-92 13c-134 18 -201 84 -201 189c0 123 99 202 250 202c157 0 253 -76 256 -198h-103c-3 68 -61 110 -153 110c-88 0 -146 -42 -146 -108c0 -57 41 -89 127 -101
l87 -12c130 -18 198 -85 198 -198c0 -134 -99 -221 -261 -221z" />
    <glyph glyph-name="Tbar" unicode="&#x166;" 
d="M238 0v606h-220v94h540v-94h-220v-606h-100z" />
    <glyph glyph-name="Tcaron" unicode="&#x164;" 
d="M238 0v606h-220v94h540v-94h-220v-606h-100z" />
    <glyph glyph-name="uni0162" unicode="&#x162;" 
d="M238 0v606h-220v94h540v-94h-220v-606h-100z" />
    <glyph glyph-name="uni021A" unicode="&#x21a;" 
d="M238 0v606h-220v94h540v-94h-220v-606h-100z" />
    <glyph glyph-name="Thorn" unicode="&#xde;" horiz-adv-x="650" 
d="M90 0v700h290c146 0 232 -78 232 -206c0 -129 -86 -208 -232 -208h-190v-286h-100zM190 379h186c86 0 134 42 134 115c0 71 -48 112 -134 112h-186v-227z" />
    <glyph glyph-name="Uacute" unicode="&#xda;" horiz-adv-x="695" 
d="M347 -14c-166 0 -266 104 -266 277v437h100v-431c0 -122 61 -189 166 -189s166 67 166 189v431h101v-437c0 -173 -100 -277 -267 -277z" />
    <glyph glyph-name="Ubreve" unicode="&#x16c;" horiz-adv-x="695" 
d="M347 -14c-166 0 -266 104 -266 277v437h100v-431c0 -122 61 -189 166 -189s166 67 166 189v431h101v-437c0 -173 -100 -277 -267 -277z" />
    <glyph glyph-name="Ucircumflex" unicode="&#xdb;" horiz-adv-x="695" 
d="M347 -14c-166 0 -266 104 -266 277v437h100v-431c0 -122 61 -189 166 -189s166 67 166 189v431h101v-437c0 -173 -100 -277 -267 -277z" />
    <glyph glyph-name="Udieresis" unicode="&#xdc;" horiz-adv-x="695" 
d="M347 -14c-166 0 -266 104 -266 277v437h100v-431c0 -122 61 -189 166 -189s166 67 166 189v431h101v-437c0 -173 -100 -277 -267 -277z" />
    <glyph glyph-name="Ugrave" unicode="&#xd9;" horiz-adv-x="695" 
d="M347 -14c-166 0 -266 104 -266 277v437h100v-431c0 -122 61 -189 166 -189s166 67 166 189v431h101v-437c0 -173 -100 -277 -267 -277z" />
    <glyph glyph-name="Uhungarumlaut" unicode="&#x170;" horiz-adv-x="695" 
d="M347 -14c-166 0 -266 104 -266 277v437h100v-431c0 -122 61 -189 166 -189s166 67 166 189v431h101v-437c0 -173 -100 -277 -267 -277z" />
    <glyph glyph-name="Umacron" unicode="&#x16a;" horiz-adv-x="695" 
d="M347 -14c-166 0 -266 104 -266 277v437h100v-431c0 -122 61 -189 166 -189s166 67 166 189v431h101v-437c0 -173 -100 -277 -267 -277z" />
    <glyph glyph-name="Uogonek" unicode="&#x172;" horiz-adv-x="695" 
d="M347 -14c-166 0 -266 104 -266 277v437h100v-431c0 -122 61 -189 166 -189s166 67 166 189v431h101v-437c0 -173 -100 -277 -267 -277z" />
    <glyph glyph-name="Uring" unicode="&#x16e;" horiz-adv-x="695" 
d="M347 -14c-166 0 -266 104 -266 277v437h100v-431c0 -122 61 -189 166 -189s166 67 166 189v431h101v-437c0 -173 -100 -277 -267 -277z" />
    <glyph glyph-name="Utilde" unicode="&#x168;" horiz-adv-x="695" 
d="M347 -14c-166 0 -266 104 -266 277v437h100v-431c0 -122 61 -189 166 -189s166 67 166 189v431h101v-437c0 -173 -100 -277 -267 -277z" />
    <glyph glyph-name="Wacute" unicode="&#x1e82;" horiz-adv-x="956" 
d="M214 0l-186 700h107l144 -567l143 567h112l144 -565l143 565h107l-186 -700h-120l-144 561l-144 -561h-120z" />
    <glyph glyph-name="Wcircumflex" unicode="&#x174;" horiz-adv-x="956" 
d="M214 0l-186 700h107l144 -567l143 567h112l144 -565l143 565h107l-186 -700h-120l-144 561l-144 -561h-120z" />
    <glyph glyph-name="Wdieresis" unicode="&#x1e84;" horiz-adv-x="956" 
d="M214 0l-186 700h107l144 -567l143 567h112l144 -565l143 565h107l-186 -700h-120l-144 561l-144 -561h-120z" />
    <glyph glyph-name="Wgrave" unicode="&#x1e80;" horiz-adv-x="956" 
d="M214 0l-186 700h107l144 -567l143 567h112l144 -565l143 565h107l-186 -700h-120l-144 561l-144 -561h-120z" />
    <glyph glyph-name="Yacute" unicode="&#xdd;" horiz-adv-x="656" 
d="M278 0v302l-268 398h120l199 -299l198 299h119l-268 -398v-302h-100z" />
    <glyph glyph-name="Ycircumflex" unicode="&#x176;" horiz-adv-x="656" 
d="M278 0v302l-268 398h120l199 -299l198 299h119l-268 -398v-302h-100z" />
    <glyph glyph-name="Ydieresis" unicode="&#x178;" horiz-adv-x="656" 
d="M278 0v302l-268 398h120l199 -299l198 299h119l-268 -398v-302h-100z" />
    <glyph glyph-name="Ygrave" unicode="&#x1ef2;" horiz-adv-x="656" 
d="M278 0v302l-268 398h120l199 -299l198 299h119l-268 -398v-302h-100z" />
    <glyph glyph-name="Zacute" unicode="&#x179;" horiz-adv-x="607" 
d="M43 0v94l390 512h-380v94h504v-94l-389 -512h394v-94h-519z" />
    <glyph glyph-name="Zcaron" unicode="&#x17d;" horiz-adv-x="607" 
d="M43 0v94l390 512h-380v94h504v-94l-389 -512h394v-94h-519z" />
    <glyph glyph-name="Zdotaccent" unicode="&#x17b;" horiz-adv-x="607" 
d="M43 0v94l390 512h-380v94h504v-94l-389 -512h394v-94h-519z" />
    <glyph glyph-name="a" unicode="a" horiz-adv-x="531" 
d="M217 -14c-111 0 -181 58 -181 150c0 86 58 148 176 155l146 8v27c0 63 -31 89 -97 89c-64 0 -96 -17 -104 -68h-97c11 99 79 148 208 148c115 0 182 -58 182 -164v-235c0 -11 5 -16 16 -16h41v-80h-78c-33 0 -52 18 -52 50v14c-28 -49 -85 -78 -160 -78zM133 139
c0 -44 36 -73 95 -73c78 0 130 45 130 127v31l-134 -10c-62 -4 -91 -36 -91 -75z" />
    <glyph glyph-name="b" unicode="b" horiz-adv-x="607" 
d="M331 -14c-75 0 -136 30 -167 83v-69h-86v700h97v-277c31 46 87 72 156 72c137 0 231 -102 231 -254c0 -153 -94 -255 -231 -255zM173 241c0 -100 57 -167 144 -167s145 67 145 167c0 99 -58 166 -145 166s-144 -67 -144 -166z" />
    <glyph glyph-name="c" unicode="c" horiz-adv-x="534" 
d="M282 -14c-144 0 -237 107 -237 253c0 150 98 256 243 256c122 0 205 -71 216 -172h-99c-9 45 -49 84 -118 84c-86 0 -142 -65 -142 -166c0 -103 57 -167 140 -167c65 0 112 38 122 94h99c-13 -96 -93 -182 -224 -182z" />
    <glyph glyph-name="d" unicode="d" horiz-adv-x="607" 
d="M276 -14c-137 0 -231 102 -231 255c0 152 94 254 231 254c70 0 127 -26 157 -73v278h96v-700h-86v67c-32 -51 -92 -81 -167 -81zM145 241c0 -100 59 -167 146 -167s144 67 144 167c0 99 -57 166 -144 166s-146 -67 -146 -166z" />
    <glyph glyph-name="e" unicode="e" horiz-adv-x="548" 
d="M285 -14c-144 0 -240 101 -240 257c0 155 96 252 233 252c143 0 231 -93 231 -240c0 -13 -1 -26 -3 -46h-365c4 -88 58 -141 144 -141c57 0 97 26 116 69h99c-30 -93 -104 -151 -215 -151zM141 285h270v5c0 74 -48 127 -133 127c-81 0 -133 -54 -137 -132z" />
    <glyph glyph-name="f" unicode="f" horiz-adv-x="415" 
d="M137 569c0 84 49 131 132 131h156v-85h-136c-35 0 -56 -18 -56 -56v-78h162v-85h-162v-396h-96v396h-127v85h127v88z" />
    <glyph glyph-name="g" unicode="g" horiz-adv-x="559" 
d="M181 -180c-107 0 -155 50 -155 120c0 41 22 78 63 98c-27 18 -44 47 -44 78c0 43 27 78 83 92c-45 30 -64 77 -64 122c0 94 72 165 192 165c77 0 139 -39 159 -89v15c0 48 26 60 60 60h71v-85h-77c-15 0 -21 -6 -21 -21v-51c0 -100 -78 -165 -187 -165h-83
c-28 0 -47 -13 -47 -39s22 -39 47 -39h175c92 0 151 -44 151 -123s-47 -138 -157 -138h-166zM119 -51c0 -31 20 -55 73 -55h149c38 0 70 18 70 61c0 33 -26 52 -65 52h-151c-54 0 -76 -27 -76 -58zM157 327c0 -56 37 -92 99 -92c63 0 99 36 99 92s-37 92 -99 92
c-63 0 -99 -36 -99 -92z" />
    <glyph glyph-name="h" unicode="h" 
d="M78 0v700h97v-266c32 41 83 61 141 61c118 0 192 -72 192 -205v-290h-97v281c0 86 -42 126 -113 126c-74 0 -123 -51 -123 -129v-278h-97z" />
    <glyph glyph-name="i" unicode="i" horiz-adv-x="253" 
d="M78 0v481h97v-481h-97zM72 578v115h108v-115h-108z" />
    <glyph glyph-name="j" unicode="j" horiz-adv-x="262" 
d="M-17 -180v87h66c29 0 38 13 38 49v525h97v-535c0 -88 -47 -126 -124 -126h-77zM82 578v115h108v-115h-108z" />
    <glyph glyph-name="k" unicode="k" horiz-adv-x="523" 
d="M390 0l-164 216h-51v-216h-97v700h97v-394h51l162 175h119l-196 -218l196 -263h-117z" />
    <glyph glyph-name="l" unicode="l" horiz-adv-x="292" 
d="M175 0c-68 0 -97 26 -97 91v609h97v-579c0 -25 9 -36 34 -36h61v-85h-95z" />
    <glyph glyph-name="m" unicode="m" horiz-adv-x="817" 
d="M78 0v481h86v-59c28 50 72 73 131 73c66 0 115 -32 138 -86c31 58 81 86 144 86c111 0 172 -67 172 -187v-308h-96v303c0 67 -32 104 -93 104c-57 0 -98 -44 -98 -107v-300h-97v303c0 67 -32 104 -91 104c-58 0 -99 -44 -99 -107v-300h-97z" />
    <glyph glyph-name="n" unicode="n" 
d="M78 0v481h86v-63c29 52 87 77 152 77c118 0 192 -72 192 -205v-290h-97v281c0 86 -42 126 -113 126c-74 0 -123 -51 -123 -129v-278h-97z" />
    <glyph glyph-name="o" unicode="o" horiz-adv-x="586" 
d="M293 -14c-146 0 -248 102 -248 255c0 152 102 254 248 254c147 0 248 -102 248 -254c0 -153 -101 -255 -248 -255zM145 241c0 -100 60 -167 148 -167c89 0 148 67 148 167c0 99 -59 166 -148 166c-88 0 -148 -67 -148 -166z" />
    <glyph glyph-name="p" unicode="p" horiz-adv-x="607" 
d="M78 -180v661h86v-68c31 52 92 82 167 82c137 0 231 -102 231 -254c0 -153 -94 -255 -231 -255c-69 0 -125 26 -156 73v-239h-97zM173 241c0 -100 57 -167 144 -167s145 67 145 167c0 99 -58 166 -145 166s-144 -67 -144 -166z" />
    <glyph glyph-name="q" unicode="q" horiz-adv-x="607" 
d="M433 -180v240c-30 -48 -87 -74 -157 -74c-137 0 -231 102 -231 255c0 152 94 254 231 254c75 0 135 -30 167 -81v67h86v-661h-96zM145 241c0 -100 59 -167 146 -167s144 67 144 167c0 99 -57 166 -144 166s-146 -67 -146 -166z" />
    <glyph glyph-name="r" unicode="r" horiz-adv-x="376" 
d="M78 0v481h86v-78c12 48 48 78 105 78h92v-85h-101c-60 0 -85 -34 -85 -99v-297h-97z" />
    <glyph glyph-name="s" unicode="s" horiz-adv-x="485" 
d="M245 -14c-130 0 -207 52 -212 151h100c5 -48 44 -72 114 -72c64 0 103 27 103 71c0 36 -27 57 -77 62l-77 8c-90 9 -147 59 -147 139c0 92 77 150 195 150c120 0 194 -50 200 -148h-97c-3 46 -41 69 -104 69c-60 0 -98 -25 -98 -66c0 -35 26 -54 82 -61l78 -9
c91 -10 143 -61 143 -140c0 -94 -79 -154 -203 -154z" />
    <glyph glyph-name="t" unicode="t" horiz-adv-x="409" 
d="M253 0c-83 0 -119 33 -119 116v280h-126v85h126v144h97v-144h151v-85h-151v-261c0 -35 14 -50 51 -50h100v-85h-129z" />
    <glyph glyph-name="u" unicode="u" horiz-adv-x="563" 
d="M255 -14c-117 0 -189 72 -189 205v290h97v-281c0 -86 40 -126 110 -126c73 0 120 52 120 129v278h97v-481h-86v55c-32 -47 -87 -69 -149 -69z" />
    <glyph glyph-name="v" unicode="v" horiz-adv-x="537" 
d="M213 0l-200 481h108l148 -377l147 377h108l-201 -481h-110z" />
    <glyph glyph-name="w" unicode="w" horiz-adv-x="782" 
d="M169 0l-149 481h101l107 -373l107 373h111l107 -373l107 373h101l-149 -481h-114l-107 371l-108 -371h-114z" />
    <glyph glyph-name="x" unicode="x" horiz-adv-x="529" 
d="M15 0l187 248l-177 233h118l122 -166l121 166h118l-177 -233l187 -248h-118l-131 176l-132 -176h-118z" />
    <glyph glyph-name="y" unicode="y" horiz-adv-x="530" 
d="M28 -180v87h86c33 0 48 10 59 35l42 91l-202 448h111l142 -339l142 339h109l-264 -587c-22 -50 -50 -74 -117 -74h-108z" />
    <glyph glyph-name="z" unicode="z" horiz-adv-x="501" 
d="M45 0v85l277 311h-272v85h398v-85l-278 -311h288v-85h-413z" />
    <glyph glyph-name="aacute" unicode="&#xe1;" horiz-adv-x="531" 
d="M217 -14c-111 0 -181 58 -181 150c0 86 58 148 176 155l146 8v27c0 63 -31 89 -97 89c-64 0 -96 -17 -104 -68h-97c11 99 79 148 208 148c115 0 182 -58 182 -164v-235c0 -11 5 -16 16 -16h41v-80h-78c-33 0 -52 18 -52 50v14c-28 -49 -85 -78 -160 -78zM133 139
c0 -44 36 -73 95 -73c78 0 130 45 130 127v31l-134 -10c-62 -4 -91 -36 -91 -75z" />
    <glyph glyph-name="abreve" unicode="&#x103;" horiz-adv-x="531" 
d="M217 -14c-111 0 -181 58 -181 150c0 86 58 148 176 155l146 8v27c0 63 -31 89 -97 89c-64 0 -96 -17 -104 -68h-97c11 99 79 148 208 148c115 0 182 -58 182 -164v-235c0 -11 5 -16 16 -16h41v-80h-78c-33 0 -52 18 -52 50v14c-28 -49 -85 -78 -160 -78zM133 139
c0 -44 36 -73 95 -73c78 0 130 45 130 127v31l-134 -10c-62 -4 -91 -36 -91 -75z" />
    <glyph glyph-name="acircumflex" unicode="&#xe2;" horiz-adv-x="531" 
d="M217 -14c-111 0 -181 58 -181 150c0 86 58 148 176 155l146 8v27c0 63 -31 89 -97 89c-64 0 -96 -17 -104 -68h-97c11 99 79 148 208 148c115 0 182 -58 182 -164v-235c0 -11 5 -16 16 -16h41v-80h-78c-33 0 -52 18 -52 50v14c-28 -49 -85 -78 -160 -78zM133 139
c0 -44 36 -73 95 -73c78 0 130 45 130 127v31l-134 -10c-62 -4 -91 -36 -91 -75z" />
    <glyph glyph-name="adieresis" unicode="&#xe4;" horiz-adv-x="531" 
d="M217 -14c-111 0 -181 58 -181 150c0 86 58 148 176 155l146 8v27c0 63 -31 89 -97 89c-64 0 -96 -17 -104 -68h-97c11 99 79 148 208 148c115 0 182 -58 182 -164v-235c0 -11 5 -16 16 -16h41v-80h-78c-33 0 -52 18 -52 50v14c-28 -49 -85 -78 -160 -78zM133 139
c0 -44 36 -73 95 -73c78 0 130 45 130 127v31l-134 -10c-62 -4 -91 -36 -91 -75z" />
    <glyph glyph-name="ae" unicode="&#xe6;" horiz-adv-x="1079" 
d="M217 -14c-111 0 -181 58 -181 150c0 86 58 148 176 155l146 8v27c0 63 -31 89 -97 89c-64 0 -96 -17 -104 -68h-97c11 99 79 148 208 148c115 0 182 -58 182 -164v-235c0 -11 5 -16 16 -16h41v-80h-78c-33 0 -52 18 -52 50v14c-28 -49 -85 -78 -160 -78zM133 139
c0 -44 36 -73 95 -73c78 0 130 45 130 127v31l-134 -10c-62 -4 -91 -36 -91 -75zM576 243c0 155 96 252 233 252c143 0 231 -93 231 -240c0 -13 -1 -26 -3 -46h-365c4 -88 58 -141 144 -141c57 0 97 26 116 69h99c-30 -93 -104 -151 -215 -151c-144 0 -240 101 -240 257z
M672 285h270v5c0 74 -48 127 -133 127c-81 0 -133 -54 -137 -132z" />
    <glyph glyph-name="aeacute" unicode="&#x1fd;" horiz-adv-x="1079" 
d="M217 -14c-111 0 -181 58 -181 150c0 86 58 148 176 155l146 8v27c0 63 -31 89 -97 89c-64 0 -96 -17 -104 -68h-97c11 99 79 148 208 148c115 0 182 -58 182 -164v-235c0 -11 5 -16 16 -16h41v-80h-78c-33 0 -52 18 -52 50v14c-28 -49 -85 -78 -160 -78zM133 139
c0 -44 36 -73 95 -73c78 0 130 45 130 127v31l-134 -10c-62 -4 -91 -36 -91 -75zM576 243c0 155 96 252 233 252c143 0 231 -93 231 -240c0 -13 -1 -26 -3 -46h-365c4 -88 58 -141 144 -141c57 0 97 26 116 69h99c-30 -93 -104 -151 -215 -151c-144 0 -240 101 -240 257z
M672 285h270v5c0 74 -48 127 -133 127c-81 0 -133 -54 -137 -132z" />
    <glyph glyph-name="agrave" unicode="&#xe0;" horiz-adv-x="531" 
d="M217 -14c-111 0 -181 58 -181 150c0 86 58 148 176 155l146 8v27c0 63 -31 89 -97 89c-64 0 -96 -17 -104 -68h-97c11 99 79 148 208 148c115 0 182 -58 182 -164v-235c0 -11 5 -16 16 -16h41v-80h-78c-33 0 -52 18 -52 50v14c-28 -49 -85 -78 -160 -78zM133 139
c0 -44 36 -73 95 -73c78 0 130 45 130 127v31l-134 -10c-62 -4 -91 -36 -91 -75z" />
    <glyph glyph-name="amacron" unicode="&#x101;" horiz-adv-x="531" 
d="M217 -14c-111 0 -181 58 -181 150c0 86 58 148 176 155l146 8v27c0 63 -31 89 -97 89c-64 0 -96 -17 -104 -68h-97c11 99 79 148 208 148c115 0 182 -58 182 -164v-235c0 -11 5 -16 16 -16h41v-80h-78c-33 0 -52 18 -52 50v14c-28 -49 -85 -78 -160 -78zM133 139
c0 -44 36 -73 95 -73c78 0 130 45 130 127v31l-134 -10c-62 -4 -91 -36 -91 -75z" />
    <glyph glyph-name="aogonek" unicode="&#x105;" horiz-adv-x="531" 
d="M217 -14c-111 0 -181 58 -181 150c0 86 58 148 176 155l146 8v27c0 63 -31 89 -97 89c-64 0 -96 -17 -104 -68h-97c11 99 79 148 208 148c115 0 182 -58 182 -164v-235c0 -11 5 -16 16 -16h41v-80h-78c-33 0 -52 18 -52 50v14c-28 -49 -85 -78 -160 -78zM133 139
c0 -44 36 -73 95 -73c78 0 130 45 130 127v31l-134 -10c-62 -4 -91 -36 -91 -75z" />
    <glyph glyph-name="aring" unicode="&#xe5;" horiz-adv-x="531" 
d="M217 -14c-111 0 -181 58 -181 150c0 86 58 148 176 155l146 8v27c0 63 -31 89 -97 89c-64 0 -96 -17 -104 -68h-97c11 99 79 148 208 148c115 0 182 -58 182 -164v-235c0 -11 5 -16 16 -16h41v-80h-78c-33 0 -52 18 -52 50v14c-28 -49 -85 -78 -160 -78zM133 139
c0 -44 36 -73 95 -73c78 0 130 45 130 127v31l-134 -10c-62 -4 -91 -36 -91 -75z" />
    <glyph glyph-name="atilde" unicode="&#xe3;" horiz-adv-x="531" 
d="M217 -14c-111 0 -181 58 -181 150c0 86 58 148 176 155l146 8v27c0 63 -31 89 -97 89c-64 0 -96 -17 -104 -68h-97c11 99 79 148 208 148c115 0 182 -58 182 -164v-235c0 -11 5 -16 16 -16h41v-80h-78c-33 0 -52 18 -52 50v14c-28 -49 -85 -78 -160 -78zM133 139
c0 -44 36 -73 95 -73c78 0 130 45 130 127v31l-134 -10c-62 -4 -91 -36 -91 -75z" />
    <glyph glyph-name="cacute" unicode="&#x107;" horiz-adv-x="534" 
d="M282 -14c-144 0 -237 107 -237 253c0 150 98 256 243 256c122 0 205 -71 216 -172h-99c-9 45 -49 84 -118 84c-86 0 -142 -65 -142 -166c0 -103 57 -167 140 -167c65 0 112 38 122 94h99c-13 -96 -93 -182 -224 -182z" />
    <glyph glyph-name="ccaron" unicode="&#x10d;" horiz-adv-x="534" 
d="M282 -14c-144 0 -237 107 -237 253c0 150 98 256 243 256c122 0 205 -71 216 -172h-99c-9 45 -49 84 -118 84c-86 0 -142 -65 -142 -166c0 -103 57 -167 140 -167c65 0 112 38 122 94h99c-13 -96 -93 -182 -224 -182z" />
    <glyph glyph-name="ccedilla" unicode="&#xe7;" horiz-adv-x="534" 
d="M282 -14c-144 0 -237 107 -237 253c0 150 98 256 243 256c122 0 205 -71 216 -172h-99c-9 45 -49 84 -118 84c-86 0 -142 -65 -142 -166c0 -103 57 -167 140 -167c65 0 112 38 122 94h99c-13 -96 -93 -182 -224 -182z" />
    <glyph glyph-name="ccircumflex" unicode="&#x109;" horiz-adv-x="534" 
d="M282 -14c-144 0 -237 107 -237 253c0 150 98 256 243 256c122 0 205 -71 216 -172h-99c-9 45 -49 84 -118 84c-86 0 -142 -65 -142 -166c0 -103 57 -167 140 -167c65 0 112 38 122 94h99c-13 -96 -93 -182 -224 -182z" />
    <glyph glyph-name="cdotaccent" unicode="&#x10b;" horiz-adv-x="534" 
d="M282 -14c-144 0 -237 107 -237 253c0 150 98 256 243 256c122 0 205 -71 216 -172h-99c-9 45 -49 84 -118 84c-86 0 -142 -65 -142 -166c0 -103 57 -167 140 -167c65 0 112 38 122 94h99c-13 -96 -93 -182 -224 -182z" />
    <glyph glyph-name="dcaron" unicode="&#x10f;" horiz-adv-x="607" 
d="M276 -14c-137 0 -231 102 -231 255c0 152 94 254 231 254c70 0 127 -26 157 -73v278h96v-700h-86v67c-32 -51 -92 -81 -167 -81zM145 241c0 -100 59 -167 146 -167s144 67 144 167c0 99 -57 166 -144 166s-146 -67 -146 -166z" />
    <glyph glyph-name="dcroat" unicode="&#x111;" horiz-adv-x="607" 
d="M276 -14c-137 0 -231 102 -231 255c0 152 94 254 231 254c70 0 127 -26 157 -73v278h96v-700h-86v67c-32 -51 -92 -81 -167 -81zM145 241c0 -100 59 -167 146 -167s144 67 144 167c0 99 -57 166 -144 166s-146 -67 -146 -166z" />
    <glyph glyph-name="eacute" unicode="&#xe9;" horiz-adv-x="548" 
d="M285 -14c-144 0 -240 101 -240 257c0 155 96 252 233 252c143 0 231 -93 231 -240c0 -13 -1 -26 -3 -46h-365c4 -88 58 -141 144 -141c57 0 97 26 116 69h99c-30 -93 -104 -151 -215 -151zM141 285h270v5c0 74 -48 127 -133 127c-81 0 -133 -54 -137 -132z" />
    <glyph glyph-name="ebreve" unicode="&#x115;" horiz-adv-x="548" 
d="M285 -14c-144 0 -240 101 -240 257c0 155 96 252 233 252c143 0 231 -93 231 -240c0 -13 -1 -26 -3 -46h-365c4 -88 58 -141 144 -141c57 0 97 26 116 69h99c-30 -93 -104 -151 -215 -151zM141 285h270v5c0 74 -48 127 -133 127c-81 0 -133 -54 -137 -132z" />
    <glyph glyph-name="ecaron" unicode="&#x11b;" horiz-adv-x="548" 
d="M285 -14c-144 0 -240 101 -240 257c0 155 96 252 233 252c143 0 231 -93 231 -240c0 -13 -1 -26 -3 -46h-365c4 -88 58 -141 144 -141c57 0 97 26 116 69h99c-30 -93 -104 -151 -215 -151zM141 285h270v5c0 74 -48 127 -133 127c-81 0 -133 -54 -137 -132z" />
    <glyph glyph-name="ecircumflex" unicode="&#xea;" horiz-adv-x="548" 
d="M285 -14c-144 0 -240 101 -240 257c0 155 96 252 233 252c143 0 231 -93 231 -240c0 -13 -1 -26 -3 -46h-365c4 -88 58 -141 144 -141c57 0 97 26 116 69h99c-30 -93 -104 -151 -215 -151zM141 285h270v5c0 74 -48 127 -133 127c-81 0 -133 -54 -137 -132z" />
    <glyph glyph-name="edieresis" unicode="&#xeb;" horiz-adv-x="548" 
d="M285 -14c-144 0 -240 101 -240 257c0 155 96 252 233 252c143 0 231 -93 231 -240c0 -13 -1 -26 -3 -46h-365c4 -88 58 -141 144 -141c57 0 97 26 116 69h99c-30 -93 -104 -151 -215 -151zM141 285h270v5c0 74 -48 127 -133 127c-81 0 -133 -54 -137 -132z" />
    <glyph glyph-name="edotaccent" unicode="&#x117;" horiz-adv-x="548" 
d="M285 -14c-144 0 -240 101 -240 257c0 155 96 252 233 252c143 0 231 -93 231 -240c0 -13 -1 -26 -3 -46h-365c4 -88 58 -141 144 -141c57 0 97 26 116 69h99c-30 -93 -104 -151 -215 -151zM141 285h270v5c0 74 -48 127 -133 127c-81 0 -133 -54 -137 -132z" />
    <glyph glyph-name="egrave" unicode="&#xe8;" horiz-adv-x="548" 
d="M285 -14c-144 0 -240 101 -240 257c0 155 96 252 233 252c143 0 231 -93 231 -240c0 -13 -1 -26 -3 -46h-365c4 -88 58 -141 144 -141c57 0 97 26 116 69h99c-30 -93 -104 -151 -215 -151zM141 285h270v5c0 74 -48 127 -133 127c-81 0 -133 -54 -137 -132z" />
    <glyph glyph-name="emacron" unicode="&#x113;" horiz-adv-x="548" 
d="M285 -14c-144 0 -240 101 -240 257c0 155 96 252 233 252c143 0 231 -93 231 -240c0 -13 -1 -26 -3 -46h-365c4 -88 58 -141 144 -141c57 0 97 26 116 69h99c-30 -93 -104 -151 -215 -151zM141 285h270v5c0 74 -48 127 -133 127c-81 0 -133 -54 -137 -132z" />
    <glyph glyph-name="eogonek" unicode="&#x119;" horiz-adv-x="548" 
d="M285 -14c-144 0 -240 101 -240 257c0 155 96 252 233 252c143 0 231 -93 231 -240c0 -13 -1 -26 -3 -46h-365c4 -88 58 -141 144 -141c57 0 97 26 116 69h99c-30 -93 -104 -151 -215 -151zM141 285h270v5c0 74 -48 127 -133 127c-81 0 -133 -54 -137 -132z" />
    <glyph glyph-name="gbreve" unicode="&#x11f;" horiz-adv-x="559" 
d="M181 -180c-107 0 -155 50 -155 120c0 41 22 78 63 98c-27 18 -44 47 -44 78c0 43 27 78 83 92c-45 30 -64 77 -64 122c0 94 72 165 192 165c77 0 139 -39 159 -89v15c0 48 26 60 60 60h71v-85h-77c-15 0 -21 -6 -21 -21v-51c0 -100 -78 -165 -187 -165h-83
c-28 0 -47 -13 -47 -39s22 -39 47 -39h175c92 0 151 -44 151 -123s-47 -138 -157 -138h-166zM119 -51c0 -31 20 -55 73 -55h149c38 0 70 18 70 61c0 33 -26 52 -65 52h-151c-54 0 -76 -27 -76 -58zM157 327c0 -56 37 -92 99 -92c63 0 99 36 99 92s-37 92 -99 92
c-63 0 -99 -36 -99 -92z" />
    <glyph glyph-name="gcircumflex" unicode="&#x11d;" horiz-adv-x="559" 
d="M181 -180c-107 0 -155 50 -155 120c0 41 22 78 63 98c-27 18 -44 47 -44 78c0 43 27 78 83 92c-45 30 -64 77 -64 122c0 94 72 165 192 165c77 0 139 -39 159 -89v15c0 48 26 60 60 60h71v-85h-77c-15 0 -21 -6 -21 -21v-51c0 -100 -78 -165 -187 -165h-83
c-28 0 -47 -13 -47 -39s22 -39 47 -39h175c92 0 151 -44 151 -123s-47 -138 -157 -138h-166zM119 -51c0 -31 20 -55 73 -55h149c38 0 70 18 70 61c0 33 -26 52 -65 52h-151c-54 0 -76 -27 -76 -58zM157 327c0 -56 37 -92 99 -92c63 0 99 36 99 92s-37 92 -99 92
c-63 0 -99 -36 -99 -92z" />
    <glyph glyph-name="uni0123" unicode="&#x123;" horiz-adv-x="559" 
d="M181 -180c-107 0 -155 50 -155 120c0 41 22 78 63 98c-27 18 -44 47 -44 78c0 43 27 78 83 92c-45 30 -64 77 -64 122c0 94 72 165 192 165c77 0 139 -39 159 -89v15c0 48 26 60 60 60h71v-85h-77c-15 0 -21 -6 -21 -21v-51c0 -100 -78 -165 -187 -165h-83
c-28 0 -47 -13 -47 -39s22 -39 47 -39h175c92 0 151 -44 151 -123s-47 -138 -157 -138h-166zM119 -51c0 -31 20 -55 73 -55h149c38 0 70 18 70 61c0 33 -26 52 -65 52h-151c-54 0 -76 -27 -76 -58zM157 327c0 -56 37 -92 99 -92c63 0 99 36 99 92s-37 92 -99 92
c-63 0 -99 -36 -99 -92z" />
    <glyph glyph-name="gdotaccent" unicode="&#x121;" horiz-adv-x="559" 
d="M181 -180c-107 0 -155 50 -155 120c0 41 22 78 63 98c-27 18 -44 47 -44 78c0 43 27 78 83 92c-45 30 -64 77 -64 122c0 94 72 165 192 165c77 0 139 -39 159 -89v15c0 48 26 60 60 60h71v-85h-77c-15 0 -21 -6 -21 -21v-51c0 -100 -78 -165 -187 -165h-83
c-28 0 -47 -13 -47 -39s22 -39 47 -39h175c92 0 151 -44 151 -123s-47 -138 -157 -138h-166zM119 -51c0 -31 20 -55 73 -55h149c38 0 70 18 70 61c0 33 -26 52 -65 52h-151c-54 0 -76 -27 -76 -58zM157 327c0 -56 37 -92 99 -92c63 0 99 36 99 92s-37 92 -99 92
c-63 0 -99 -36 -99 -92z" />
    <glyph glyph-name="hbar" unicode="&#x127;" 
d="M78 0v700h97v-266c32 41 83 61 141 61c118 0 192 -72 192 -205v-290h-97v281c0 86 -42 126 -113 126c-74 0 -123 -51 -123 -129v-278h-97z" />
    <glyph glyph-name="hcircumflex" unicode="&#x125;" 
d="M78 0v700h97v-266c32 41 83 61 141 61c118 0 192 -72 192 -205v-290h-97v281c0 86 -42 126 -113 126c-74 0 -123 -51 -123 -129v-278h-97z" />
    <glyph glyph-name="iacute" unicode="&#xed;" horiz-adv-x="253" 
d="M78 0v481h97v-481h-97zM72 578v115h108v-115h-108z" />
    <glyph glyph-name="ibreve" unicode="&#x12d;" horiz-adv-x="253" 
d="M78 0v481h97v-481h-97zM72 578v115h108v-115h-108z" />
    <glyph glyph-name="icircumflex" unicode="&#xee;" horiz-adv-x="253" 
d="M78 0v481h97v-481h-97zM72 578v115h108v-115h-108z" />
    <glyph glyph-name="idieresis" unicode="&#xef;" horiz-adv-x="253" 
d="M78 0v481h97v-481h-97zM72 578v115h108v-115h-108z" />
    <glyph glyph-name="dotlessi" unicode="&#x131;" horiz-adv-x="253" 
d="M78 0v481h97v-481h-97zM72 578v115h108v-115h-108z" />
    <glyph glyph-name="igrave" unicode="&#xec;" horiz-adv-x="253" 
d="M78 0v481h97v-481h-97zM72 578v115h108v-115h-108z" />
    <glyph glyph-name="ij" unicode="&#x133;" horiz-adv-x="508" 
d="M78 0v481h97v-481h-97zM72 578v115h108v-115h-108zM230 -180v87h66c29 0 38 13 38 49v525h97v-535c0 -88 -47 -126 -124 -126h-77zM329 578v115h108v-115h-108z" />
    <glyph glyph-name="imacron" unicode="&#x12b;" horiz-adv-x="253" 
d="M78 0v481h97v-481h-97zM72 578v115h108v-115h-108z" />
    <glyph glyph-name="iogonek" unicode="&#x12f;" horiz-adv-x="253" 
d="M78 0v481h97v-481h-97zM72 578v115h108v-115h-108z" />
    <glyph glyph-name="itilde" unicode="&#x129;" horiz-adv-x="253" 
d="M78 0v481h97v-481h-97zM72 578v115h108v-115h-108z" />
    <glyph glyph-name="jcircumflex" unicode="&#x135;" horiz-adv-x="262" 
d="M-17 -180v87h66c29 0 38 13 38 49v525h97v-535c0 -88 -47 -126 -124 -126h-77zM82 578v115h108v-115h-108z" />
    <glyph glyph-name="uni0237" unicode="&#x237;" horiz-adv-x="262" 
d="M-17 -180v87h66c29 0 38 13 38 49v525h97v-535c0 -88 -47 -126 -124 -126h-77zM82 578v115h108v-115h-108z" />
    <glyph glyph-name="uni0137" unicode="&#x137;" horiz-adv-x="523" 
d="M390 0l-164 216h-51v-216h-97v700h97v-394h51l162 175h119l-196 -218l196 -263h-117z" />
    <glyph glyph-name="kgreenlandic" unicode="&#x138;" horiz-adv-x="523" 
d="M390 0l-164 216h-51v-216h-97v700h97v-394h51l162 175h119l-196 -218l196 -263h-117z" />
    <glyph glyph-name="lacute" unicode="&#x13a;" horiz-adv-x="292" 
d="M175 0c-68 0 -97 26 -97 91v609h97v-579c0 -25 9 -36 34 -36h61v-85h-95z" />
    <glyph glyph-name="lcaron" unicode="&#x13e;" horiz-adv-x="292" 
d="M175 0c-68 0 -97 26 -97 91v609h97v-579c0 -25 9 -36 34 -36h61v-85h-95z" />
    <glyph glyph-name="uni013C" unicode="&#x13c;" horiz-adv-x="292" 
d="M175 0c-68 0 -97 26 -97 91v609h97v-579c0 -25 9 -36 34 -36h61v-85h-95z" />
    <glyph glyph-name="ldot" unicode="&#x140;" horiz-adv-x="292" 
d="M175 0c-68 0 -97 26 -97 91v609h97v-579c0 -25 9 -36 34 -36h61v-85h-95z" />
    <glyph glyph-name="lslash" unicode="&#x142;" horiz-adv-x="292" 
d="M175 0c-68 0 -97 26 -97 91v609h97v-579c0 -25 9 -36 34 -36h61v-85h-95z" />
    <glyph glyph-name="nacute" unicode="&#x144;" 
d="M78 0v481h86v-63c29 52 87 77 152 77c118 0 192 -72 192 -205v-290h-97v281c0 86 -42 126 -113 126c-74 0 -123 -51 -123 -129v-278h-97z" />
    <glyph glyph-name="napostrophe" unicode="&#x149;" 
d="M78 0v481h86v-63c29 52 87 77 152 77c118 0 192 -72 192 -205v-290h-97v281c0 86 -42 126 -113 126c-74 0 -123 -51 -123 -129v-278h-97z" />
    <glyph glyph-name="ncaron" unicode="&#x148;" 
d="M78 0v481h86v-63c29 52 87 77 152 77c118 0 192 -72 192 -205v-290h-97v281c0 86 -42 126 -113 126c-74 0 -123 -51 -123 -129v-278h-97z" />
    <glyph glyph-name="uni0146" unicode="&#x146;" 
d="M78 0v481h86v-63c29 52 87 77 152 77c118 0 192 -72 192 -205v-290h-97v281c0 86 -42 126 -113 126c-74 0 -123 -51 -123 -129v-278h-97z" />
    <glyph glyph-name="ntilde" unicode="&#xf1;" 
d="M78 0v481h86v-63c29 52 87 77 152 77c118 0 192 -72 192 -205v-290h-97v281c0 86 -42 126 -113 126c-74 0 -123 -51 -123 -129v-278h-97z" />
    <glyph glyph-name="eng" unicode="&#x14b;" 
d="M78 0v481h86v-63c29 52 87 77 152 77c118 0 192 -72 192 -205v-290h-97v281c0 86 -42 126 -113 126c-74 0 -123 -51 -123 -129v-278h-97z" />
    <glyph glyph-name="oacute" unicode="&#xf3;" horiz-adv-x="586" 
d="M293 -14c-146 0 -248 102 -248 255c0 152 102 254 248 254c147 0 248 -102 248 -254c0 -153 -101 -255 -248 -255zM145 241c0 -100 60 -167 148 -167c89 0 148 67 148 167c0 99 -59 166 -148 166c-88 0 -148 -67 -148 -166z" />
    <glyph glyph-name="obreve" unicode="&#x14f;" horiz-adv-x="586" 
d="M293 -14c-146 0 -248 102 -248 255c0 152 102 254 248 254c147 0 248 -102 248 -254c0 -153 -101 -255 -248 -255zM145 241c0 -100 60 -167 148 -167c89 0 148 67 148 167c0 99 -59 166 -148 166c-88 0 -148 -67 -148 -166z" />
    <glyph glyph-name="ocircumflex" unicode="&#xf4;" horiz-adv-x="586" 
d="M293 -14c-146 0 -248 102 -248 255c0 152 102 254 248 254c147 0 248 -102 248 -254c0 -153 -101 -255 -248 -255zM145 241c0 -100 60 -167 148 -167c89 0 148 67 148 167c0 99 -59 166 -148 166c-88 0 -148 -67 -148 -166z" />
    <glyph glyph-name="odieresis" unicode="&#xf6;" horiz-adv-x="586" 
d="M293 -14c-146 0 -248 102 -248 255c0 152 102 254 248 254c147 0 248 -102 248 -254c0 -153 -101 -255 -248 -255zM145 241c0 -100 60 -167 148 -167c89 0 148 67 148 167c0 99 -59 166 -148 166c-88 0 -148 -67 -148 -166z" />
    <glyph glyph-name="oe" unicode="&#x153;" horiz-adv-x="1136" 
d="M293 -14c-146 0 -248 102 -248 255c0 152 102 254 248 254c147 0 248 -102 248 -254c0 -153 -101 -255 -248 -255zM145 241c0 -100 60 -167 148 -167c89 0 148 67 148 167c0 99 -59 166 -148 166c-88 0 -148 -67 -148 -166zM632 243c0 155 96 252 233 252
c143 0 231 -93 231 -240c0 -13 -1 -26 -3 -46h-365c4 -88 58 -141 144 -141c57 0 97 26 116 69h99c-30 -93 -104 -151 -215 -151c-144 0 -240 101 -240 257zM728 285h270v5c0 74 -48 127 -133 127c-81 0 -133 -54 -137 -132z" />
    <glyph glyph-name="ograve" unicode="&#xf2;" horiz-adv-x="586" 
d="M293 -14c-146 0 -248 102 -248 255c0 152 102 254 248 254c147 0 248 -102 248 -254c0 -153 -101 -255 -248 -255zM145 241c0 -100 60 -167 148 -167c89 0 148 67 148 167c0 99 -59 166 -148 166c-88 0 -148 -67 -148 -166z" />
    <glyph glyph-name="ohungarumlaut" unicode="&#x151;" horiz-adv-x="586" 
d="M293 -14c-146 0 -248 102 -248 255c0 152 102 254 248 254c147 0 248 -102 248 -254c0 -153 -101 -255 -248 -255zM145 241c0 -100 60 -167 148 -167c89 0 148 67 148 167c0 99 -59 166 -148 166c-88 0 -148 -67 -148 -166z" />
    <glyph glyph-name="omacron" unicode="&#x14d;" horiz-adv-x="586" 
d="M293 -14c-146 0 -248 102 -248 255c0 152 102 254 248 254c147 0 248 -102 248 -254c0 -153 -101 -255 -248 -255zM145 241c0 -100 60 -167 148 -167c89 0 148 67 148 167c0 99 -59 166 -148 166c-88 0 -148 -67 -148 -166z" />
    <glyph glyph-name="oslash" unicode="&#xf8;" horiz-adv-x="586" 
d="M293 -14c-146 0 -248 102 -248 255c0 152 102 254 248 254c147 0 248 -102 248 -254c0 -153 -101 -255 -248 -255zM145 241c0 -100 60 -167 148 -167c89 0 148 67 148 167c0 99 -59 166 -148 166c-88 0 -148 -67 -148 -166z" />
    <glyph glyph-name="oslashacute" unicode="&#x1ff;" horiz-adv-x="586" 
d="M293 -14c-146 0 -248 102 -248 255c0 152 102 254 248 254c147 0 248 -102 248 -254c0 -153 -101 -255 -248 -255zM145 241c0 -100 60 -167 148 -167c89 0 148 67 148 167c0 99 -59 166 -148 166c-88 0 -148 -67 -148 -166z" />
    <glyph glyph-name="otilde" unicode="&#xf5;" horiz-adv-x="586" 
d="M293 -14c-146 0 -248 102 -248 255c0 152 102 254 248 254c147 0 248 -102 248 -254c0 -153 -101 -255 -248 -255zM145 241c0 -100 60 -167 148 -167c89 0 148 67 148 167c0 99 -59 166 -148 166c-88 0 -148 -67 -148 -166z" />
    <glyph glyph-name="racute" unicode="&#x155;" horiz-adv-x="376" 
d="M78 0v481h86v-78c12 48 48 78 105 78h92v-85h-101c-60 0 -85 -34 -85 -99v-297h-97z" />
    <glyph glyph-name="rcaron" unicode="&#x159;" horiz-adv-x="376" 
d="M78 0v481h86v-78c12 48 48 78 105 78h92v-85h-101c-60 0 -85 -34 -85 -99v-297h-97z" />
    <glyph glyph-name="uni0157" unicode="&#x157;" horiz-adv-x="376" 
d="M78 0v481h86v-78c12 48 48 78 105 78h92v-85h-101c-60 0 -85 -34 -85 -99v-297h-97z" />
    <glyph glyph-name="sacute" unicode="&#x15b;" horiz-adv-x="485" 
d="M245 -14c-130 0 -207 52 -212 151h100c5 -48 44 -72 114 -72c64 0 103 27 103 71c0 36 -27 57 -77 62l-77 8c-90 9 -147 59 -147 139c0 92 77 150 195 150c120 0 194 -50 200 -148h-97c-3 46 -41 69 -104 69c-60 0 -98 -25 -98 -66c0 -35 26 -54 82 -61l78 -9
c91 -10 143 -61 143 -140c0 -94 -79 -154 -203 -154z" />
    <glyph glyph-name="scaron" unicode="&#x161;" horiz-adv-x="485" 
d="M245 -14c-130 0 -207 52 -212 151h100c5 -48 44 -72 114 -72c64 0 103 27 103 71c0 36 -27 57 -77 62l-77 8c-90 9 -147 59 -147 139c0 92 77 150 195 150c120 0 194 -50 200 -148h-97c-3 46 -41 69 -104 69c-60 0 -98 -25 -98 -66c0 -35 26 -54 82 -61l78 -9
c91 -10 143 -61 143 -140c0 -94 -79 -154 -203 -154z" />
    <glyph glyph-name="scedilla" unicode="&#x15f;" horiz-adv-x="485" 
d="M245 -14c-130 0 -207 52 -212 151h100c5 -48 44 -72 114 -72c64 0 103 27 103 71c0 36 -27 57 -77 62l-77 8c-90 9 -147 59 -147 139c0 92 77 150 195 150c120 0 194 -50 200 -148h-97c-3 46 -41 69 -104 69c-60 0 -98 -25 -98 -66c0 -35 26 -54 82 -61l78 -9
c91 -10 143 -61 143 -140c0 -94 -79 -154 -203 -154z" />
    <glyph glyph-name="scircumflex" unicode="&#x15d;" horiz-adv-x="485" 
d="M245 -14c-130 0 -207 52 -212 151h100c5 -48 44 -72 114 -72c64 0 103 27 103 71c0 36 -27 57 -77 62l-77 8c-90 9 -147 59 -147 139c0 92 77 150 195 150c120 0 194 -50 200 -148h-97c-3 46 -41 69 -104 69c-60 0 -98 -25 -98 -66c0 -35 26 -54 82 -61l78 -9
c91 -10 143 -61 143 -140c0 -94 -79 -154 -203 -154z" />
    <glyph glyph-name="uni0219" unicode="&#x219;" horiz-adv-x="485" 
d="M245 -14c-130 0 -207 52 -212 151h100c5 -48 44 -72 114 -72c64 0 103 27 103 71c0 36 -27 57 -77 62l-77 8c-90 9 -147 59 -147 139c0 92 77 150 195 150c120 0 194 -50 200 -148h-97c-3 46 -41 69 -104 69c-60 0 -98 -25 -98 -66c0 -35 26 -54 82 -61l78 -9
c91 -10 143 -61 143 -140c0 -94 -79 -154 -203 -154z" />
    <glyph glyph-name="tbar" unicode="&#x167;" horiz-adv-x="409" 
d="M253 0c-83 0 -119 33 -119 116v280h-126v85h126v144h97v-144h151v-85h-151v-261c0 -35 14 -50 51 -50h100v-85h-129z" />
    <glyph glyph-name="tcaron" unicode="&#x165;" horiz-adv-x="409" 
d="M253 0c-83 0 -119 33 -119 116v280h-126v85h126v144h97v-144h151v-85h-151v-261c0 -35 14 -50 51 -50h100v-85h-129z" />
    <glyph glyph-name="uni0163" unicode="&#x163;" horiz-adv-x="409" 
d="M253 0c-83 0 -119 33 -119 116v280h-126v85h126v144h97v-144h151v-85h-151v-261c0 -35 14 -50 51 -50h100v-85h-129z" />
    <glyph glyph-name="uni021B" unicode="&#x21b;" horiz-adv-x="409" 
d="M253 0c-83 0 -119 33 -119 116v280h-126v85h126v144h97v-144h151v-85h-151v-261c0 -35 14 -50 51 -50h100v-85h-129z" />
    <glyph glyph-name="thorn" unicode="&#xfe;" horiz-adv-x="607" 
d="M78 -180v661h86v-68c31 52 92 82 167 82c137 0 231 -102 231 -254c0 -153 -94 -255 -231 -255c-69 0 -125 26 -156 73v-239h-97zM173 241c0 -100 57 -167 144 -167s145 67 145 167c0 99 -58 166 -145 166s-144 -67 -144 -166z" />
    <glyph glyph-name="uacute" unicode="&#xfa;" horiz-adv-x="563" 
d="M255 -14c-117 0 -189 72 -189 205v290h97v-281c0 -86 40 -126 110 -126c73 0 120 52 120 129v278h97v-481h-86v55c-32 -47 -87 -69 -149 -69z" />
    <glyph glyph-name="ubreve" unicode="&#x16d;" horiz-adv-x="563" 
d="M255 -14c-117 0 -189 72 -189 205v290h97v-281c0 -86 40 -126 110 -126c73 0 120 52 120 129v278h97v-481h-86v55c-32 -47 -87 -69 -149 -69z" />
    <glyph glyph-name="ucircumflex" unicode="&#xfb;" horiz-adv-x="563" 
d="M255 -14c-117 0 -189 72 -189 205v290h97v-281c0 -86 40 -126 110 -126c73 0 120 52 120 129v278h97v-481h-86v55c-32 -47 -87 -69 -149 -69z" />
    <glyph glyph-name="udieresis" unicode="&#xfc;" horiz-adv-x="563" 
d="M255 -14c-117 0 -189 72 -189 205v290h97v-281c0 -86 40 -126 110 -126c73 0 120 52 120 129v278h97v-481h-86v55c-32 -47 -87 -69 -149 -69z" />
    <glyph glyph-name="ugrave" unicode="&#xf9;" horiz-adv-x="563" 
d="M255 -14c-117 0 -189 72 -189 205v290h97v-281c0 -86 40 -126 110 -126c73 0 120 52 120 129v278h97v-481h-86v55c-32 -47 -87 -69 -149 -69z" />
    <glyph glyph-name="uhungarumlaut" unicode="&#x171;" horiz-adv-x="563" 
d="M255 -14c-117 0 -189 72 -189 205v290h97v-281c0 -86 40 -126 110 -126c73 0 120 52 120 129v278h97v-481h-86v55c-32 -47 -87 -69 -149 -69z" />
    <glyph glyph-name="umacron" unicode="&#x16b;" horiz-adv-x="563" 
d="M255 -14c-117 0 -189 72 -189 205v290h97v-281c0 -86 40 -126 110 -126c73 0 120 52 120 129v278h97v-481h-86v55c-32 -47 -87 -69 -149 -69z" />
    <glyph glyph-name="uogonek" unicode="&#x173;" horiz-adv-x="563" 
d="M255 -14c-117 0 -189 72 -189 205v290h97v-281c0 -86 40 -126 110 -126c73 0 120 52 120 129v278h97v-481h-86v55c-32 -47 -87 -69 -149 -69z" />
    <glyph glyph-name="uring" unicode="&#x16f;" horiz-adv-x="563" 
d="M255 -14c-117 0 -189 72 -189 205v290h97v-281c0 -86 40 -126 110 -126c73 0 120 52 120 129v278h97v-481h-86v55c-32 -47 -87 -69 -149 -69z" />
    <glyph glyph-name="utilde" unicode="&#x169;" horiz-adv-x="563" 
d="M255 -14c-117 0 -189 72 -189 205v290h97v-281c0 -86 40 -126 110 -126c73 0 120 52 120 129v278h97v-481h-86v55c-32 -47 -87 -69 -149 -69z" />
    <glyph glyph-name="wacute" unicode="&#x1e83;" horiz-adv-x="782" 
d="M169 0l-149 481h101l107 -373l107 373h111l107 -373l107 373h101l-149 -481h-114l-107 371l-108 -371h-114z" />
    <glyph glyph-name="wcircumflex" unicode="&#x175;" horiz-adv-x="782" 
d="M169 0l-149 481h101l107 -373l107 373h111l107 -373l107 373h101l-149 -481h-114l-107 371l-108 -371h-114z" />
    <glyph glyph-name="wdieresis" unicode="&#x1e85;" horiz-adv-x="782" 
d="M169 0l-149 481h101l107 -373l107 373h111l107 -373l107 373h101l-149 -481h-114l-107 371l-108 -371h-114z" />
    <glyph glyph-name="wgrave" unicode="&#x1e81;" horiz-adv-x="782" 
d="M169 0l-149 481h101l107 -373l107 373h111l107 -373l107 373h101l-149 -481h-114l-107 371l-108 -371h-114z" />
    <glyph glyph-name="yacute" unicode="&#xfd;" horiz-adv-x="530" 
d="M28 -180v87h86c33 0 48 10 59 35l42 91l-202 448h111l142 -339l142 339h109l-264 -587c-22 -50 -50 -74 -117 -74h-108z" />
    <glyph glyph-name="ycircumflex" unicode="&#x177;" horiz-adv-x="530" 
d="M28 -180v87h86c33 0 48 10 59 35l42 91l-202 448h111l142 -339l142 339h109l-264 -587c-22 -50 -50 -74 -117 -74h-108z" />
    <glyph glyph-name="ydieresis" unicode="&#xff;" horiz-adv-x="530" 
d="M28 -180v87h86c33 0 48 10 59 35l42 91l-202 448h111l142 -339l142 339h109l-264 -587c-22 -50 -50 -74 -117 -74h-108z" />
    <glyph glyph-name="ygrave" unicode="&#x1ef3;" horiz-adv-x="530" 
d="M28 -180v87h86c33 0 48 10 59 35l42 91l-202 448h111l142 -339l142 339h109l-264 -587c-22 -50 -50 -74 -117 -74h-108z" />
    <glyph glyph-name="zacute" unicode="&#x17a;" horiz-adv-x="501" 
d="M45 0v85l277 311h-272v85h398v-85l-278 -311h288v-85h-413z" />
    <glyph glyph-name="zcaron" unicode="&#x17e;" horiz-adv-x="501" 
d="M45 0v85l277 311h-272v85h398v-85l-278 -311h288v-85h-413z" />
    <glyph glyph-name="zdotaccent" unicode="&#x17c;" horiz-adv-x="501" 
d="M45 0v85l277 311h-272v85h398v-85l-278 -311h288v-85h-413z" />
    <glyph glyph-name="ordfeminine" unicode="&#xaa;" horiz-adv-x="531" 
d="M217 -14c-111 0 -181 58 -181 150c0 86 58 148 176 155l146 8v27c0 63 -31 89 -97 89c-64 0 -96 -17 -104 -68h-97c11 99 79 148 208 148c115 0 182 -58 182 -164v-235c0 -11 5 -16 16 -16h41v-80h-78c-33 0 -52 18 -52 50v14c-28 -49 -85 -78 -160 -78zM133 139
c0 -44 36 -73 95 -73c78 0 130 45 130 127v31l-134 -10c-62 -4 -91 -36 -91 -75z" />
    <glyph glyph-name="ordmasculine" unicode="&#xba;" horiz-adv-x="586" 
d="M293 -14c-146 0 -248 102 -248 255c0 152 102 254 248 254c147 0 248 -102 248 -254c0 -153 -101 -255 -248 -255zM145 241c0 -100 60 -167 148 -167c89 0 148 67 148 167c0 99 -59 166 -148 166c-88 0 -148 -67 -148 -166z" />
    <glyph glyph-name="comma" unicode="," horiz-adv-x="276" 
d="M78 -124v60h47c10 0 13 3 13 10v54h-60v137h120v-194c0 -47 -23 -67 -61 -67h-59z" />
    <glyph glyph-name="period" unicode="." horiz-adv-x="276" 
d="M78 0v137h120v-137h-120z" />
    <glyph glyph-name="hyphen" unicode="-" horiz-adv-x="415" 
d="M55 214v93h304v-93h-304z" />
    <glyph glyph-name="zero" unicode="0" horiz-adv-x="668" 
d="M334 -14c-190 0 -281 129 -281 364s91 364 281 364s281 -129 281 -364s-91 -364 -281 -364zM154 350c0 -183 56 -278 180 -278c123 0 179 95 179 278s-56 278 -179 278c-124 0 -180 -95 -180 -278z" />
    <glyph glyph-name="one" unicode="1" horiz-adv-x="520" 
d="M34 0v91h183v516h-127v93h224v-609h180v-91h-460z" />
    <glyph glyph-name="two" unicode="2" horiz-adv-x="572" 
d="M46 123c0 129 60 189 172 221l98 28c77 22 113 59 113 122c0 69 -49 115 -124 115h-225v91h225c133 0 225 -81 225 -206c0 -101 -68 -170 -166 -200l-120 -36c-69 -21 -97 -55 -97 -118v-49h377v-91h-478v123z" />
    <glyph glyph-name="three" unicode="3" horiz-adv-x="573" 
d="M42 0v91h220c100 0 158 47 158 125c0 72 -56 117 -153 117h-105v81l203 195h-333v91h461v-91l-211 -197h13c138 0 226 -78 226 -195c0 -131 -104 -217 -259 -217h-220z" />
    <glyph glyph-name="four" unicode="4" horiz-adv-x="631" 
d="M402 0v208h-375v88l337 404h135v-404h115v-88h-115v-208h-97zM135 296h267v320z" />
    <glyph glyph-name="five" unicode="5" horiz-adv-x="559" 
d="M50 0v91h220c86 0 145 52 145 129c0 76 -54 128 -145 128h-203v352h418v-91h-321v-173h117c142 0 235 -85 235 -212c0 -133 -98 -224 -246 -224h-220z" />
    <glyph glyph-name="six" unicode="6" horiz-adv-x="613" 
d="M320 -14c-157 0 -267 107 -267 323c0 240 93 391 328 391h134v-91h-134c-162 0 -221 -82 -229 -236c31 49 95 84 183 84c141 0 240 -98 240 -233c0 -137 -104 -238 -255 -238zM161 221c0 -87 64 -147 156 -147s157 60 157 147s-65 147 -157 147s-156 -59 -156 -147z" />
    <glyph glyph-name="seven" unicode="7" horiz-adv-x="566" 
d="M190 161c0 157 25 260 144 374l77 74h-377v91h508v-91l-123 -116c-94 -91 -128 -168 -128 -327v-166h-101v161z" />
    <glyph glyph-name="eight" unicode="8" horiz-adv-x="637" 
d="M318 -14c-169 0 -266 88 -266 212c0 81 51 149 129 174c-70 24 -109 86 -109 153c0 111 97 189 246 189c150 0 247 -78 247 -189c0 -67 -39 -129 -109 -153c78 -25 129 -93 129 -174c0 -124 -97 -212 -267 -212zM152 201c0 -76 59 -131 166 -131c108 0 167 55 167 131
c0 77 -63 128 -167 128c-103 0 -166 -51 -166 -128zM172 519c0 -65 56 -108 146 -108s147 43 147 108s-54 111 -147 111c-92 0 -146 -46 -146 -111z" />
    <glyph glyph-name="nine" unicode="9" horiz-adv-x="613" 
d="M293 714c157 0 267 -107 267 -323c0 -240 -93 -391 -328 -391h-134v91h134c162 0 221 82 229 236c-31 -49 -95 -84 -183 -84c-141 0 -240 98 -240 233c0 137 104 238 255 238zM139 479c0 -87 65 -147 157 -147s156 59 156 147c0 87 -64 147 -156 147s-157 -60 -157 -147z
" />
    </font>
</defs>
</svg>
