<svg width="61" height="48" viewBox="0 0 61 48" fill="none" xmlns="http://www.w3.org/2000/svg">
<path d="M59.359 19.4183L46.735 6.7943C45.8989 5.95822 44.4694 6.55036 44.4694 7.73276L44.4694 11.9106C44.4694 12.8492 44.8422 13.7494 45.506 14.4132L53.2099 22.1172C54.2465 23.1538 54.2465 24.8344 53.2099 25.871L45.506 33.575C44.8422 34.2387 44.4694 35.1389 44.4694 36.0776V40.2554C44.4694 41.4378 45.8989 42.03 46.735 41.1939L59.359 28.5699C60.0228 27.9061 60.3956 27.0059 60.3956 26.0673V21.9209C60.3956 20.9822 60.0228 20.082 59.359 19.4183Z" fill="black"/>
<path d="M1.0366 28.5817L13.6606 41.2057C14.4967 42.0418 15.9263 41.4496 15.9263 40.2672V36.0894C15.9263 35.1508 15.5534 34.2506 14.8897 33.5868L7.18569 25.8828C6.14909 24.8462 6.14909 23.1656 7.18569 22.129L14.8897 14.425C15.5534 13.7613 15.9263 12.8611 15.9263 11.9224V7.7446C15.9263 6.5622 14.4967 5.97005 13.6606 6.80613L1.0366 19.4301C0.372876 20.0939 4.44549e-07 20.9941 3.6249e-07 21.9327L0 26.0791C-8.20586e-08 27.0178 0.372875 27.918 1.0366 28.5817Z" fill="black"/>
<path d="M33.6966 1.83948C34.0503 0.743093 35.0708 0 36.2228 0H39.1593C40.3599 0 41.212 1.17021 40.8434 2.31285L26.699 46.1605C26.3454 47.2569 25.3248 48 24.1728 48H21.2363C20.0357 48 19.1836 46.8298 19.5522 45.6871L33.6966 1.83948Z" fill="black"/>
</svg>
