<svg width="36" height="48" viewBox="0 0 36 48" fill="none" xmlns="http://www.w3.org/2000/svg">
<path d="M35.9059 19.2969C36.655 14.2532 32.8426 11.5419 27.6297 9.73314L29.3207 2.90087L25.192 1.86442L23.5457 8.51665C22.4603 8.24421 21.3455 7.98717 20.2378 7.7325L21.8959 1.03645L17.7695 0L16.0773 6.8299C15.1789 6.6238 14.297 6.42006 13.4409 6.20566L13.4456 6.18434L7.75174 4.75226L6.65342 9.19419C6.65342 9.19419 9.71673 9.90134 9.65205 9.94517C11.3242 10.3657 11.6264 11.4803 11.5759 12.3639L9.6497 20.1474C9.6497 20.1474 7.58239 28.4971 6.9427 31.0804C6.73809 31.5921 6.21951 32.3597 5.05063 32.0683C5.09179 32.1287 2.04965 31.3138 2.04965 31.3138L0 36.0743L5.37283 37.4235C6.37238 37.6758 7.35193 37.9399 8.31619 38.1887L6.60756 45.0991L10.7316 46.1356L12.4237 39.2986C13.5503 39.6065 14.6439 39.8908 15.714 40.1585L14.0277 46.9636L18.1564 48L19.865 41.1026C26.9053 42.4446 32.1994 41.9033 34.4278 35.4892C36.2234 30.3247 34.3384 27.3457 30.6342 25.4031C33.3318 24.7764 35.3638 22.989 35.9059 19.2969ZM26.4726 32.6215C25.1967 37.7859 16.5642 34.9941 13.7655 34.294L16.0327 25.1389C18.8314 25.8425 27.8061 27.2355 26.4726 32.6215ZM27.7496 19.2223C26.5855 23.92 19.4005 21.5333 17.0698 20.9481L19.1254 12.6447C21.4561 13.2298 28.962 14.3219 27.7496 19.2223Z" fill="black"/>
</svg>
