<svg width="46" height="31" viewBox="0 0 46 31" fill="none" xmlns="http://www.w3.org/2000/svg">
<path fill-rule="evenodd" clip-rule="evenodd" d="M18.2208 25.0228L16.5995 23.3604C16.4419 23.1994 16.2224 23.1016 15.9972 23.1016H13.6835C13.4583 23.1016 13.2388 23.1936 13.0755 23.3604L11.4486 25.0228C11.2854 25.1896 11.1953 25.4082 11.1953 25.644V28.0772C11.1953 28.3073 11.2854 28.5316 11.4486 28.6984L13.0755 30.3608C13.2388 30.5276 13.4527 30.6197 13.6835 30.6197H15.9747C16.2055 30.6197 16.4307 30.5276 16.5939 30.3551L18.2095 28.7042C18.3728 28.5374 18.4629 28.313 18.4629 28.0772V25.6555C18.4629 25.4197 18.3728 25.2011 18.2095 25.0343L18.2208 25.0228ZM15.9972 27.2431C15.9972 27.3179 15.969 27.3927 15.9184 27.4445L15.4061 27.9679C15.3554 28.0197 15.2823 28.0542 15.2091 28.0542H14.4773C14.4041 28.0542 14.3365 28.0254 14.2859 27.9737L13.7679 27.4445C13.7173 27.3927 13.6891 27.3237 13.6891 27.2489V26.4723C13.6891 26.3976 13.7173 26.3285 13.7679 26.2768L14.2859 25.7476C14.3365 25.6958 14.4041 25.667 14.4773 25.667H15.2147C15.2879 25.667 15.3554 25.6958 15.4061 25.7476L15.924 26.2768C15.9747 26.3285 16.0028 26.4033 16.0028 26.4723V27.2431H15.9972Z" fill="#E20000"/>
<path fill-rule="evenodd" clip-rule="evenodd" d="M38.9864 25.0228L37.3652 23.3604C37.2075 23.1994 36.988 23.1016 36.7628 23.1016H34.4491C34.224 23.1016 34.0044 23.1936 33.8412 23.3604L32.2143 25.0228C32.051 25.1896 31.9609 25.4082 31.9609 25.644V28.0772C31.9609 28.3073 32.051 28.5316 32.2143 28.6984L33.8412 30.3608C34.0044 30.5276 34.2183 30.6197 34.4491 30.6197H36.7403C36.9711 30.6197 37.1963 30.5276 37.3595 30.3551L38.9752 28.7042C39.1384 28.5374 39.2285 28.313 39.2285 28.0772V25.6555C39.2285 25.4197 39.1384 25.2011 38.9752 25.0343L38.9864 25.0228ZM36.7572 27.2431C36.7572 27.3179 36.729 27.3927 36.6784 27.4445L36.1661 27.9679C36.1154 28.0197 36.0423 28.0542 35.9691 28.0542H35.2372C35.1641 28.0542 35.0965 28.0254 35.0458 27.9737L34.5279 27.4445C34.4773 27.3927 34.4491 27.3237 34.4491 27.2489V26.4723C34.4491 26.3976 34.4773 26.3285 34.5279 26.2768L35.0458 25.7476C35.0965 25.6958 35.1641 25.667 35.2372 25.667H35.9747C36.0479 25.667 36.1154 25.6958 36.1661 25.7476L36.684 26.2768C36.7347 26.3285 36.7628 26.4033 36.7628 26.4723V27.2431H36.7572Z" fill="#E20000"/>
<path fill-rule="evenodd" clip-rule="evenodd" d="M44.3991 0.744009L44.1289 0.646222C43.8812 0.554187 43.611 0.577196 43.3745 0.697992L42.1923 1.31923C41.9615 1.44002 41.7927 1.6471 41.7138 1.9002L37.1597 17.178C37.109 17.3506 37.002 17.5001 36.8613 17.6094L36.3659 17.9833C36.2252 18.0926 36.0507 18.1501 35.8762 18.1501H15.3063C15.1318 18.1501 14.9629 18.0926 14.8222 17.9891L14.3268 17.6209C14.1861 17.5174 14.0791 17.3678 14.0285 17.201L9.73886 3.63736C9.66005 3.38426 9.50243 3.15993 9.28851 3.00462L8.02752 2.06701C7.81361 1.9117 7.56028 1.82542 7.30133 1.82542H1.74511C1.45238 1.82542 1.17092 1.94046 0.962627 2.15329L0.320876 2.80904C0.112588 3.02187 0 3.30948 0 3.6086V3.84444C0 4.14355 0.118217 4.43116 0.320876 4.64399L0.962627 5.29974C1.17092 5.51257 1.45238 5.62761 1.74511 5.62761H5.69132C5.86583 5.62761 6.03472 5.68514 6.17545 5.78868L6.27678 5.86345C6.41751 5.96699 6.52447 6.11655 6.57514 6.28912L11.0843 20.7041C11.1575 20.9342 11.2982 21.1298 11.484 21.2736L12.1032 21.7337C12.2946 21.8775 12.5198 21.9523 12.7562 21.9523H38.2292C38.5445 21.9523 39.0061 21.797 39.2594 21.6014C39.4283 21.4749 39.5859 21.3541 39.7604 21.2218L39.9293 21.0952C39.9744 21.0607 40.0138 20.9975 40.0363 20.9399L45.3617 3.05639C45.418 2.86657 45.418 2.67099 45.3617 2.48117C45.266 2.17055 45.1027 1.68737 44.9676 1.31923C44.8719 1.05463 44.658 0.847549 44.3991 0.749761V0.744009Z" fill="#E20000"/>
</svg>
