<svg width="46" height="30" viewBox="0 0 46 30" fill="none" xmlns="http://www.w3.org/2000/svg">
<path fill-rule="evenodd" clip-rule="evenodd" d="M18.2208 23.9115L16.5995 22.2846C16.4419 22.127 16.2224 22.0312 15.9972 22.0312H13.6835C13.4583 22.0312 13.2388 22.1213 13.0755 22.2846L11.4486 23.9115C11.2854 24.0747 11.1953 24.2886 11.1953 24.5194V26.9007C11.1953 27.1259 11.2854 27.3454 11.4486 27.5087L13.0755 29.1356C13.2388 29.2988 13.4527 29.3889 13.6835 29.3889H15.9747C16.2055 29.3889 16.4307 29.2988 16.5939 29.1299L18.2095 27.5143C18.3728 27.351 18.4629 27.1315 18.4629 26.9007V24.5307C18.4629 24.2999 18.3728 24.086 18.2095 23.9227L18.2208 23.9115ZM15.9972 26.0844C15.9972 26.1576 15.969 26.2308 15.9184 26.2814L15.4061 26.7937C15.3554 26.8444 15.2823 26.8782 15.2091 26.8782H14.4773C14.4041 26.8782 14.3365 26.85 14.2859 26.7994L13.7679 26.2814C13.7173 26.2308 13.6891 26.1632 13.6891 26.09V25.3301C13.6891 25.2569 13.7173 25.1893 13.7679 25.1387L14.2859 24.6208C14.3365 24.5701 14.4041 24.542 14.4773 24.542H15.2147C15.2879 24.542 15.3554 24.5701 15.4061 24.6208L15.924 25.1387C15.9747 25.1893 16.0028 25.2625 16.0028 25.3301V26.0844H15.9972Z" fill="black"/>
<path fill-rule="evenodd" clip-rule="evenodd" d="M38.9864 23.9115L37.3652 22.2846C37.2075 22.127 36.988 22.0312 36.7628 22.0312H34.4491C34.224 22.0312 34.0044 22.1213 33.8412 22.2846L32.2143 23.9115C32.051 24.0747 31.9609 24.2886 31.9609 24.5194V26.9007C31.9609 27.1259 32.051 27.3454 32.2143 27.5087L33.8412 29.1356C34.0044 29.2988 34.2183 29.3889 34.4491 29.3889H36.7403C36.9711 29.3889 37.1963 29.2988 37.3595 29.1299L38.9752 27.5143C39.1384 27.351 39.2285 27.1315 39.2285 26.9007V24.5307C39.2285 24.2999 39.1384 24.086 38.9752 23.9227L38.9864 23.9115ZM36.7572 26.0844C36.7572 26.1576 36.729 26.2308 36.6784 26.2814L36.1661 26.7937C36.1154 26.8444 36.0423 26.8782 35.9691 26.8782H35.2372C35.1641 26.8782 35.0965 26.85 35.0458 26.7994L34.5279 26.2814C34.4773 26.2308 34.4491 26.1632 34.4491 26.09V25.3301C34.4491 25.2569 34.4773 25.1893 34.5279 25.1387L35.0458 24.6208C35.0965 24.5701 35.1641 24.542 35.2372 24.542H35.9747C36.0479 24.542 36.1154 24.5701 36.1661 24.6208L36.684 25.1387C36.7347 25.1893 36.7628 25.2625 36.7628 25.3301V26.0844H36.7572Z" fill="black"/>
<path fill-rule="evenodd" clip-rule="evenodd" d="M44.3991 0.150875L44.1289 0.0551748C43.8812 -0.0348955 43.611 -0.0123779 43.3745 0.105839L42.1923 0.713814C41.9615 0.832032 41.7927 1.03469 41.7138 1.28238L37.1597 16.2341C37.109 16.403 37.002 16.5493 36.8613 16.6563L36.3659 17.0222C36.2252 17.1291 36.0507 17.1854 35.8762 17.1854H15.3063C15.1318 17.1854 14.9629 17.1291 14.8222 17.0278L14.3268 16.6675C14.1861 16.5662 14.0791 16.4198 14.0285 16.2566L9.73886 2.98246C9.66005 2.73477 9.50243 2.51522 9.28851 2.36323L8.02752 1.44564C7.81361 1.29364 7.56028 1.2092 7.30133 1.2092H1.74511C1.45238 1.2092 1.17092 1.32179 0.962627 1.53008L0.320876 2.17183C0.112588 2.38012 0 2.66159 0 2.95432V3.18512C0 3.47785 0.118217 3.75932 0.320876 3.96761L0.962627 4.60936C1.17092 4.81765 1.45238 4.93023 1.74511 4.93023H5.69132C5.86583 4.93023 6.03472 4.98653 6.17545 5.08786L6.27678 5.16104C6.41751 5.26237 6.52447 5.40873 6.57514 5.57761L11.0843 19.6849C11.1575 19.9101 11.2982 20.1015 11.484 20.2422L12.1032 20.6926C12.2946 20.8333 12.5198 20.9065 12.7562 20.9065H38.2292C38.5445 20.9065 39.0061 20.7545 39.2594 20.5631C39.4283 20.4392 39.5859 20.321 39.7604 20.1915L39.9293 20.0677C39.9744 20.0339 40.0138 19.972 40.0363 19.9157L45.3617 2.41389C45.418 2.22812 45.418 2.03672 45.3617 1.85095C45.266 1.54697 45.1027 1.0741 44.9676 0.713814C44.8719 0.454862 44.658 0.252204 44.3991 0.156504V0.150875Z" fill="black"/>
</svg>
