<svg width="57" height="35" viewBox="0 0 57 35" fill="none" xmlns="http://www.w3.org/2000/svg">
<rect x="1" y="3.35156" width="55" height="27.5" rx="2" stroke="black" stroke-width="2" stroke-linejoin="round"/>
<line x1="5.35156" y1="30.8516" x2="5.35156" y2="34.2052" stroke="black" stroke-width="2"/>
<line x1="8.03906" y1="30.8516" x2="8.03906" y2="34.2052" stroke="black" stroke-width="2"/>
<line x1="10.7188" y1="30.8516" x2="10.7188" y2="34.2052" stroke="black" stroke-width="2"/>
<line x1="13.4062" y1="30.8516" x2="13.4062" y2="34.2052" stroke="black" stroke-width="2"/>
<line x1="5.35156" y1="30.8516" x2="5.35156" y2="34.2052" stroke="black" stroke-width="2"/>
<line x1="16.0859" y1="30.8516" x2="16.0859" y2="34.2052" stroke="black" stroke-width="2"/>
<line x1="24.1328" y1="30.8516" x2="24.1328" y2="34.2052" stroke="black" stroke-width="2"/>
<line x1="34.8672" y1="30.8516" x2="34.8672" y2="34.2052" stroke="black" stroke-width="2"/>
<line x1="45.5938" y1="30.8516" x2="45.5938" y2="34.2052" stroke="black" stroke-width="2"/>
<line x1="8.03906" y1="30.8516" x2="8.03906" y2="34.2052" stroke="black" stroke-width="2"/>
<line x1="18.7656" y1="30.8516" x2="18.7656" y2="34.2052" stroke="black" stroke-width="2"/>
<line x1="26.8203" y1="30.8516" x2="26.8203" y2="34.2052" stroke="black" stroke-width="2"/>
<line x1="37.5469" y1="30.8516" x2="37.5469" y2="34.2052" stroke="black" stroke-width="2"/>
<line x1="48.2812" y1="30.8516" x2="48.2812" y2="34.2052" stroke="black" stroke-width="2"/>
<line x1="10.7188" y1="30.8516" x2="10.7188" y2="34.2052" stroke="black" stroke-width="2"/>
<line x1="21.4531" y1="30.8516" x2="21.4531" y2="34.2052" stroke="black" stroke-width="2"/>
<line x1="29.5" y1="30.8516" x2="29.5" y2="34.2052" stroke="black" stroke-width="2"/>
<line x1="40.2344" y1="30.8516" x2="40.2344" y2="34.2052" stroke="black" stroke-width="2"/>
<line x1="50.9609" y1="30.8516" x2="50.9609" y2="34.2052" stroke="black" stroke-width="2"/>
<line x1="13.4062" y1="30.8516" x2="13.4062" y2="34.2052" stroke="black" stroke-width="2"/>
<line x1="24.1328" y1="30.8516" x2="24.1328" y2="34.2052" stroke="black" stroke-width="2"/>
<line x1="32.1797" y1="30.8516" x2="32.1797" y2="34.2052" stroke="black" stroke-width="2"/>
<line x1="42.9141" y1="30.8516" x2="42.9141" y2="34.2052" stroke="black" stroke-width="2"/>
<line x1="5.35156" x2="5.35156" y2="3.35366" stroke="black" stroke-width="2"/>
<line x1="8.03906" x2="8.03906" y2="3.35366" stroke="black" stroke-width="2"/>
<line x1="10.7188" x2="10.7188" y2="3.35366" stroke="black" stroke-width="2"/>
<line x1="13.4062" x2="13.4062" y2="3.35366" stroke="black" stroke-width="2"/>
<line x1="5.35156" x2="5.35156" y2="3.35366" stroke="black" stroke-width="2"/>
<line x1="16.0859" x2="16.0859" y2="3.35366" stroke="black" stroke-width="2"/>
<line x1="24.1328" x2="24.1328" y2="3.35366" stroke="black" stroke-width="2"/>
<line x1="34.8672" x2="34.8672" y2="3.35366" stroke="black" stroke-width="2"/>
<line x1="45.5938" x2="45.5938" y2="3.35366" stroke="black" stroke-width="2"/>
<line x1="8.03906" x2="8.03906" y2="3.35366" stroke="black" stroke-width="2"/>
<line x1="18.7656" x2="18.7656" y2="3.35366" stroke="black" stroke-width="2"/>
<line x1="26.8203" x2="26.8203" y2="3.35366" stroke="black" stroke-width="2"/>
<line x1="37.5469" x2="37.5469" y2="3.35366" stroke="black" stroke-width="2"/>
<line x1="48.2812" x2="48.2812" y2="3.35366" stroke="black" stroke-width="2"/>
<line x1="10.7188" x2="10.7188" y2="3.35366" stroke="black" stroke-width="2"/>
<line x1="21.4531" x2="21.4531" y2="3.35366" stroke="black" stroke-width="2"/>
<line x1="29.5" x2="29.5" y2="3.35366" stroke="black" stroke-width="2"/>
<line x1="40.2344" x2="40.2344" y2="3.35366" stroke="black" stroke-width="2"/>
<line x1="50.9609" x2="50.9609" y2="3.35366" stroke="black" stroke-width="2"/>
<line x1="13.4062" x2="13.4062" y2="3.35366" stroke="black" stroke-width="2"/>
<line x1="24.1328" x2="24.1328" y2="3.35366" stroke="black" stroke-width="2"/>
<line x1="32.1797" x2="32.1797" y2="3.35366" stroke="black" stroke-width="2"/>
<line x1="42.9141" x2="42.9141" y2="3.35366" stroke="black" stroke-width="2"/>
<path d="M28.5001 16.5C2.50006 42.4808 2.50006 -9.48075 28.5001 16.5ZM28.5001 16.5C54.5001 42.4808 54.5001 -9.48076 28.5001 16.5Z" stroke="black" stroke-width="4"/>
</svg>
