<svg width="56" height="56" viewBox="0 0 56 56" fill="none" xmlns="http://www.w3.org/2000/svg">
<path d="M23.333 18.9045L23.333 6.68553C23.333 5.87627 22.3546 5.47099 21.7823 6.04322L19.7604 8.06512C19.3062 8.51939 19.051 9.1355 19.051 9.77793L19.051 17.2348C19.051 18.2381 18.2376 19.0515 17.2343 19.0515L9.77745 19.0515C9.13502 19.0515 8.5189 19.3067 8.06463 19.7609L6.04273 21.7828C5.4705 22.3551 5.87578 23.3335 6.68504 23.3335L18.904 23.3335C19.5465 23.3335 20.1626 23.0783 20.6169 22.624L22.6235 20.6173C23.0778 20.1631 23.333 19.547 23.333 18.9045Z" fill="black"/>
<rect x="17.5936" y="14.4897" width="4.38954" height="20.4915" rx="2.19477" transform="rotate(135 17.5936 14.4897)" fill="black"/>
<path d="M32.6663 37.0955L32.6663 49.3145C32.6663 50.1237 33.6447 50.529 34.217 49.9568L36.2389 47.9349C36.6931 47.4806 36.9483 46.8645 36.9483 46.2221L36.9484 38.7652C36.9484 37.7619 37.7617 36.9485 38.7651 36.9485L46.2219 36.9485C46.8643 36.9485 47.4804 36.6933 47.9347 36.2391L49.9566 34.2172C50.5288 33.6449 50.1235 32.6665 49.3143 32.6665L37.0953 32.6665C36.4529 32.6665 35.8367 32.9217 35.3825 33.376L33.3758 35.3827C32.9215 35.8369 32.6663 36.453 32.6663 37.0955Z" fill="black"/>
<rect x="38.4057" y="41.5103" width="4.38954" height="20.4915" rx="2.19477" transform="rotate(-45 38.4057 41.5103)" fill="black"/>
<path d="M37.0949 23.3335L49.3139 23.3335C50.1231 23.3335 50.5284 22.3551 49.9562 21.7828L47.9343 19.7609C47.48 19.3067 46.8639 19.0515 46.2215 19.0515L38.7646 19.0515C37.7613 19.0515 36.9479 18.2381 36.9479 17.2348L36.9479 9.77794C36.9479 9.13551 36.6927 8.51939 36.2385 8.06512L34.2166 6.04322C33.6443 5.47099 32.6659 5.87627 32.6659 6.68553L32.6659 18.9045C32.6659 19.547 32.9211 20.1631 33.3754 20.6173L35.382 22.624C35.8363 23.0783 36.4524 23.3335 37.0949 23.3335Z" fill="black"/>
<rect x="41.5096" y="17.5942" width="4.38954" height="20.4915" rx="2.19477" transform="rotate(-135 41.5096 17.5942)" fill="black"/>
<path d="M18.9045 32.6665L6.68546 32.6665C5.87621 32.6665 5.47093 33.6449 6.04316 34.2172L8.06506 36.2391C8.51933 36.6933 9.13544 36.9485 9.77787 36.9485L17.2347 36.9485C18.238 36.9485 19.0514 37.7619 19.0514 38.7652L19.0514 46.2221C19.0514 46.8645 19.3066 47.4806 19.7609 47.9349L21.7828 49.9568C22.355 50.529 23.3334 50.1237 23.3334 49.3145L23.3334 37.0955C23.3334 36.453 23.0782 35.8369 22.624 35.3827L20.6173 33.376C20.163 32.9217 19.5469 32.6665 18.9045 32.6665Z" fill="black"/>
<rect x="14.4897" y="38.4062" width="4.38954" height="20.4915" rx="2.19477" transform="rotate(45 14.4897 38.4062)" fill="black"/>
</svg>
