<svg width="88" height="48" viewBox="0 0 88 48" fill="none" xmlns="http://www.w3.org/2000/svg">
<path fill-rule="evenodd" clip-rule="evenodd" d="M5.99072 16.2688C6.49975 15.7568 6.78571 15.0625 6.78571 14.3384V5.68051C6.78571 4.9565 7.07168 4.26215 7.58071 3.75021L10.5145 0.799557C11.0236 0.287609 11.7139 0 12.4338 0H25.5662C26.2861 0 26.9764 0.287608 27.4855 0.799556L30.4193 3.75021C30.9283 4.26215 31.2143 4.9565 31.2143 5.68051V14.3384C31.2143 15.0625 31.5003 15.7568 32.0093 16.2688L37.205 21.4943C37.714 22.0062 38 22.7006 38 23.4246V42.3195C38 43.0435 37.714 43.7378 37.205 44.2498L34.2712 47.2004C33.7622 47.7124 33.0718 48 32.3519 48H5.6481C4.92823 48 4.23784 47.7124 3.72881 47.2004L0.794996 44.2498C0.285969 43.7378 0 43.0435 0 42.3195V23.4246C0 22.7006 0.285969 22.0062 0.794996 21.4943L5.99072 16.2688ZM13.5714 8.18957C13.5714 7.43574 14.179 6.82464 14.9286 6.82464H23.0714C23.821 6.82464 24.4286 7.43574 24.4286 8.18957V16.3791C24.4286 17.133 23.821 17.7441 23.0714 17.7441H14.9286C14.179 17.7441 13.5714 17.133 13.5714 16.3791V8.18957ZM31.2143 25.9336C31.2143 25.1798 30.6067 24.5687 29.8571 24.5687H8.14286C7.39333 24.5687 6.78571 25.1798 6.78571 25.9336V39.8104C6.78571 40.5643 7.39333 41.1754 8.14286 41.1754H29.8571C30.6067 41.1754 31.2143 40.5643 31.2143 39.8104V25.9336Z" fill="black"/>
<path fill-rule="evenodd" clip-rule="evenodd" d="M55.9907 16.2688C56.4997 15.7568 56.7857 15.0625 56.7857 14.3384V5.68051C56.7857 4.9565 57.0717 4.26215 57.5807 3.75021L60.5145 0.799557C61.0236 0.287609 61.7139 0 62.4338 0H75.5662C76.2861 0 76.9764 0.287608 77.4855 0.799556L80.4193 3.75021C80.9283 4.26215 81.2143 4.9565 81.2143 5.68051V14.3384C81.2143 15.0625 81.5003 15.7568 82.0093 16.2688L87.205 21.4943C87.714 22.0062 88 22.7006 88 23.4246V42.3195C88 43.0435 87.714 43.7378 87.205 44.2498L84.2712 47.2004C83.7622 47.7124 83.0718 48 82.3519 48H55.6481C54.9282 48 54.2378 47.7124 53.7288 47.2004L50.795 44.2498C50.286 43.7378 50 43.0435 50 42.3195V23.4246C50 22.7006 50.286 22.0062 50.795 21.4943L55.9907 16.2688ZM63.5714 8.18957C63.5714 7.43574 64.179 6.82464 64.9286 6.82464H73.0714C73.821 6.82464 74.4286 7.43574 74.4286 8.18957V16.3791C74.4286 17.133 73.821 17.7441 73.0714 17.7441H64.9286C64.179 17.7441 63.5714 17.133 63.5714 16.3791V8.18957ZM81.2143 25.9336C81.2143 25.1798 80.6067 24.5687 79.8571 24.5687H58.1429C57.3933 24.5687 56.7857 25.1798 56.7857 25.9336V39.8104C56.7857 40.5643 57.3933 41.1754 58.1429 41.1754H79.8571C80.6067 41.1754 81.2143 40.5643 81.2143 39.8104V25.9336Z" fill="black"/>
</svg>
