<svg width="36" height="50" viewBox="0 0 36 50" fill="none" xmlns="http://www.w3.org/2000/svg">
<path d="M0 1.97368C0 0.883649 0.863451 0 1.92857 0H8.35714C9.42226 0 10.2857 0.883649 10.2857 1.97368V8.55263C10.2857 9.64267 9.42226 10.5263 8.35714 10.5263H1.92857C0.863451 10.5263 0 9.64267 0 8.55263V1.97368Z" fill="black"/>
<path d="M0 15.1316C0 14.0415 0.863451 13.1579 1.92857 13.1579H8.35714C9.42226 13.1579 10.2857 14.0415 10.2857 15.1316V21.7105C10.2857 22.8006 9.42226 23.6842 8.35714 23.6842H1.92857C0.863451 23.6842 0 22.8006 0 21.7105V15.1316Z" fill="black"/>
<path d="M0 28.2895C0 27.1994 0.863451 26.3158 1.92857 26.3158H8.35714C9.42226 26.3158 10.2857 27.1994 10.2857 28.2895V34.8684C10.2857 35.9585 9.42226 36.8421 8.35714 36.8421H1.92857C0.863451 36.8421 0 35.9585 0 34.8684V28.2895Z" fill="black"/>
<path d="M12.8571 1.97368C12.8571 0.883649 13.7206 0 14.7857 0H21.2143C22.2794 0 23.1429 0.883649 23.1429 1.97368V8.55263C23.1429 9.64267 22.2794 10.5263 21.2143 10.5263H14.7857C13.7206 10.5263 12.8571 9.64267 12.8571 8.55263V1.97368Z" fill="black"/>
<path d="M12.8571 15.1316C12.8571 14.0415 13.7206 13.1579 14.7857 13.1579H21.2143C22.2794 13.1579 23.1429 14.0415 23.1429 15.1316V21.7105C23.1429 22.8006 22.2794 23.6842 21.2143 23.6842H14.7857C13.7206 23.6842 12.8571 22.8006 12.8571 21.7105V15.1316Z" fill="black"/>
<path d="M12.8571 28.2895C12.8571 27.1994 13.7206 26.3158 14.7857 26.3158H21.2143C22.2794 26.3158 23.1429 27.1994 23.1429 28.2895V34.8684C23.1429 35.9585 22.2794 36.8421 21.2143 36.8421H14.7857C13.7206 36.8421 12.8571 35.9585 12.8571 34.8684V28.2895Z" fill="black"/>
<path d="M12.8571 41.4474C12.8571 40.3573 13.7206 39.4737 14.7857 39.4737H21.2143C22.2794 39.4737 23.1429 40.3573 23.1429 41.4474V48.0263C23.1429 49.1164 22.2794 50 21.2143 50H14.7857C13.7206 50 12.8571 49.1164 12.8571 48.0263V41.4474Z" fill="black"/>
<path d="M25.7143 1.97368C25.7143 0.883649 26.5777 0 27.6429 0H34.0714C35.1365 0 36 0.883649 36 1.97368V8.55263C36 9.64267 35.1365 10.5263 34.0714 10.5263H27.6429C26.5777 10.5263 25.7143 9.64267 25.7143 8.55263V1.97368Z" fill="black"/>
<path d="M25.7143 15.1316C25.7143 14.0415 26.5777 13.1579 27.6429 13.1579H34.0714C35.1365 13.1579 36 14.0415 36 15.1316V21.7105C36 22.8006 35.1365 23.6842 34.0714 23.6842H27.6429C26.5777 23.6842 25.7143 22.8006 25.7143 21.7105V15.1316Z" fill="black"/>
<path d="M25.7143 28.2895C25.7143 27.1994 26.5777 26.3158 27.6429 26.3158H34.0714C35.1365 26.3158 36 27.1994 36 28.2895V34.8684C36 35.9585 35.1365 36.8421 34.0714 36.8421H27.6429C26.5777 36.8421 25.7143 35.9585 25.7143 34.8684V28.2895Z" fill="black"/>
</svg>
