<svg width="27" height="51" viewBox="0 0 27 51" fill="none" xmlns="http://www.w3.org/2000/svg">
<path fill-rule="evenodd" clip-rule="evenodd" d="M5 8C2.23858 8 0 10.2386 0 13V46C0 48.7614 2.23858 51 5 51H22C24.7614 51 27 48.7614 27 46V13C27 10.2386 24.7614 8 22 8H5ZM21 14H6V45H21V14Z" fill="black"/>
<path d="M7 3.31818V6H20V3.31818C20 2.09889 19.2756 1.21511 18.5397 0.723428C17.7995 0.22883 16.8964 0 16 0H11.0714C10.1776 0 9.2749 0.227169 8.53339 0.699041C7.81649 1.15525 7 2.03229 7 3.31818Z" fill="black"/>
<path d="M16.6995 22.6142C16.7819 22.3653 16.6482 22.1572 16.4822 22.0641C16.3256 21.9763 16.0846 21.9605 15.9125 22.1342L8.47132 30.2482L8.10229 30.6208C7.96843 30.7568 7.9914 30.9329 8.02951 31.0292C8.05057 31.0824 8.08396 31.1358 8.13052 31.1794C8.175 31.2211 8.25174 31.2716 8.35498 31.2716L8.57821 31.2718L12.3001 31.1352L10.1295 36.7895L10.1258 36.8007C10.0435 37.0495 10.1771 37.2577 10.3431 37.3507C10.4998 37.4386 10.7407 37.4543 10.9128 37.2806L18.354 29.1666L18.723 28.794C18.7718 28.7444 18.8128 28.677 18.8231 28.5927C18.8332 28.5112 18.811 28.4425 18.7874 28.395C18.7499 28.3193 18.6857 28.2551 18.6547 28.224L18.648 28.2173L18.5746 28.1432L18.2471 28.1431L14.5252 28.2796L16.6958 22.6253L16.6995 22.6142Z" fill="black"/>
</svg>
