<svg width="65" height="33" viewBox="0 0 65 33" fill="none" xmlns="http://www.w3.org/2000/svg">
<path d="M5 28V5H15.8163C21.1698 5 24.4839 7.66143 24.4839 12.0314C24.4839 16.4014 21.1698 19.0957 15.8163 19.0957H9.47948V28H5ZM9.47948 15.3171H15.6342C18.3656 15.3171 19.9316 14.0686 19.9316 12.0314C19.9316 9.99429 18.3656 8.77857 15.6342 8.77857H9.47948V15.3171Z" fill="black"/>
<path d="M28.793 28V5H33.2725V28H28.793Z" fill="black"/>
<path d="M39.5692 28V5H44.9591L55.5205 21.6257V5H60V28H54.6101L44.0487 11.4071V28H39.5692Z" fill="black"/>
<rect x="2.5" y="2.5" width="60" height="28" stroke="black" stroke-width="5"/>
</svg>
