<svg width="78" height="72" viewBox="0 0 78 72" fill="none" xmlns="http://www.w3.org/2000/svg">
<path d="M40.1824 11H44.9441V13.3807H42.5634V15.7616H37.8008V22.9053H33.0391V20.5238H35.4198V13.3805H40.1824V11Z" fill="black"/>
<path d="M14 11V27.6671H30.6673V11H14ZM28.2856 25.2854H16.3809V13.3808H28.2856V25.2854Z" fill="black"/>
<path d="M47.3359 11V27.6671H64.0024V11H47.3359ZM61.6207 25.2854H49.7168V13.3808H61.6215V25.2854H61.6207Z" fill="black"/>
<path d="M18.7656 15.7617H25.9086V22.9046H18.7656V15.7617Z" fill="black"/>
<path d="M52.0938 15.7617H59.2368V22.9046H52.0938V15.7617Z" fill="black"/>
<path d="M40.1953 18.1445H42.5761V20.5252H40.1953V18.1445Z" fill="black"/>
<path d="M42.5749 20.5234H44.9557V30.0472H42.5749V25.2847H40.194V27.6663H37.8125V22.9047H42.5751L42.5749 20.5234Z" fill="black"/>
<path d="M33.0518 25.2852H35.4325V27.6668H37.8134V30.0475H35.4325V34.8092H37.8134V32.4283H40.1949V30.0476H42.5758V37.1905H37.8133V39.5714H35.4324V37.1905H33.0516V32.428H28.2891V30.0473H33.0516L33.0518 25.2852Z" fill="black"/>
<path d="M18.7656 30.0469H23.5274V32.4284H18.7656V30.0469Z" fill="black"/>
<path d="M44.9531 30.0469H49.7157V32.4276H47.3348V34.8085H44.9532L44.9531 30.0469Z" fill="black"/>
<path d="M52.0938 30.0469H54.4753V32.4284H52.0938V30.0469Z" fill="black"/>
<path d="M14 32.4297H18.7617V34.8106H21.1433V37.1921H18.7617V39.5729H16.3808V34.8104H14.0001L14 32.4297Z" fill="black"/>
<path d="M23.5234 32.4297H28.2848V34.8106H25.904V37.1921H28.2848V39.5729H23.5234V32.4297Z" fill="black"/>
<path d="M54.4725 32.4297H56.8542V34.8106H59.235V41.9535H56.8542V39.5728H52.0908V41.9535H49.7109V37.1918H54.4722L54.4725 32.4297Z" fill="black"/>
<path d="M28.2891 34.8086H30.6698V37.1901H28.2891V34.8086Z" fill="black"/>
<path d="M61.6172 34.8086H63.9987V37.1901H61.6172V34.8086Z" fill="black"/>
<path d="M30.6709 37.1914H33.0516V41.9531H28.2891V39.5724H30.6708L30.6709 37.1914Z" fill="black"/>
<path d="M42.5703 37.1914H44.9518V39.5721H42.5703V37.1914Z" fill="black"/>
<path d="M14 39.5703H16.3807V41.9518H14V39.5703Z" fill="black"/>
<path d="M18.7656 39.5703H21.1464V41.9518H18.7656V39.5703Z" fill="black"/>
<path d="M37.8006 39.5703H42.5631V41.951H40.1822V46.7135H37.8007V51.4748H35.4198V46.7135H33.0391V41.951H35.4198V44.3317H37.8007L37.8006 39.5703Z" fill="black"/>
<path d="M44.9531 39.5703H47.3347V41.9518H44.9531V39.5703Z" fill="black"/>
<path d="M61.6172 39.5703H63.9987V41.9518H61.6172V39.5703Z" fill="black"/>
<path d="M42.5703 41.9531H44.9518V46.7148H42.5703V41.9531Z" fill="black"/>
<path d="M54.4766 41.9531H56.8581V46.7148H54.4766V41.9531Z" fill="black"/>
<path d="M59.2344 41.9531H61.6151V44.3338H59.2344V41.9531Z" fill="black"/>
<path d="M49.7159 44.332H52.0958V46.7137H54.4774V51.4749H61.62V53.8558H52.0961V58.6175H49.7162V53.8558H47.3353V56.2373H44.9537V58.6173H47.3353V60.9988H35.4297V58.6173H42.5731V53.8557H44.9539V46.7136H49.7164L49.7159 44.332Z" fill="black"/>
<path d="M14 44.332V60.9991H30.6673V44.332H14ZM28.2856 58.6174H16.3809V46.7137H28.2856V58.6174Z" fill="black"/>
<path d="M40.1953 46.7148H42.5761V49.0955H40.1953V46.7148Z" fill="black"/>
<path d="M56.8594 46.7148H61.6203V49.0955H56.8594V46.7148Z" fill="black"/>
<path d="M18.7656 49.0938H25.9086V56.2367H18.7656V49.0938Z" fill="black"/>
<path d="M61.6172 49.0938H63.9987V51.4752H61.6172V49.0938Z" fill="black"/>
<path d="M33.0391 51.4766H35.4199V53.8574H37.8008V56.2389H33.0391L33.0391 51.4766Z" fill="black"/>
<path d="M37.8125 51.4766H42.5742V53.8573H37.8125V51.4766Z" fill="black"/>
<path d="M56.8594 56.2383H59.2401V58.619H56.8594V56.2383Z" fill="black"/>
<path d="M61.6172 56.2383H63.9987V58.619H61.6172V56.2383Z" fill="black"/>
<path d="M52.0938 58.6172H54.4753V60.9987H52.0938V58.6172Z" fill="black"/>
<path d="M2 31L2 0" stroke="black" stroke-width="4"/>
<path d="M47 2L78 2" stroke="black" stroke-width="4"/>
<path d="M31 70L0 70" stroke="black" stroke-width="4"/>
<path d="M31 1.99999L1 2" stroke="black" stroke-width="4"/>
<path d="M47 70L77 70" stroke="black" stroke-width="4"/>
<path d="M76 31L76 1" stroke="black" stroke-width="4"/>
<path d="M2 42L1.99999 71" stroke="black" stroke-width="4"/>
<path d="M76 42L76 72" stroke="black" stroke-width="4"/>
</svg>
