<svg width="58" height="22" viewBox="0 0 58 22" fill="none" xmlns="http://www.w3.org/2000/svg">
<path fill-rule="evenodd" clip-rule="evenodd" d="M46.6522 3.66667H11.3478C7.16967 3.66667 3.78261 6.94991 3.78261 11C3.78261 15.0501 7.16967 18.3333 11.3478 18.3333H46.6522C50.8303 18.3333 54.2174 15.0501 54.2174 11C54.2174 6.94991 50.8303 3.66667 46.6522 3.66667ZM11.3478 0C5.0806 0 0 4.92487 0 11C0 17.0751 5.0806 22 11.3478 22H46.6522C52.9194 22 58 17.0751 58 11C58 4.92487 52.9194 0 46.6522 0H11.3478Z" fill="black"/>
<path d="M7.56522 11C7.56522 8.97496 9.25875 7.33333 11.3478 7.33333H46.6522C48.7413 7.33333 50.4348 8.97496 50.4348 11C50.4348 13.025 48.7413 14.6667 46.6522 14.6667H11.3478C9.25875 14.6667 7.56522 13.025 7.56522 11Z" fill="black"/>
</svg>
