<svg width="82" height="40" viewBox="0 0 82 40" fill="none" xmlns="http://www.w3.org/2000/svg">
<path d="M31.3838 14.0187H22.6418C21.7245 14.0187 20.9808 14.8137 20.9808 15.7944V24.2056C20.9808 25.1863 21.7245 25.9813 22.6418 25.9813H31.3838C32.3011 25.9813 33.0448 25.1863 33.0448 24.2056V15.7944C33.0448 14.8137 32.3011 14.0187 31.3838 14.0187Z" fill="black"/>
<path d="M31.3838 14.0187H22.6418C21.7245 14.0187 20.9808 14.8137 20.9808 15.7944V24.2056C20.9808 25.1863 21.7245 25.9813 22.6418 25.9813H31.3838C32.3011 25.9813 33.0448 25.1863 33.0448 24.2056V15.7944C33.0448 14.8137 32.3011 14.0187 31.3838 14.0187Z" fill="black"/>
<path d="M24.3902 28.0374H15.6482C14.7309 28.0374 13.9872 28.8324 13.9872 29.8131V38.2243C13.9872 39.205 14.7309 40 15.6482 40H24.3902C25.3075 40 26.0512 39.205 26.0512 38.2243V29.8131C26.0512 28.8324 25.3075 28.0374 24.3902 28.0374Z" fill="black"/>
<path d="M24.3902 28.0374H15.6482C14.7309 28.0374 13.9872 28.8324 13.9872 29.8131V38.2243C13.9872 39.205 14.7309 40 15.6482 40H24.3902C25.3075 40 26.0512 39.205 26.0512 38.2243V29.8131C26.0512 28.8324 25.3075 28.0374 24.3902 28.0374Z" fill="black"/>
<path d="M17.3966 14.0187H8.65458C7.73725 14.0187 6.9936 14.8137 6.9936 15.7944V24.2056C6.9936 25.1863 7.73725 25.9813 8.65458 25.9813H17.3966C18.3139 25.9813 19.0576 25.1863 19.0576 24.2056V15.7944C19.0576 14.8137 18.3139 14.0187 17.3966 14.0187Z" fill="black"/>
<path d="M17.3966 14.0187H8.65458C7.73725 14.0187 6.9936 14.8137 6.9936 15.7944V24.2056C6.9936 25.1863 7.73725 25.9813 8.65458 25.9813H17.3966C18.3139 25.9813 19.0576 25.1863 19.0576 24.2056V15.7944C19.0576 14.8137 18.3139 14.0187 17.3966 14.0187Z" fill="black"/>
<path d="M45.371 14.0187H36.629C35.7117 14.0187 34.968 14.8137 34.968 15.7944V24.2056C34.968 25.1863 35.7117 25.9813 36.629 25.9813H45.371C46.2883 25.9813 47.032 25.1863 47.032 24.2056V15.7944C47.032 14.8137 46.2883 14.0187 45.371 14.0187Z" fill="black"/>
<path d="M45.371 14.0187H36.629C35.7117 14.0187 34.968 14.8137 34.968 15.7944V24.2056C34.968 25.1863 35.7117 25.9813 36.629 25.9813H45.371C46.2883 25.9813 47.032 25.1863 47.032 24.2056V15.7944C47.032 14.8137 46.2883 14.0187 45.371 14.0187Z" fill="black"/>
<path d="M38.3774 28.0374H29.6354C28.7181 28.0374 27.9744 28.8324 27.9744 29.8131V38.2243C27.9744 39.205 28.7181 40 29.6354 40H38.3774C39.2947 40 40.0384 39.205 40.0384 38.2243V29.8131C40.0384 28.8324 39.2947 28.0374 38.3774 28.0374Z" fill="black"/>
<path d="M38.3774 28.0374H29.6354C28.7181 28.0374 27.9744 28.8324 27.9744 29.8131V38.2243C27.9744 39.205 28.7181 40 29.6354 40H38.3774C39.2947 40 40.0384 39.205 40.0384 38.2243V29.8131C40.0384 28.8324 39.2947 28.0374 38.3774 28.0374Z" fill="black"/>
<path d="M59.3582 14.0187H50.6162C49.6989 14.0187 48.9552 14.8137 48.9552 15.7944V24.2056C48.9552 25.1863 49.6989 25.9813 50.6162 25.9813H59.3582C60.2755 25.9813 61.0192 25.1863 61.0192 24.2056V15.7944C61.0192 14.8137 60.2755 14.0187 59.3582 14.0187Z" fill="black"/>
<path d="M59.3582 14.0187H50.6162C49.6989 14.0187 48.9552 14.8137 48.9552 15.7944V24.2056C48.9552 25.1863 49.6989 25.9813 50.6162 25.9813H59.3582C60.2755 25.9813 61.0192 25.1863 61.0192 24.2056V15.7944C61.0192 14.8137 60.2755 14.0187 59.3582 14.0187Z" fill="black"/>
<path d="M52.3646 28.0374H43.6226C42.7053 28.0374 41.9616 28.8324 41.9616 29.8131V38.2243C41.9616 39.205 42.7053 40 43.6226 40H52.3646C53.2819 40 54.0256 39.205 54.0256 38.2243V29.8131C54.0256 28.8324 53.2819 28.0374 52.3646 28.0374Z" fill="black"/>
<path d="M52.3646 28.0374H43.6226C42.7053 28.0374 41.9616 28.8324 41.9616 29.8131V38.2243C41.9616 39.205 42.7053 40 43.6226 40H52.3646C53.2819 40 54.0256 39.205 54.0256 38.2243V29.8131C54.0256 28.8324 53.2819 28.0374 52.3646 28.0374Z" fill="black"/>
<path d="M73.3454 14.0187H64.6034C63.6861 14.0187 62.9424 14.8137 62.9424 15.7944V24.2056C62.9424 25.1863 63.6861 25.9813 64.6034 25.9813H73.3454C74.2627 25.9813 75.0064 25.1863 75.0064 24.2056V15.7944C75.0064 14.8137 74.2627 14.0187 73.3454 14.0187Z" fill="black"/>
<path d="M73.3454 14.0187H64.6034C63.6861 14.0187 62.9424 14.8137 62.9424 15.7944V24.2056C62.9424 25.1863 63.6861 25.9813 64.6034 25.9813H73.3454C74.2627 25.9813 75.0064 25.1863 75.0064 24.2056V15.7944C75.0064 14.8137 74.2627 14.0187 73.3454 14.0187Z" fill="black"/>
<path d="M66.3518 28.0374H57.6098C56.6925 28.0374 55.9488 28.8324 55.9488 29.8131V38.2243C55.9488 39.205 56.6925 40 57.6098 40H66.3518C67.2691 40 68.0128 39.205 68.0128 38.2243V29.8131C68.0128 28.8324 67.2691 28.0374 66.3518 28.0374Z" fill="black"/>
<path d="M66.3518 28.0374H57.6098C56.6925 28.0374 55.9488 28.8324 55.9488 29.8131V38.2243C55.9488 39.205 56.6925 40 57.6098 40H66.3518C67.2691 40 68.0128 39.205 68.0128 38.2243V29.8131C68.0128 28.8324 67.2691 28.0374 66.3518 28.0374Z" fill="black"/>
<path d="M7.1597 5.88785C7.1597 7.21495 6.57399 7.81308 5.78721 7.81308C5.00043 7.81308 4.41471 7.21495 4.41471 5.88785C4.41471 4.56075 5.00043 4 5.78721 4C6.57399 4 7.1597 4.58878 7.1597 5.88785Z" fill="black"/>
<path d="M10.403 0H1.66098C0.74307 0 0 0.794392 0 1.7757V10.1869C0 11.1682 0.74307 11.9626 1.66098 11.9626H10.403C11.3209 11.9626 12.064 11.1682 12.064 10.1869V1.7757C12.064 0.794392 11.3209 0 10.403 0ZM8.85565 9.25234H5.78721C4.11748 9.25234 2.92857 8.06542 2.92857 5.88785C2.92857 3.71028 4.11748 2.5514 5.78721 2.5514C7.45693 2.5514 8.64584 3.71963 8.64584 5.79439C8.64584 6.57944 8.39232 7.34579 7.90277 7.8972H8.85565V9.25234Z" fill="black"/>
<path d="M7.1597 5.88785C7.1597 7.21495 6.57399 7.81308 5.78721 7.81308C5.00043 7.81308 4.41471 7.21495 4.41471 5.88785C4.41471 4.56075 5.00043 4 5.78721 4C6.57399 4 7.1597 4.58878 7.1597 5.88785Z" fill="black"/>
<path d="M10.403 0H1.66098C0.74307 0 0 0.794392 0 1.7757V10.1869C0 11.1682 0.74307 11.9626 1.66098 11.9626H10.403C11.3209 11.9626 12.064 11.1682 12.064 10.1869V1.7757C12.064 0.794392 11.3209 0 10.403 0ZM8.85565 9.25234H5.78721C4.11748 9.25234 2.92857 8.06542 2.92857 5.88785C2.92857 3.71028 4.11748 2.5514 5.78721 2.5514C7.45693 2.5514 8.64584 3.71963 8.64584 5.79439C8.64584 6.57944 8.39232 7.34579 7.90277 7.8972H8.85565V9.25234Z" fill="black"/>
<path d="M24.3902 0H15.6482C14.7303 0 13.9872 0.794392 13.9872 1.7757V10.1869C13.9872 11.1682 14.7303 11.9626 15.6482 11.9626H24.3902C25.3081 11.9626 26.0512 11.1682 26.0512 10.1869V1.7757C26.0512 0.794392 25.3081 0 24.3902 0ZM22.4058 9.25234H20.7011L19.8531 4.8785L18.9964 9.25234H17.2917L15.823 2.71028H17.3791L18.2183 7.1028L19.0576 2.71028H20.6399L21.4791 7.08411L22.3183 2.71028H23.8744L22.4058 9.25234Z" fill="black"/>
<path d="M24.3902 0H15.6482C14.7303 0 13.9872 0.794392 13.9872 1.7757V10.1869C13.9872 11.1682 14.7303 11.9626 15.6482 11.9626H24.3902C25.3081 11.9626 26.0512 11.1682 26.0512 10.1869V1.7757C26.0512 0.794392 25.3081 0 24.3902 0ZM22.4058 9.25234H20.7011L19.8531 4.8785L18.9964 9.25234H17.2917L15.823 2.71028H17.3791L18.2183 7.1028L19.0576 2.71028H20.6399L21.4791 7.08411L22.3183 2.71028H23.8744L22.4058 9.25234Z" fill="black"/>
<path d="M38.3774 0H29.6354C28.7175 0 27.9744 0.794392 27.9744 1.7757V10.1869C27.9744 11.1682 28.7175 11.9626 29.6354 11.9626H38.3774C39.2953 11.9626 40.0384 11.1682 40.0384 10.1869V1.7757C40.0384 0.794392 39.2953 0 38.3774 0ZM35.6936 4.15888H33.0885V5.11215H35.6936V6.56075H33.0885V7.80374H35.6936V9.25234H31.6461V2.71028H35.6936V4.15888Z" fill="black"/>
<path d="M38.3774 0H29.6354C28.7175 0 27.9744 0.794392 27.9744 1.7757V10.1869C27.9744 11.1682 28.7175 11.9626 29.6354 11.9626H38.3774C39.2953 11.9626 40.0384 11.1682 40.0384 10.1869V1.7757C40.0384 0.794392 39.2953 0 38.3774 0ZM35.6936 4.15888H33.0885V5.11215H35.6936V6.56075H33.0885V7.80374H35.6936V9.25234H31.6461V2.71028H35.6936V4.15888Z" fill="black"/>
<path d="M48.7192 4.79439C48.7192 5.17757 48.4569 5.42991 48.0023 5.42991H46.6386V4.15888H48.0023C48.4569 4.15888 48.7192 4.41121 48.7192 4.79439Z" fill="black"/>
<path d="M52.3646 0H43.6226C42.7047 0 41.9616 0.794392 41.9616 1.7757V10.1869C41.9616 11.1682 42.7047 11.9626 43.6226 11.9626H52.3646C53.2825 11.9626 54.0256 11.1682 54.0256 10.1869V1.7757C54.0256 0.794392 53.2825 0 52.3646 0ZM48.6055 9.25234L47.0582 6.83178H46.6386V9.25234H45.1962V2.71028H48.0111C49.3136 2.71028 50.1791 3.49533 50.1791 4.79439C50.1791 5.82243 49.6284 6.53271 48.7542 6.78505L50.3539 9.25234H48.6055Z" fill="black"/>
<path d="M48.7192 4.79439C48.7192 5.17757 48.4569 5.42991 48.0023 5.42991H46.6386V4.15888H48.0023C48.4569 4.15888 48.7192 4.41121 48.7192 4.79439Z" fill="black"/>
<path d="M52.3646 0H43.6226C42.7047 0 41.9616 0.794392 41.9616 1.7757V10.1869C41.9616 11.1682 42.7047 11.9626 43.6226 11.9626H52.3646C53.2825 11.9626 54.0256 11.1682 54.0256 10.1869V1.7757C54.0256 0.794392 53.2825 0 52.3646 0ZM48.6055 9.25234L47.0582 6.83178H46.6386V9.25234H45.1962V2.71028H48.0111C49.3136 2.71028 50.1791 3.49533 50.1791 4.79439C50.1791 5.82243 49.6284 6.53271 48.7542 6.78505L50.3539 9.25234H48.6055Z" fill="black"/>
<path d="M66.3518 0H57.6098C56.6919 0 55.9488 0.794392 55.9488 1.7757V10.1869C55.9488 11.1682 56.6919 11.9626 57.6098 11.9626H66.3518C67.2697 11.9626 68.0128 11.1682 68.0128 10.1869V1.7757C68.0128 0.794392 67.2697 0 66.3518 0ZM64.1488 4.15888H62.3217V9.25234H60.8793V4.15888H59.0522V2.71028H64.1488V4.15888Z" fill="black"/>
<path d="M66.3518 0H57.6098C56.6919 0 55.9488 0.794392 55.9488 1.7757V10.1869C55.9488 11.1682 56.6919 11.9626 57.6098 11.9626H66.3518C67.2697 11.9626 68.0128 11.1682 68.0128 10.1869V1.7757C68.0128 0.794392 67.2697 0 66.3518 0ZM64.1488 4.15888H62.3217V9.25234H60.8793V4.15888H59.0522V2.71028H64.1488V4.15888Z" fill="black"/>
<path d="M80.339 0H71.597C70.6791 0 69.936 0.794392 69.936 1.7757V10.1869C69.936 11.1682 70.6791 11.9626 71.597 11.9626H80.339C81.2569 11.9626 82 11.1682 82 10.1869V1.7757C82 0.794392 81.2569 0 80.339 0ZM76.3002 6.58878V9.25234H74.8578V6.58878L72.5149 2.71028H74.2284L75.5834 5.04673L76.9296 2.71028H78.6431L76.3002 6.58878Z" fill="black"/>
<path d="M80.339 0H71.597C70.6791 0 69.936 0.794392 69.936 1.7757V10.1869C69.936 11.1682 70.6791 11.9626 71.597 11.9626H80.339C81.2569 11.9626 82 11.1682 82 10.1869V1.7757C82 0.794392 81.2569 0 80.339 0ZM76.3002 6.58878V9.25234H74.8578V6.58878L72.5149 2.71028H74.2284L75.5834 5.04673L76.9296 2.71028H78.6431L76.3002 6.58878Z" fill="black"/>
</svg>
