<svg width="62" height="49" viewBox="0 0 62 49" fill="none" xmlns="http://www.w3.org/2000/svg">
<path fill-rule="evenodd" clip-rule="evenodd" d="M57.5808 35.326L50.5219 8.5263L46.4759 6.14993L34.3606 9.45237L32.0246 13.5684L39.0835 40.368L43.1295 42.7444L55.2448 39.442L57.5808 35.326ZM40.9199 46.6377C41.9349 47.2339 43.1412 47.3954 44.2733 47.0868L56.3886 43.7844C57.5207 43.4758 58.4859 42.7223 59.072 41.6898L61.4079 37.5738C61.9939 36.5412 62.1528 35.3141 61.8494 34.1624L54.7905 7.36275C54.4872 6.21106 53.7465 5.22913 52.7315 4.63298L48.6855 2.25661C47.6705 1.66045 46.4643 1.4989 45.3321 1.8075L33.2168 5.10994C32.0847 5.41853 31.1195 6.17199 30.5334 7.20456L28.1975 11.3205C27.6115 12.3531 27.4527 13.5802 27.756 14.7319L34.8149 41.5316C35.1182 42.6833 35.8589 43.6652 36.8739 44.2613L40.9199 46.6377Z" fill="black"/>
<path fill-rule="evenodd" clip-rule="evenodd" d="M0.647176 13.3738C1.51008 12.496 2.90912 12.496 3.77202 13.3738C9.81232 19.5186 9.81232 29.4812 3.77202 35.626C2.90912 36.5038 1.51008 36.5038 0.647176 35.626C-0.215725 34.7482 -0.215725 33.325 0.647176 32.4471C4.96168 28.058 4.96168 20.9418 0.647176 16.5527C-0.215725 15.6749 -0.215725 14.2517 0.647176 13.3738Z" fill="black"/>
<path fill-rule="evenodd" clip-rule="evenodd" d="M6.89691 7.01619C7.75981 6.13837 9.15885 6.13837 10.0218 7.01619C19.5137 16.6723 19.5137 32.3278 10.0218 41.9839C9.15885 42.8617 7.75981 42.8617 6.89691 41.9839C6.03401 41.1061 6.03401 39.6829 6.89691 38.805C14.663 30.9046 14.663 18.0955 6.89691 10.1951C6.03401 9.31725 6.03401 7.89401 6.89691 7.01619Z" fill="black"/>
<path fill-rule="evenodd" clip-rule="evenodd" d="M13.1466 0.658369C14.0095 -0.219456 15.4086 -0.219456 16.2715 0.658369C29.215 13.8257 29.215 35.1743 16.2715 48.3416C15.4086 49.2195 14.0095 49.2195 13.1466 48.3416C12.2837 47.4638 12.2837 46.0406 13.1466 45.1628C24.3644 33.751 24.3644 15.249 13.1466 3.83725C12.2837 2.95943 12.2837 1.53619 13.1466 0.658369Z" fill="black"/>
</svg>
