<svg width="100" height="34" viewBox="0 0 100 34" fill="none" xmlns="http://www.w3.org/2000/svg">
<path fill-rule="evenodd" clip-rule="evenodd" d="M14.0673 2.61538H6.85576C6.50894 2.61538 6.17632 2.75316 5.93108 2.9984L2.9984 5.93108C2.75316 6.17632 2.61538 6.50894 2.61538 6.85576V27.1442C2.61538 27.4911 2.75316 27.8237 2.9984 28.0689L5.93108 31.0016C6.17632 31.2468 6.50894 31.3846 6.85576 31.3846H14.0673C14.4141 31.3846 14.7468 31.2468 14.992 31.0016L17.9247 28.0689C18.1699 27.8237 18.3077 27.4911 18.3077 27.1442V6.85576C18.3077 6.50894 18.1699 6.17632 17.9247 5.93108L14.992 2.9984C14.7468 2.75316 14.4141 2.61538 14.0673 2.61538ZM6.85576 0C5.8153 0 4.81745 0.413322 4.08173 1.14904L1.14904 4.08173C0.413323 4.81745 0 5.8153 0 6.85576V27.1442C0 28.1847 0.413322 29.1826 1.14904 29.9183L4.08173 32.851C4.81745 33.5867 5.8153 34 6.85576 34H14.0673C15.1078 34 16.1056 33.5867 16.8413 32.851L19.774 29.9183C20.5098 29.1826 20.9231 28.1847 20.9231 27.1442V6.85576C20.9231 5.8153 20.5098 4.81745 19.774 4.08173L16.8413 1.14904C16.1056 0.413323 15.1078 0 14.0673 0H6.85576Z" fill="black"/>
<path fill-rule="evenodd" clip-rule="evenodd" d="M40.2212 2.61538H33.0096C32.6628 2.61538 32.3302 2.75316 32.0849 2.9984L29.1522 5.93108C28.907 6.17632 28.7692 6.50894 28.7692 6.85576V27.1442C28.7692 27.4911 28.907 27.8237 29.1522 28.0689L32.0849 31.0016C32.3302 31.2468 32.6628 31.3846 33.0096 31.3846H40.2212C40.568 31.3846 40.9006 31.2468 41.1458 31.0016L44.0785 28.0689C44.3238 27.8237 44.4615 27.4911 44.4615 27.1442V6.85576C44.4615 6.50894 44.3238 6.17632 44.0785 5.93108L41.1458 2.9984C40.9006 2.75316 40.568 2.61538 40.2212 2.61538ZM33.0096 0C31.9691 0 30.9713 0.413322 30.2356 1.14904L27.3029 4.08173C26.5672 4.81745 26.1538 5.8153 26.1538 6.85576V27.1442C26.1538 28.1847 26.5672 29.1826 27.3029 29.9183L30.2356 32.851C30.9713 33.5867 31.9691 34 33.0096 34H40.2212C41.2616 34 42.2595 33.5867 42.9952 32.851L45.9279 29.9183C46.6636 29.1826 47.0769 28.1847 47.0769 27.1442V6.85576C47.0769 5.8153 46.6636 4.81745 45.9279 4.08173L42.9952 1.14904C42.2595 0.413323 41.2616 0 40.2212 0H33.0096Z" fill="black"/>
<path fill-rule="evenodd" clip-rule="evenodd" d="M66.375 2.61538H59.1635C58.8166 2.61538 58.484 2.75316 58.2388 2.9984L55.3061 5.93108C55.0608 6.17632 54.9231 6.50894 54.9231 6.85576V27.1442C54.9231 27.4911 55.0609 27.8237 55.3061 28.0689L58.2388 31.0016C58.484 31.2468 58.8166 31.3846 59.1635 31.3846H66.375C66.7218 31.3846 67.0544 31.2468 67.2997 31.0016L70.2324 28.0689C70.4776 27.8237 70.6154 27.4911 70.6154 27.1442V6.85576C70.6154 6.50894 70.4776 6.17632 70.2324 5.93108L67.2997 2.9984C67.0544 2.75316 66.7218 2.61538 66.375 2.61538ZM59.1635 0C58.123 0 57.1251 0.413322 56.3894 1.14904L53.4567 4.08173C52.721 4.81745 52.3077 5.8153 52.3077 6.85576V27.1442C52.3077 28.1847 52.721 29.1826 53.4567 29.9183L56.3894 32.851C57.1251 33.5867 58.123 34 59.1635 34H66.375C67.4155 34 68.4133 33.5867 69.149 32.851L72.0817 29.9183C72.8175 29.1826 73.2308 28.1847 73.2308 27.1442V6.85576C73.2308 5.8153 72.8175 4.81745 72.0817 4.08173L69.149 1.14904C68.4133 0.413323 67.4155 0 66.375 0H59.1635Z" fill="black"/>
<path fill-rule="evenodd" clip-rule="evenodd" d="M92.5289 2.61538H85.3173C84.9705 2.61538 84.6379 2.75316 84.3926 2.9984L81.4599 5.93108C81.2147 6.17632 81.0769 6.50894 81.0769 6.85576V27.1442C81.0769 27.4911 81.2147 27.8237 81.4599 28.0689L84.3926 31.0016C84.6379 31.2468 84.9705 31.3846 85.3173 31.3846H92.5289C92.8757 31.3846 93.2083 31.2468 93.4535 31.0016L96.3862 28.0689C96.6315 27.8237 96.7692 27.4911 96.7692 27.1442V6.85576C96.7692 6.50894 96.6315 6.17632 96.3862 5.93108L93.4535 2.9984C93.2083 2.75316 92.8757 2.61538 92.5289 2.61538ZM85.3173 0C84.2768 0 83.279 0.413322 82.5433 1.14904L79.6106 4.08173C78.8749 4.81745 78.4615 5.8153 78.4615 6.85576V27.1442C78.4615 28.1847 78.8749 29.1826 79.6106 29.9183L82.5433 32.851C83.279 33.5867 84.2768 34 85.3173 34H92.5289C93.5693 34 94.5672 33.5867 95.3029 32.851L98.2356 29.9183C98.9713 29.1826 99.3846 28.1847 99.3846 27.1442V6.85576C99.3846 5.8153 98.9713 4.81745 98.2356 4.08173L95.3029 1.14904C94.5672 0.413323 93.5693 0 92.5289 0H85.3173Z" fill="black"/>
<path d="M9.15385 5.23077C9.15385 5.95299 8.56837 6.53846 7.84615 6.53846C7.12394 6.53846 6.53846 5.95299 6.53846 5.23077C6.53846 4.50855 7.12394 3.92308 7.84615 3.92308C8.56837 3.92308 9.15385 4.50855 9.15385 5.23077Z" fill="black"/>
<path d="M35.3077 5.23077C35.3077 5.95299 34.7222 6.53846 34 6.53846C33.2778 6.53846 32.6923 5.95299 32.6923 5.23077C32.6923 4.50855 33.2778 3.92308 34 3.92308C34.7222 3.92308 35.3077 4.50855 35.3077 5.23077Z" fill="black"/>
<path d="M61.4615 5.23077C61.4615 5.95299 60.8761 6.53846 60.1538 6.53846C59.4316 6.53846 58.8462 5.95299 58.8462 5.23077C58.8462 4.50855 59.4316 3.92308 60.1538 3.92308C60.8761 3.92308 61.4615 4.50855 61.4615 5.23077Z" fill="black"/>
<path d="M87.6154 5.23077C87.6154 5.95299 87.0299 6.53846 86.3077 6.53846C85.5855 6.53846 85 5.95299 85 5.23077C85 4.50855 85.5855 3.92308 86.3077 3.92308C87.0299 3.92308 87.6154 4.50855 87.6154 5.23077Z" fill="black"/>
<path d="M9.15385 13.0769C9.15385 13.7991 8.56837 14.3846 7.84615 14.3846C7.12394 14.3846 6.53846 13.7991 6.53846 13.0769C6.53846 12.3547 7.12394 11.7692 7.84615 11.7692C8.56837 11.7692 9.15385 12.3547 9.15385 13.0769Z" fill="black"/>
<path d="M35.3077 13.0769C35.3077 13.7991 34.7222 14.3846 34 14.3846C33.2778 14.3846 32.6923 13.7991 32.6923 13.0769C32.6923 12.3547 33.2778 11.7692 34 11.7692C34.7222 11.7692 35.3077 12.3547 35.3077 13.0769Z" fill="black"/>
<path d="M61.4615 13.0769C61.4615 13.7991 60.8761 14.3846 60.1538 14.3846C59.4316 14.3846 58.8462 13.7991 58.8462 13.0769C58.8462 12.3547 59.4316 11.7692 60.1538 11.7692C60.8761 11.7692 61.4615 12.3547 61.4615 13.0769Z" fill="black"/>
<path d="M87.6154 13.0769C87.6154 13.7991 87.0299 14.3846 86.3077 14.3846C85.5855 14.3846 85 13.7991 85 13.0769C85 12.3547 85.5855 11.7692 86.3077 11.7692C87.0299 11.7692 87.6154 12.3547 87.6154 13.0769Z" fill="black"/>
<path d="M9.15385 20.9231C9.15385 21.6453 8.56837 22.2308 7.84615 22.2308C7.12394 22.2308 6.53846 21.6453 6.53846 20.9231C6.53846 20.2009 7.12394 19.6154 7.84615 19.6154C8.56837 19.6154 9.15385 20.2009 9.15385 20.9231Z" fill="black"/>
<path d="M35.3077 20.9231C35.3077 21.6453 34.7222 22.2308 34 22.2308C33.2778 22.2308 32.6923 21.6453 32.6923 20.9231C32.6923 20.2009 33.2778 19.6154 34 19.6154C34.7222 19.6154 35.3077 20.2009 35.3077 20.9231Z" fill="black"/>
<path d="M61.4615 20.9231C61.4615 21.6453 60.8761 22.2308 60.1538 22.2308C59.4316 22.2308 58.8462 21.6453 58.8462 20.9231C58.8462 20.2009 59.4316 19.6154 60.1538 19.6154C60.8761 19.6154 61.4615 20.2009 61.4615 20.9231Z" fill="black"/>
<path d="M87.6154 20.9231C87.6154 21.6453 87.0299 22.2308 86.3077 22.2308C85.5855 22.2308 85 21.6453 85 20.9231C85 20.2009 85.5855 19.6154 86.3077 19.6154C87.0299 19.6154 87.6154 20.2009 87.6154 20.9231Z" fill="black"/>
<path d="M9.15385 28.7692C9.15385 29.4914 8.56837 30.0769 7.84615 30.0769C7.12394 30.0769 6.53846 29.4914 6.53846 28.7692C6.53846 28.047 7.12394 27.4615 7.84615 27.4615C8.56837 27.4615 9.15385 28.047 9.15385 28.7692Z" fill="black"/>
<path d="M35.3077 28.7692C35.3077 29.4914 34.7222 30.0769 34 30.0769C33.2778 30.0769 32.6923 29.4914 32.6923 28.7692C32.6923 28.047 33.2778 27.4615 34 27.4615C34.7222 27.4615 35.3077 28.047 35.3077 28.7692Z" fill="black"/>
<path d="M61.4615 28.7692C61.4615 29.4914 60.8761 30.0769 60.1538 30.0769C59.4316 30.0769 58.8462 29.4914 58.8462 28.7692C58.8462 28.047 59.4316 27.4615 60.1538 27.4615C60.8761 27.4615 61.4615 28.047 61.4615 28.7692Z" fill="black"/>
<path d="M87.6154 28.7692C87.6154 29.4914 87.0299 30.0769 86.3077 30.0769C85.5855 30.0769 85 29.4914 85 28.7692C85 28.047 85.5855 27.4615 86.3077 27.4615C87.0299 27.4615 87.6154 28.047 87.6154 28.7692Z" fill="black"/>
<path d="M14.3846 5.23077C14.3846 5.95299 13.7991 6.53846 13.0769 6.53846C12.3547 6.53846 11.7692 5.95299 11.7692 5.23077C11.7692 4.50855 12.3547 3.92308 13.0769 3.92308C13.7991 3.92308 14.3846 4.50855 14.3846 5.23077Z" fill="black"/>
<path d="M40.5385 5.23077C40.5385 5.95299 39.953 6.53846 39.2308 6.53846C38.5085 6.53846 37.9231 5.95299 37.9231 5.23077C37.9231 4.50855 38.5085 3.92308 39.2308 3.92308C39.953 3.92308 40.5385 4.50855 40.5385 5.23077Z" fill="black"/>
<path d="M66.6923 5.23077C66.6923 5.95299 66.1068 6.53846 65.3846 6.53846C64.6624 6.53846 64.0769 5.95299 64.0769 5.23077C64.0769 4.50855 64.6624 3.92308 65.3846 3.92308C66.1068 3.92308 66.6923 4.50855 66.6923 5.23077Z" fill="black"/>
<path d="M92.8462 5.23077C92.8462 5.95299 92.2607 6.53846 91.5385 6.53846C90.8162 6.53846 90.2308 5.95299 90.2308 5.23077C90.2308 4.50855 90.8162 3.92308 91.5385 3.92308C92.2607 3.92308 92.8462 4.50855 92.8462 5.23077Z" fill="black"/>
<path d="M14.3846 13.0769C14.3846 13.7991 13.7991 14.3846 13.0769 14.3846C12.3547 14.3846 11.7692 13.7991 11.7692 13.0769C11.7692 12.3547 12.3547 11.7692 13.0769 11.7692C13.7991 11.7692 14.3846 12.3547 14.3846 13.0769Z" fill="black"/>
<path d="M40.5385 13.0769C40.5385 13.7991 39.953 14.3846 39.2308 14.3846C38.5085 14.3846 37.9231 13.7991 37.9231 13.0769C37.9231 12.3547 38.5085 11.7692 39.2308 11.7692C39.953 11.7692 40.5385 12.3547 40.5385 13.0769Z" fill="black"/>
<path d="M66.6923 13.0769C66.6923 13.7991 66.1068 14.3846 65.3846 14.3846C64.6624 14.3846 64.0769 13.7991 64.0769 13.0769C64.0769 12.3547 64.6624 11.7692 65.3846 11.7692C66.1068 11.7692 66.6923 12.3547 66.6923 13.0769Z" fill="black"/>
<path d="M92.8462 13.0769C92.8462 13.7991 92.2607 14.3846 91.5385 14.3846C90.8162 14.3846 90.2308 13.7991 90.2308 13.0769C90.2308 12.3547 90.8162 11.7692 91.5385 11.7692C92.2607 11.7692 92.8462 12.3547 92.8462 13.0769Z" fill="black"/>
<path d="M14.3846 20.9231C14.3846 21.6453 13.7991 22.2308 13.0769 22.2308C12.3547 22.2308 11.7692 21.6453 11.7692 20.9231C11.7692 20.2009 12.3547 19.6154 13.0769 19.6154C13.7991 19.6154 14.3846 20.2009 14.3846 20.9231Z" fill="black"/>
<path d="M40.5385 20.9231C40.5385 21.6453 39.953 22.2308 39.2308 22.2308C38.5085 22.2308 37.9231 21.6453 37.9231 20.9231C37.9231 20.2009 38.5085 19.6154 39.2308 19.6154C39.953 19.6154 40.5385 20.2009 40.5385 20.9231Z" fill="black"/>
<path d="M66.6923 20.9231C66.6923 21.6453 66.1068 22.2308 65.3846 22.2308C64.6624 22.2308 64.0769 21.6453 64.0769 20.9231C64.0769 20.2009 64.6624 19.6154 65.3846 19.6154C66.1068 19.6154 66.6923 20.2009 66.6923 20.9231Z" fill="black"/>
<path d="M92.8462 20.9231C92.8462 21.6453 92.2607 22.2308 91.5385 22.2308C90.8162 22.2308 90.2308 21.6453 90.2308 20.9231C90.2308 20.2009 90.8162 19.6154 91.5385 19.6154C92.2607 19.6154 92.8462 20.2009 92.8462 20.9231Z" fill="black"/>
<path d="M14.3846 28.7692C14.3846 29.4914 13.7991 30.0769 13.0769 30.0769C12.3547 30.0769 11.7692 29.4914 11.7692 28.7692C11.7692 28.047 12.3547 27.4615 13.0769 27.4615C13.7991 27.4615 14.3846 28.047 14.3846 28.7692Z" fill="black"/>
<path d="M40.5385 28.7692C40.5385 29.4914 39.953 30.0769 39.2308 30.0769C38.5085 30.0769 37.9231 29.4914 37.9231 28.7692C37.9231 28.047 38.5085 27.4615 39.2308 27.4615C39.953 27.4615 40.5385 28.047 40.5385 28.7692Z" fill="black"/>
<path d="M66.6923 28.7692C66.6923 29.4914 66.1068 30.0769 65.3846 30.0769C64.6624 30.0769 64.0769 29.4914 64.0769 28.7692C64.0769 28.047 64.6624 27.4615 65.3846 27.4615C66.1068 27.4615 66.6923 28.047 66.6923 28.7692Z" fill="black"/>
<path d="M92.8462 28.7692C92.8462 29.4914 92.2607 30.0769 91.5385 30.0769C90.8162 30.0769 90.2308 29.4914 90.2308 28.7692C90.2308 28.047 90.8162 27.4615 91.5385 27.4615C92.2607 27.4615 92.8462 28.047 92.8462 28.7692Z" fill="black"/>
<path d="M17 9.15385C17 9.87606 16.4145 10.4615 15.6923 10.4615C14.9701 10.4615 14.3846 9.87606 14.3846 9.15385C14.3846 8.43163 14.9701 7.84615 15.6923 7.84615C16.4145 7.84615 17 8.43163 17 9.15385Z" fill="black"/>
<path d="M43.1538 9.15385C43.1538 9.87606 42.5684 10.4615 41.8462 10.4615C41.1239 10.4615 40.5385 9.87606 40.5385 9.15385C40.5385 8.43163 41.1239 7.84615 41.8462 7.84615C42.5684 7.84615 43.1538 8.43163 43.1538 9.15385Z" fill="black"/>
<path d="M69.3077 9.15385C69.3077 9.87606 68.7222 10.4615 68 10.4615C67.2778 10.4615 66.6923 9.87606 66.6923 9.15385C66.6923 8.43163 67.2778 7.84615 68 7.84615C68.7222 7.84615 69.3077 8.43163 69.3077 9.15385Z" fill="black"/>
<path d="M95.4615 9.15385C95.4615 9.87606 94.8761 10.4615 94.1538 10.4615C93.4316 10.4615 92.8462 9.87606 92.8462 9.15385C92.8462 8.43163 93.4316 7.84615 94.1538 7.84615C94.8761 7.84615 95.4615 8.43163 95.4615 9.15385Z" fill="black"/>
<path d="M17 17C17 17.7222 16.4145 18.3077 15.6923 18.3077C14.9701 18.3077 14.3846 17.7222 14.3846 17C14.3846 16.2778 14.9701 15.6923 15.6923 15.6923C16.4145 15.6923 17 16.2778 17 17Z" fill="black"/>
<path d="M43.1538 17C43.1538 17.7222 42.5684 18.3077 41.8462 18.3077C41.1239 18.3077 40.5385 17.7222 40.5385 17C40.5385 16.2778 41.1239 15.6923 41.8462 15.6923C42.5684 15.6923 43.1538 16.2778 43.1538 17Z" fill="black"/>
<path d="M69.3077 17C69.3077 17.7222 68.7222 18.3077 68 18.3077C67.2778 18.3077 66.6923 17.7222 66.6923 17C66.6923 16.2778 67.2778 15.6923 68 15.6923C68.7222 15.6923 69.3077 16.2778 69.3077 17Z" fill="black"/>
<path d="M95.4615 17C95.4615 17.7222 94.8761 18.3077 94.1538 18.3077C93.4316 18.3077 92.8462 17.7222 92.8462 17C92.8462 16.2778 93.4316 15.6923 94.1538 15.6923C94.8761 15.6923 95.4615 16.2778 95.4615 17Z" fill="black"/>
<path d="M17 24.8462C17 25.5684 16.4145 26.1538 15.6923 26.1538C14.9701 26.1538 14.3846 25.5684 14.3846 24.8462C14.3846 24.1239 14.9701 23.5385 15.6923 23.5385C16.4145 23.5385 17 24.1239 17 24.8462Z" fill="black"/>
<path d="M43.1538 24.8462C43.1538 25.5684 42.5684 26.1538 41.8462 26.1538C41.1239 26.1538 40.5385 25.5684 40.5385 24.8462C40.5385 24.1239 41.1239 23.5385 41.8462 23.5385C42.5684 23.5385 43.1538 24.1239 43.1538 24.8462Z" fill="black"/>
<path d="M69.3077 24.8462C69.3077 25.5684 68.7222 26.1538 68 26.1538C67.2778 26.1538 66.6923 25.5684 66.6923 24.8462C66.6923 24.1239 67.2778 23.5385 68 23.5385C68.7222 23.5385 69.3077 24.1239 69.3077 24.8462Z" fill="black"/>
<path d="M95.4615 24.8462C95.4615 25.5684 94.8761 26.1538 94.1538 26.1538C93.4316 26.1538 92.8462 25.5684 92.8462 24.8462C92.8462 24.1239 93.4316 23.5385 94.1538 23.5385C94.8761 23.5385 95.4615 24.1239 95.4615 24.8462Z" fill="black"/>
<path d="M11.7692 9.15385C11.7692 9.87606 11.1838 10.4615 10.4615 10.4615C9.73932 10.4615 9.15385 9.87606 9.15385 9.15385C9.15385 8.43163 9.73932 7.84615 10.4615 7.84615C11.1838 7.84615 11.7692 8.43163 11.7692 9.15385Z" fill="black"/>
<path d="M37.9231 9.15385C37.9231 9.87606 37.3376 10.4615 36.6154 10.4615C35.8932 10.4615 35.3077 9.87606 35.3077 9.15385C35.3077 8.43163 35.8932 7.84615 36.6154 7.84615C37.3376 7.84615 37.9231 8.43163 37.9231 9.15385Z" fill="black"/>
<path d="M64.0769 9.15385C64.0769 9.87606 63.4914 10.4615 62.7692 10.4615C62.047 10.4615 61.4615 9.87606 61.4615 9.15385C61.4615 8.43163 62.047 7.84615 62.7692 7.84615C63.4914 7.84615 64.0769 8.43163 64.0769 9.15385Z" fill="black"/>
<path d="M90.2308 9.15385C90.2308 9.87606 89.6453 10.4615 88.9231 10.4615C88.2009 10.4615 87.6154 9.87606 87.6154 9.15385C87.6154 8.43163 88.2009 7.84615 88.9231 7.84615C89.6453 7.84615 90.2308 8.43163 90.2308 9.15385Z" fill="black"/>
<path d="M11.7692 17C11.7692 17.7222 11.1838 18.3077 10.4615 18.3077C9.73932 18.3077 9.15385 17.7222 9.15385 17C9.15385 16.2778 9.73932 15.6923 10.4615 15.6923C11.1838 15.6923 11.7692 16.2778 11.7692 17Z" fill="black"/>
<path d="M37.9231 17C37.9231 17.7222 37.3376 18.3077 36.6154 18.3077C35.8932 18.3077 35.3077 17.7222 35.3077 17C35.3077 16.2778 35.8932 15.6923 36.6154 15.6923C37.3376 15.6923 37.9231 16.2778 37.9231 17Z" fill="black"/>
<path d="M64.0769 17C64.0769 17.7222 63.4914 18.3077 62.7692 18.3077C62.047 18.3077 61.4615 17.7222 61.4615 17C61.4615 16.2778 62.047 15.6923 62.7692 15.6923C63.4914 15.6923 64.0769 16.2778 64.0769 17Z" fill="black"/>
<path d="M90.2308 17C90.2308 17.7222 89.6453 18.3077 88.9231 18.3077C88.2009 18.3077 87.6154 17.7222 87.6154 17C87.6154 16.2778 88.2009 15.6923 88.9231 15.6923C89.6453 15.6923 90.2308 16.2778 90.2308 17Z" fill="black"/>
<path d="M11.7692 24.8462C11.7692 25.5684 11.1838 26.1538 10.4615 26.1538C9.73932 26.1538 9.15385 25.5684 9.15385 24.8462C9.15385 24.1239 9.73932 23.5385 10.4615 23.5385C11.1838 23.5385 11.7692 24.1239 11.7692 24.8462Z" fill="black"/>
<path d="M37.9231 24.8462C37.9231 25.5684 37.3376 26.1538 36.6154 26.1538C35.8932 26.1538 35.3077 25.5684 35.3077 24.8462C35.3077 24.1239 35.8932 23.5385 36.6154 23.5385C37.3376 23.5385 37.9231 24.1239 37.9231 24.8462Z" fill="black"/>
<path d="M64.0769 24.8462C64.0769 25.5684 63.4914 26.1538 62.7692 26.1538C62.047 26.1538 61.4615 25.5684 61.4615 24.8462C61.4615 24.1239 62.047 23.5385 62.7692 23.5385C63.4914 23.5385 64.0769 24.1239 64.0769 24.8462Z" fill="black"/>
<path d="M90.2308 24.8462C90.2308 25.5684 89.6453 26.1538 88.9231 26.1538C88.2009 26.1538 87.6154 25.5684 87.6154 24.8462C87.6154 24.1239 88.2009 23.5385 88.9231 23.5385C89.6453 23.5385 90.2308 24.1239 90.2308 24.8462Z" fill="black"/>
<path d="M6.53846 9.15385C6.53846 9.87606 5.95299 10.4615 5.23077 10.4615C4.50855 10.4615 3.92308 9.87606 3.92308 9.15385C3.92308 8.43163 4.50855 7.84615 5.23077 7.84615C5.95299 7.84615 6.53846 8.43163 6.53846 9.15385Z" fill="black"/>
<path d="M32.6923 9.15385C32.6923 9.87606 32.1068 10.4615 31.3846 10.4615C30.6624 10.4615 30.0769 9.87606 30.0769 9.15385C30.0769 8.43163 30.6624 7.84615 31.3846 7.84615C32.1068 7.84615 32.6923 8.43163 32.6923 9.15385Z" fill="black"/>
<path d="M58.8462 9.15385C58.8462 9.87606 58.2607 10.4615 57.5385 10.4615C56.8162 10.4615 56.2308 9.87606 56.2308 9.15385C56.2308 8.43163 56.8162 7.84615 57.5385 7.84615C58.2607 7.84615 58.8462 8.43163 58.8462 9.15385Z" fill="black"/>
<path d="M85 9.15385C85 9.87606 84.4145 10.4615 83.6923 10.4615C82.9701 10.4615 82.3846 9.87606 82.3846 9.15385C82.3846 8.43163 82.9701 7.84615 83.6923 7.84615C84.4145 7.84615 85 8.43163 85 9.15385Z" fill="black"/>
<path d="M6.53846 17C6.53846 17.7222 5.95299 18.3077 5.23077 18.3077C4.50855 18.3077 3.92308 17.7222 3.92308 17C3.92308 16.2778 4.50855 15.6923 5.23077 15.6923C5.95299 15.6923 6.53846 16.2778 6.53846 17Z" fill="black"/>
<path d="M32.6923 17C32.6923 17.7222 32.1068 18.3077 31.3846 18.3077C30.6624 18.3077 30.0769 17.7222 30.0769 17C30.0769 16.2778 30.6624 15.6923 31.3846 15.6923C32.1068 15.6923 32.6923 16.2778 32.6923 17Z" fill="black"/>
<path d="M58.8462 17C58.8462 17.7222 58.2607 18.3077 57.5385 18.3077C56.8162 18.3077 56.2308 17.7222 56.2308 17C56.2308 16.2778 56.8162 15.6923 57.5385 15.6923C58.2607 15.6923 58.8462 16.2778 58.8462 17Z" fill="black"/>
<path d="M85 17C85 17.7222 84.4145 18.3077 83.6923 18.3077C82.9701 18.3077 82.3846 17.7222 82.3846 17C82.3846 16.2778 82.9701 15.6923 83.6923 15.6923C84.4145 15.6923 85 16.2778 85 17Z" fill="black"/>
<path d="M6.53846 24.8462C6.53846 25.5684 5.95299 26.1538 5.23077 26.1538C4.50855 26.1538 3.92308 25.5684 3.92308 24.8462C3.92308 24.1239 4.50855 23.5385 5.23077 23.5385C5.95299 23.5385 6.53846 24.1239 6.53846 24.8462Z" fill="black"/>
<path d="M32.6923 24.8462C32.6923 25.5684 32.1068 26.1538 31.3846 26.1538C30.6624 26.1538 30.0769 25.5684 30.0769 24.8462C30.0769 24.1239 30.6624 23.5385 31.3846 23.5385C32.1068 23.5385 32.6923 24.1239 32.6923 24.8462Z" fill="black"/>
<path d="M58.8462 24.8462C58.8462 25.5684 58.2607 26.1538 57.5385 26.1538C56.8162 26.1538 56.2308 25.5684 56.2308 24.8462C56.2308 24.1239 56.8162 23.5385 57.5385 23.5385C58.2607 23.5385 58.8462 24.1239 58.8462 24.8462Z" fill="black"/>
<path d="M85 24.8462C85 25.5684 84.4145 26.1538 83.6923 26.1538C82.9701 26.1538 82.3846 25.5684 82.3846 24.8462C82.3846 24.1239 82.9701 23.5385 83.6923 23.5385C84.4145 23.5385 85 24.1239 85 24.8462Z" fill="black"/>
</svg>
