<svg width="53" height="49" viewBox="0 0 53 49" fill="none" xmlns="http://www.w3.org/2000/svg">
<path d="M4.67261 48.2057H17.5638C18.4176 48.2057 18.8452 47.0503 18.2414 46.3746L16.1083 43.987C15.6291 43.4506 14.979 43.1492 14.3013 43.1492L6.43425 43.1492C5.37571 43.1492 4.51759 42.1887 4.51759 41.0039L4.51759 32.1985C4.51759 31.4399 4.24835 30.7124 3.76909 30.1759L1.63597 27.7884C1.03225 27.1126 2.3406e-06 27.5912 1.90651e-06 28.5468L1.48571e-06 42.9757C1.47203e-06 43.7343 0.269244 44.4619 0.748501 44.9983L2.86558 47.3679C3.34483 47.9043 3.99484 48.2057 4.67261 48.2057Z" fill="black"/>
<path d="M2.98672e-06 5.22996L0 19.6588C-1.41772e-07 20.6144 1.03225 21.093 1.63596 20.4173L3.76909 18.0297C4.24835 17.4933 4.51759 16.7658 4.51759 16.0071L4.5176 7.20173C4.5176 6.01693 5.37571 5.05645 6.43425 5.05645L14.3013 5.05646C14.979 5.05646 15.6291 4.7551 16.1083 4.21867L18.2414 1.8311C18.8452 1.15538 18.4176 1.62934e-06 17.5638 1.1017e-06L4.67262 0C3.99485 -4.84791e-08 3.34483 0.301358 2.86558 0.837781L0.748502 3.20738C0.269247 3.7438 3.11037e-06 4.47135 2.98672e-06 5.22996Z" fill="black"/>
<path d="M53 42.9757V28.5468C53 27.5912 51.9677 27.1126 51.364 27.7884L49.2309 30.1759C48.7516 30.7124 48.4824 31.4399 48.4824 32.1985L48.4824 41.0039C48.4824 42.1887 47.6243 43.1492 46.5658 43.1492H38.6987C38.021 43.1492 37.3709 43.4506 36.8917 43.987L34.7586 46.3746C34.1548 47.0503 34.5824 48.2057 35.4362 48.2057H48.3274C49.0052 48.2057 49.6552 47.9043 50.1344 47.3679L52.2515 44.9983C52.7308 44.4619 53 43.7343 53 42.9757Z" fill="black"/>
<path d="M48.3274 3.04356e-06L35.4362 1.5927e-06C34.5824 1.55933e-06 34.1548 1.15538 34.7586 1.83111L36.8917 4.21868C37.3709 4.7551 38.021 5.05646 38.6987 5.05646L46.5658 5.05646C47.6243 5.05646 48.4824 6.01693 48.4824 7.20173V16.0071C48.4824 16.7658 48.7517 17.4933 49.2309 18.0297L51.364 20.4173C51.9677 21.093 53 20.6145 53 19.6588V5.22997C53 4.47135 52.7308 3.74381 52.2515 3.20739L50.1344 0.837784C49.6552 0.301362 49.0052 3.08248e-06 48.3274 3.04356e-06Z" fill="black"/>
</svg>
