<svg width="66" height="45" viewBox="0 0 66 45" fill="none" xmlns="http://www.w3.org/2000/svg">
<path d="M48 15C48 19.9068 45.644 24.2633 42.0015 27H23.9985C20.356 24.2633 18 19.9068 18 15C18 6.71573 24.7157 0 33 0C41.2843 0 48 6.71573 48 15Z" fill="black"/>
<path d="M24 36V30H42V36H24Z" fill="black"/>
<path d="M33.0006 45C29.0822 45 25.7483 42.4957 24.5127 39H41.4884C40.2529 42.4957 36.919 45 33.0006 45Z" fill="black"/>
<path d="M66 17.25H54V12.75H66V17.25Z" fill="black"/>
<path d="M12 12.75L0 12.75V17.25L12 17.25V12.75Z" fill="black"/>
<path d="M63.7115 5.13454L54.7115 8.13454L53.2885 3.86546L62.2885 0.865463L63.7115 5.13454Z" fill="black"/>
<path d="M11.2885 21.8655L2.28849 24.8655L3.71151 29.1345L12.7115 26.1345L11.2885 21.8655Z" fill="black"/>
<path d="M62.2885 29.1345L53.2885 26.1345L54.7115 21.8655L63.7115 24.8655L62.2885 29.1345Z" fill="black"/>
<path d="M12.7115 3.86546L3.71151 0.865462L2.28849 5.13454L11.2885 8.13454L12.7115 3.86546Z" fill="black"/>
</svg>
