<svg width="188" height="137" viewBox="0 0 188 137" fill="none" xmlns="http://www.w3.org/2000/svg">
<path d="M6.24314 132.063L3.48294 124.324H1V134.406H2.71737V126.762L5.4486 134.406H7.03768L9.76892 126.799V134.406H11.5028V124.324H9.01576L6.24314 132.063Z" fill="#CCD9DF"/>
<path d="M19.5525 132.964C19.5153 132.927 19.4946 132.874 19.4946 132.808V129.536C19.4946 129.037 19.387 128.608 19.1676 128.253C18.9525 127.899 18.6421 127.626 18.2365 127.441C17.831 127.255 17.3468 127.16 16.7757 127.16C16.1219 127.16 15.5715 127.243 15.1287 127.412C14.6859 127.581 14.3425 127.828 14.1024 128.154C13.8624 128.48 13.7176 128.889 13.6679 129.38H15.3729C15.4101 129.186 15.4805 129.033 15.5757 128.913C15.6708 128.794 15.8074 128.707 15.9812 128.653C16.155 128.6 16.3826 128.575 16.6599 128.575C16.9371 128.575 17.1647 128.612 17.3385 128.691C17.5123 128.769 17.6406 128.885 17.7275 129.037C17.8144 129.19 17.8558 129.392 17.8558 129.644V129.99L15.8902 130.106C15.3315 130.143 14.8597 130.262 14.4749 130.46C14.09 130.658 13.8003 130.922 13.61 131.252C13.4155 131.582 13.3203 131.97 13.3203 132.412C13.3203 132.853 13.4279 133.253 13.6472 133.587C13.8624 133.917 14.1728 134.177 14.5783 134.359C14.9839 134.54 15.4556 134.631 15.9936 134.631C16.4571 134.631 16.8709 134.557 17.2351 134.408C17.5992 134.26 17.8931 134.049 18.1165 133.781C18.1579 133.728 18.1952 133.674 18.2324 133.616V133.666C18.2324 133.818 18.2655 133.954 18.3276 134.07C18.3896 134.185 18.4807 134.272 18.6007 134.33C18.7207 134.388 18.8614 134.416 19.0269 134.416H20.3263V133.035H19.7056C19.6394 133.035 19.5856 133.014 19.5484 132.977L19.5525 132.964ZM17.653 132.511C17.5123 132.746 17.322 132.923 17.0737 133.035C16.8295 133.15 16.5481 133.208 16.2295 133.208C15.9771 133.208 15.766 133.175 15.5881 133.109C15.4101 133.043 15.2736 132.94 15.1825 132.808C15.0915 132.672 15.046 132.519 15.046 132.346C15.046 132.181 15.0873 132.036 15.1701 131.908C15.2529 131.78 15.377 131.669 15.5467 131.578C15.7164 131.488 15.9191 131.438 16.1591 131.426L17.8641 131.281V131.669C17.8641 131.995 17.7937 132.275 17.653 132.511Z" fill="#CCD9DF"/>
<path d="M26.843 128.082C26.7768 127.991 26.7023 127.901 26.6195 127.818C26.3919 127.604 26.1147 127.439 25.7878 127.327C25.4608 127.216 25.1091 127.162 24.7325 127.162C24.0662 127.162 23.4786 127.319 22.9613 127.628C22.4441 127.942 22.0468 128.379 21.7695 128.94C21.4881 129.501 21.3516 130.153 21.3516 130.891C21.3516 131.63 21.4923 132.282 21.7695 132.843C22.0468 133.404 22.4482 133.841 22.9613 134.155C23.4745 134.468 24.0662 134.621 24.7325 134.621C25.138 134.621 25.5146 134.559 25.8581 134.435C26.2057 134.311 26.4995 134.134 26.7478 133.911C26.8637 133.808 26.9589 133.692 27.0458 133.569V134.41H28.5645V124.328H26.8471V128.082H26.843ZM26.6361 132.03C26.4788 132.356 26.2595 132.612 25.9781 132.793C25.6967 132.975 25.3739 133.065 25.0098 133.065C24.6456 133.065 24.3021 132.975 24.0207 132.793C23.7352 132.612 23.5159 132.356 23.3627 132.03C23.2096 131.704 23.131 131.325 23.131 130.891C23.131 130.458 23.2096 130.079 23.3627 129.753C23.5159 129.427 23.7352 129.171 24.0207 128.99C24.3063 128.808 24.6332 128.717 25.0098 128.717C25.3863 128.717 25.6967 128.808 25.9781 128.99C26.2554 129.171 26.4747 129.427 26.6361 129.753C26.7933 130.079 26.8761 130.458 26.8761 130.891C26.8761 131.325 26.7975 131.704 26.6361 132.03Z" fill="#CCD9DF"/>
<path d="M33.7836 127.16C33.109 127.16 32.509 127.313 31.9834 127.614C31.4579 127.915 31.0523 128.344 30.7626 128.901C30.473 129.458 30.3281 130.106 30.3281 130.844C30.3281 131.583 30.473 132.267 30.7626 132.833C31.0523 133.398 31.462 133.839 31.9958 134.149C32.5297 134.462 33.1545 134.615 33.8663 134.615C34.4333 134.615 34.934 134.524 35.3685 134.342C35.803 134.161 36.163 133.897 36.4527 133.559C36.7424 133.216 36.9576 132.816 37.1024 132.354H35.3395C35.2154 132.606 35.0292 132.804 34.785 132.952C34.5408 133.101 34.2388 133.175 33.8829 133.175C33.4897 133.175 33.1504 133.101 32.8731 132.952C32.5917 132.804 32.3807 132.585 32.2359 132.296C32.1158 132.057 32.0496 131.785 32.0289 131.475H37.1935C37.2017 131.339 37.21 131.211 37.2141 131.088C37.2183 130.964 37.2224 130.848 37.2224 130.741C37.2224 129.636 36.9162 128.765 36.3037 128.122C35.6913 127.478 34.8512 127.156 33.7836 127.156V127.16ZM35.4885 130.135V130.155H32.0289C32.0455 129.867 32.1117 129.607 32.2317 129.376C32.3724 129.108 32.5752 128.901 32.84 128.757C33.1049 128.612 33.4194 128.542 33.7877 128.542C34.3257 128.542 34.7478 128.687 35.0457 128.975C35.3437 129.264 35.4926 129.644 35.4926 130.114V130.135H35.4885Z" fill="#CCD9DF"/>
<path d="M54.6922 132.604L53.3183 127.488H51.3402L49.9663 132.604L48.5965 127.488H46.8047L48.9152 134.514H50.9512L52.3375 129.415L53.7114 134.514H55.7474L57.8579 127.488H56.0661L54.6922 132.604Z" fill="#CCD9DF"/>
<path d="M60.9908 127.488H59.2734V134.518H60.9908V127.488Z" fill="#CCD9DF"/>
<path d="M61.0607 124.504H59.2109V126.261H61.0607V124.504Z" fill="#CCD9DF"/>
<path d="M65.8305 125.426H64.109V127.484H62.3047V128.998H64.109V132.727C64.109 133.161 64.171 133.507 64.2952 133.763C64.4193 134.023 64.6138 134.213 64.8787 134.332C65.1435 134.452 65.487 134.514 65.9132 134.514H67.9782V133H66.4884C66.2567 133 66.087 132.946 65.9836 132.843C65.876 132.736 65.8263 132.571 65.8263 132.34V128.998H67.9782V127.484H65.8263V125.426H65.8305Z" fill="#CCD9DF"/>
<path d="M74.6346 127.623C74.2167 127.388 73.7159 127.268 73.1407 127.268C72.7559 127.268 72.4 127.33 72.0772 127.454C71.7544 127.577 71.4813 127.767 71.2537 128.015C71.2454 128.023 71.2413 128.035 71.233 128.044V124.426H69.5156V134.508H71.233V130.49C71.233 130.156 71.2992 129.863 71.4275 129.611C71.5558 129.364 71.742 129.166 71.9779 129.03C72.2138 128.889 72.4869 128.819 72.7931 128.819C73.0993 128.819 73.36 128.881 73.5752 129.001C73.7863 129.12 73.9477 129.298 74.0594 129.533C74.1711 129.768 74.2249 130.069 74.2249 130.432V134.508H75.9423V130.259C75.9423 129.624 75.8306 129.083 75.603 128.638C75.3754 128.192 75.0526 127.85 74.6346 127.615V127.623Z" fill="#CCD9DF"/>
<path d="M111.877 127.632C111.368 127.319 110.78 127.166 110.114 127.166C109.729 127.166 109.373 127.22 109.046 127.331C108.719 127.443 108.442 127.604 108.214 127.822C108.127 127.905 108.057 127.991 107.991 128.082V124.328H106.273V134.41H107.792V133.569C107.875 133.692 107.974 133.808 108.09 133.911C108.334 134.138 108.632 134.311 108.984 134.435C109.336 134.559 109.712 134.621 110.118 134.621C110.784 134.621 111.372 134.464 111.881 134.155C112.39 133.841 112.787 133.404 113.073 132.843C113.358 132.282 113.499 131.63 113.499 130.891C113.499 130.153 113.358 129.501 113.073 128.94C112.787 128.379 112.39 127.942 111.881 127.628L111.877 127.632ZM111.479 132.03C111.322 132.356 111.099 132.612 110.813 132.793C110.528 132.975 110.205 133.065 109.836 133.065C109.468 133.065 109.133 132.975 108.856 132.793C108.574 132.612 108.359 132.356 108.198 132.03C108.04 131.704 107.958 131.325 107.958 130.891C107.958 130.458 108.036 130.079 108.198 129.753C108.355 129.427 108.574 129.171 108.856 128.99C109.133 128.808 109.464 128.717 109.836 128.717C110.209 128.717 110.528 128.808 110.813 128.99C111.099 129.171 111.318 129.427 111.479 129.753C111.637 130.079 111.719 130.458 111.719 130.891C111.719 131.325 111.641 131.704 111.479 132.03Z" fill="#CCD9DF"/>
<path d="M117.843 131.917L115.981 127.379H114.016L116.925 133.876L116.416 134.998C116.35 135.163 116.25 135.283 116.126 135.357C116.002 135.436 115.836 135.473 115.634 135.473H114.26V136.999H116.052C116.387 136.999 116.664 136.958 116.883 136.875C117.099 136.793 117.277 136.673 117.417 136.516C117.558 136.36 117.686 136.153 117.802 135.906L121.618 127.379H119.697L117.848 131.917H117.843Z" fill="#CCD9DF"/>
<path d="M134.345 126.131C134.758 125.888 135.251 125.764 135.818 125.764C136.203 125.764 136.55 125.834 136.865 125.978C137.179 126.123 137.436 126.333 137.647 126.614C137.854 126.894 137.99 127.232 138.061 127.637H139.923C139.815 126.886 139.579 126.251 139.215 125.723C138.851 125.195 138.379 124.794 137.8 124.518C137.221 124.246 136.563 124.105 135.822 124.105C134.878 124.105 134.063 124.303 133.372 124.695C132.685 125.087 132.147 125.681 131.766 126.473C131.386 127.265 131.195 128.235 131.195 129.373C131.195 130.512 131.39 131.481 131.775 132.269C132.16 133.057 132.697 133.643 133.384 134.035C134.071 134.423 134.874 134.617 135.789 134.617C136.542 134.617 137.204 134.468 137.783 134.171C138.363 133.874 138.83 133.449 139.186 132.896C139.542 132.344 139.782 131.692 139.91 130.945H138.061C137.994 131.358 137.862 131.717 137.663 132.018C137.465 132.319 137.208 132.554 136.89 132.715C136.571 132.88 136.207 132.958 135.793 132.958C135.255 132.958 134.775 132.83 134.361 132.575C133.947 132.319 133.62 131.923 133.384 131.387C133.149 130.85 133.029 130.174 133.029 129.357C133.029 128.54 133.144 127.835 133.376 127.298C133.608 126.762 133.931 126.37 134.345 126.123V126.131Z" fill="#CCD9DF"/>
<path d="M146.669 127.63C146.11 127.317 145.469 127.164 144.749 127.164C144.029 127.164 143.4 127.321 142.841 127.63C142.282 127.944 141.848 128.381 141.542 128.946C141.231 129.511 141.078 130.159 141.078 130.889C141.078 131.619 141.231 132.279 141.542 132.84C141.848 133.401 142.282 133.839 142.841 134.152C143.4 134.466 144.037 134.618 144.749 134.618C145.461 134.618 146.11 134.462 146.665 134.152C147.219 133.839 147.654 133.401 147.964 132.836C148.279 132.271 148.432 131.623 148.432 130.893C148.432 130.163 148.279 129.503 147.968 128.942C147.658 128.381 147.228 127.944 146.669 127.63ZM146.416 132.019C146.259 132.35 146.032 132.609 145.746 132.791C145.456 132.972 145.125 133.063 144.749 133.063C144.372 133.063 144.054 132.972 143.768 132.791C143.478 132.609 143.255 132.354 143.098 132.028C142.94 131.702 142.858 131.322 142.858 130.889C142.858 130.456 142.936 130.089 143.098 129.759C143.255 129.429 143.482 129.169 143.768 128.987C144.058 128.806 144.389 128.715 144.765 128.715C145.142 128.715 145.461 128.806 145.746 128.987C146.036 129.169 146.259 129.425 146.416 129.751C146.574 130.076 146.656 130.456 146.656 130.889C146.656 131.322 146.578 131.689 146.416 132.019Z" fill="#CCD9DF"/>
<path d="M151.866 127.379H150.148V134.408H151.866V127.379Z" fill="#CCD9DF"/>
<path d="M151.944 124.398H150.094V126.156H151.944V124.398Z" fill="#CCD9DF"/>
<path d="M159.159 127.515C158.741 127.28 158.24 127.16 157.665 127.16C157.271 127.16 156.907 127.226 156.572 127.362C156.241 127.498 155.96 127.692 155.732 127.952C155.666 128.031 155.604 128.113 155.55 128.204V127.379H154.031V134.408H155.749V130.39C155.749 130.056 155.815 129.763 155.943 129.512C156.071 129.264 156.258 129.066 156.494 128.93C156.729 128.79 157.003 128.72 157.309 128.72C157.615 128.72 157.876 128.781 158.091 128.901C158.302 129.021 158.463 129.198 158.575 129.433C158.687 129.668 158.741 129.969 158.741 130.332V134.408H160.458V130.159C160.458 129.524 160.346 128.984 160.119 128.538C159.891 128.092 159.568 127.75 159.15 127.515H159.159Z" fill="#CCD9DF"/>
<path d="M167.038 127.381L164.944 129.827H164.249V124.324H162.531V134.406H164.249V131.399H164.944L167.067 134.406H169.148L166.446 130.57L169.148 127.381H167.038Z" fill="#CCD9DF"/>
<path d="M172.194 124.398H170.344V126.156H172.194V124.398Z" fill="#CCD9DF"/>
<path d="M172.124 127.379H170.406V134.408H172.124V127.379Z" fill="#CCD9DF"/>
<path d="M176.963 125.316H175.242V127.375H173.438V128.889H175.242V132.618C175.242 133.051 175.304 133.398 175.428 133.654C175.552 133.913 175.747 134.103 176.011 134.223C176.276 134.342 176.62 134.404 177.046 134.404H179.111V132.89H177.621C177.39 132.89 177.22 132.837 177.116 132.734C177.009 132.626 176.959 132.461 176.959 132.23V128.889H179.111V127.375H176.959V125.316H176.963Z" fill="#CCD9DF"/>
<path d="M186.046 128.125C185.433 127.482 184.593 127.16 183.526 127.16C182.851 127.16 182.251 127.313 181.726 127.614C181.2 127.915 180.794 128.344 180.505 128.901C180.215 129.458 180.07 130.106 180.07 130.844C180.07 131.582 180.215 132.267 180.505 132.832C180.794 133.398 181.204 133.839 181.738 134.148C182.272 134.462 182.897 134.615 183.608 134.615C184.175 134.615 184.676 134.524 185.111 134.342C185.545 134.161 185.905 133.897 186.195 133.558C186.485 133.216 186.7 132.816 186.845 132.354H185.082C184.958 132.606 184.771 132.804 184.527 132.952C184.283 133.101 183.981 133.175 183.625 133.175C183.232 133.175 182.893 133.101 182.615 132.952C182.334 132.804 182.123 132.585 181.978 132.296C181.858 132.057 181.792 131.785 181.771 131.475H186.936C186.944 131.339 186.952 131.211 186.956 131.087C186.96 130.964 186.965 130.848 186.965 130.741C186.965 129.635 186.658 128.765 186.046 128.121V128.125ZM185.227 130.134V130.155H181.767C181.784 129.866 181.85 129.606 181.97 129.375C182.11 129.107 182.313 128.901 182.578 128.757C182.843 128.612 183.157 128.542 183.526 128.542C184.064 128.542 184.486 128.687 184.784 128.975C185.082 129.264 185.231 129.644 185.231 130.114V130.134H185.227Z" fill="#CCD9DF"/>
<path d="M91.499 134.569L96.527 129.499C96.6305 129.396 96.6884 129.256 96.6884 129.112V127.346C96.6884 127.197 96.6305 127.057 96.5229 126.954L94.3668 125.147C94.1475 124.929 93.7875 124.937 93.5764 125.164L91.3666 127.218C91.2259 127.367 90.9859 127.367 90.8452 127.218L88.6354 125.164C88.4243 124.937 88.0643 124.929 87.845 125.147L85.689 126.954C85.5855 127.057 85.5234 127.197 85.5234 127.346V129.112C85.5234 129.256 85.5814 129.396 85.6848 129.499L90.7128 134.569C90.928 134.788 91.2797 134.788 91.499 134.569Z" fill="#CE2C1E"/>
<path d="M133.842 54.4109H104.758C101.026 54.4109 97.9922 51.3829 97.9922 47.6661V5.25424C97.9922 2.4078 100.31 0.0976562 103.165 0.0976562C106.02 0.0976562 108.338 2.4078 108.338 5.25424V44.0977H133.842C136.697 44.0977 139.015 46.4079 139.015 49.2543C139.015 52.1007 136.697 54.4109 133.842 54.4109Z" fill="#CCD9DF"/>
<path d="M76.8002 54.7257H62.2088C60.8349 54.7257 59.5189 54.1812 58.5506 53.2159L50.5224 45.2129C49.5541 44.2476 49.0078 42.9357 49.0078 41.5662V13.1596C49.0078 11.79 49.5541 10.4782 50.5224 9.51286L58.5506 1.50985C59.5189 0.544535 60.8349 0 62.2088 0H76.8002C78.1741 0 79.4859 0.544535 80.4584 1.50985L88.4866 9.51286C89.4549 10.4782 90.0012 11.79 90.0012 13.1596V41.5662C90.0012 42.9357 89.4549 44.2476 88.4866 45.2129L80.4584 53.2159C79.49 54.1812 78.1741 54.7257 76.8002 54.7257ZM64.3483 44.4126H74.6566L79.6556 39.4293V15.2965L74.6566 10.3132H64.3483L59.3493 15.2965V39.4293L64.3483 44.4126Z" fill="#CCD9DF"/>
<path d="M174.797 54.7257H152.173C149.317 54.7257 147 52.4156 147 49.5692V5.15658C147 2.31015 149.317 0 152.173 0H174.797C176.17 0 177.486 0.544535 178.455 1.50985L186.483 9.51286C187.451 10.4782 187.997 11.79 187.997 13.1596V41.5662C187.997 42.9357 187.451 44.2476 186.483 45.2129L178.455 53.2159C177.486 54.1812 176.17 54.7257 174.797 54.7257ZM157.35 44.4126H172.657L177.656 39.4293V15.2965L172.657 10.3132H157.35V44.4126Z" fill="#CCD9DF"/>
<path d="M27.7965 54.7257H13.201C11.8271 54.7257 10.5153 54.1812 9.54277 53.2159L1.51459 45.2129C0.546247 44.2476 0 42.9357 0 41.5662V13.1596C0 11.79 0.546247 10.4782 1.51459 9.51286L9.54277 1.50985C10.5111 0.544535 11.8271 0 13.201 0H27.7924C29.1663 0 30.4822 0.544535 31.4506 1.50985L39.4788 9.51286C41.4982 11.526 41.4982 14.7932 39.4788 16.8063C37.4593 18.8195 34.1818 18.8195 32.1624 16.8063L25.6488 10.3132H15.3404L10.3414 15.2965V39.4293L15.3404 44.4126H25.6488L32.1624 37.9194C34.1818 35.9063 37.4593 35.9063 39.4788 37.9194C41.4982 39.9325 41.4982 43.1998 39.4788 45.2129L31.4506 53.2159C30.4822 54.1812 29.1663 54.7257 27.7924 54.7257H27.7965Z" fill="#CCD9DF"/>
<path d="M174.797 117.706H152.173C149.317 117.706 147 115.396 147 112.55V68.137C147 65.2906 149.317 62.9805 152.173 62.9805H174.797C176.17 62.9805 177.486 63.525 178.455 64.4903L186.483 72.4933C187.451 73.4586 187.997 74.7705 187.997 76.1401V104.547C187.997 105.916 187.451 107.228 186.483 108.193L178.455 116.196C177.486 117.162 176.17 117.706 174.797 117.706ZM157.35 107.393H172.657L177.656 102.41V78.2769L172.657 73.2936H157.35V107.393Z" fill="#CCD9DF"/>
<path d="M27.7965 117.706H13.201C11.8271 117.706 10.5153 117.162 9.54277 116.196L1.51459 108.193C0.546247 107.228 0 105.916 0 104.547V76.1401C0 74.7705 0.546247 73.4586 1.51459 72.4933L9.54277 64.4903C10.5111 63.525 11.8271 62.9805 13.201 62.9805H27.7924C29.1663 62.9805 30.4822 63.525 31.4506 64.4903L39.4788 72.4933C41.4982 74.5065 41.4982 77.7737 39.4788 79.7868C37.4593 81.7999 34.1818 81.7999 32.1624 79.7868L25.6488 73.2936H15.3404L10.3414 78.2769V102.41L15.3404 107.393H25.6488L32.1624 100.9C34.1818 98.8868 37.4593 98.8868 39.4788 100.9C41.4982 102.913 41.4982 106.18 39.4788 108.193L31.4506 116.196C30.4822 117.162 29.1663 117.706 27.7924 117.706H27.7965Z" fill="#CCD9DF"/>
<path d="M88.4866 72.4933L80.4584 64.4903C79.4901 63.525 78.1741 62.9805 76.8002 62.9805H62.2088C60.8349 62.9805 59.5189 63.525 58.5506 64.4903L50.5224 72.4933C49.5541 73.4586 49.0078 74.7705 49.0078 76.1401V112.55C49.0078 115.396 51.3252 117.706 54.1806 117.706C57.036 117.706 59.3534 115.396 59.3534 112.55V101.535H79.6597V112.55C79.6597 115.396 81.9771 117.706 84.8325 117.706C87.6879 117.706 90.0053 115.396 90.0053 112.55V76.1401C90.0053 74.7705 89.4591 73.4586 88.4907 72.4933H88.4866ZM59.3493 91.222V78.2769L64.3483 73.2936H74.6566L79.6556 78.2769V91.222H59.3493Z" fill="#CCD9DF"/>
<path d="M136.295 93.5734C138.041 91.8326 139.001 89.5183 139.001 87.0596V77.819C139.001 75.3604 138.041 73.0461 136.295 71.3053L130.65 65.6784C128.904 63.9375 126.582 62.9805 124.116 62.9805H103.181C100.325 62.9805 98.0078 65.2906 98.0078 68.137V112.55C98.0078 115.396 100.325 117.706 103.181 117.706C106.036 117.706 108.353 115.396 108.353 112.55V101.898H117.549L129.955 115.891C130.977 117.042 132.401 117.632 133.833 117.632C135.049 117.632 136.274 117.207 137.255 116.341C139.394 114.456 139.597 111.197 137.706 109.064L129.69 100.025C130.025 99.7737 130.348 99.5056 130.65 99.2044L136.295 93.5775V93.5734ZM108.353 73.2936H123.661L128.66 78.2769V86.6017L123.661 91.585H108.353V73.2936Z" fill="#CCD9DF"/>
<path d="M183.428 113.979L183.085 113.641L181.43 115.291L181.773 115.633L182.415 114.99L184.161 116.73L184.529 116.363L182.783 114.622L183.428 113.979Z" fill="#CCD9DF"/>
<path d="M187.727 113.181L185.641 111.098L185.128 111.609L186.159 113.779L183.982 112.748L183.469 113.259L185.559 115.343L185.914 114.988L184.329 113.408L186.477 114.427L186.808 114.101L185.794 111.964L187.371 113.536L187.727 113.181Z" fill="#CCD9DF"/>
</svg>
