<svg width="188" height="137" viewBox="0 0 188 137" fill="none" xmlns="http://www.w3.org/2000/svg">
<path d="M6.24314 132.067L3.48294 124.328H1V134.41H2.71737V126.766L5.4486 134.41H7.03768L9.76892 126.803V134.41H11.5028V124.328H9.01576L6.24314 132.067Z" fill="black"/>
<path d="M19.5447 132.96C19.5074 132.923 19.4867 132.87 19.4867 132.804V129.532C19.4867 129.033 19.3792 128.604 19.1598 128.249C18.9446 127.895 18.6343 127.622 18.2287 127.437C17.8232 127.251 17.339 127.156 16.7679 127.156C16.1141 127.156 15.5637 127.239 15.1209 127.408C14.6781 127.577 14.3346 127.825 14.0946 128.15C13.8546 128.476 13.7098 128.885 13.6601 129.376H15.3651C15.4023 129.182 15.4727 129.029 15.5678 128.909C15.663 128.79 15.7996 128.703 15.9734 128.65C16.1472 128.596 16.3748 128.571 16.6521 128.571C16.9293 128.571 17.1569 128.608 17.3307 128.687C17.5045 128.765 17.6328 128.881 17.7197 129.033C17.8066 129.186 17.848 129.388 17.848 129.64V129.986L15.8823 130.102C15.3237 130.139 14.8519 130.258 14.4671 130.456C14.0822 130.654 13.7925 130.918 13.6022 131.249C13.4077 131.579 13.3125 131.966 13.3125 132.408C13.3125 132.849 13.4201 133.249 13.6394 133.583C13.8546 133.913 14.165 134.173 14.5705 134.355C14.9761 134.536 15.4478 134.627 15.9858 134.627C16.4493 134.627 16.8631 134.553 17.2273 134.404C17.5914 134.256 17.8853 134.045 18.1087 133.777C18.1501 133.724 18.1873 133.67 18.2246 133.612V133.662C18.2246 133.814 18.2577 133.951 18.3198 134.066C18.3818 134.182 18.4729 134.268 18.5929 134.326C18.7129 134.384 18.8536 134.413 19.0191 134.413H20.3185V133.031H19.6978C19.6316 133.031 19.5778 133.01 19.5405 132.973L19.5447 132.96ZM17.6452 132.507C17.5045 132.742 17.3142 132.919 17.0659 133.031C16.8217 133.146 16.5403 133.204 16.2217 133.204C15.9692 133.204 15.7582 133.171 15.5803 133.105C15.4023 133.039 15.2657 132.936 15.1747 132.804C15.0837 132.668 15.0381 132.515 15.0381 132.342C15.0381 132.177 15.0795 132.032 15.1623 131.904C15.2451 131.777 15.3692 131.665 15.5389 131.574C15.7085 131.484 15.9113 131.434 16.1513 131.422L17.8563 131.277V131.665C17.8563 131.991 17.7859 132.272 17.6452 132.507Z" fill="black"/>
<path d="M26.843 128.082C26.7768 127.991 26.7023 127.901 26.6195 127.818C26.3919 127.604 26.1147 127.439 25.7878 127.327C25.4608 127.216 25.1091 127.162 24.7325 127.162C24.0662 127.162 23.4786 127.319 22.9613 127.628C22.4441 127.942 22.0468 128.379 21.7695 128.94C21.4881 129.501 21.3516 130.153 21.3516 130.891C21.3516 131.63 21.4923 132.282 21.7695 132.843C22.0468 133.404 22.4482 133.841 22.9613 134.155C23.4745 134.468 24.0662 134.621 24.7325 134.621C25.138 134.621 25.5146 134.559 25.8581 134.435C26.2057 134.311 26.4995 134.134 26.7478 133.911C26.8637 133.808 26.9589 133.692 27.0458 133.569V134.41H28.5645V124.328H26.8471V128.082H26.843ZM26.6361 132.03C26.4788 132.356 26.2595 132.612 25.9781 132.793C25.6967 132.975 25.3739 133.065 25.0098 133.065C24.6456 133.065 24.3021 132.975 24.0207 132.793C23.7352 132.612 23.5159 132.356 23.3627 132.03C23.2096 131.704 23.131 131.325 23.131 130.891C23.131 130.458 23.2096 130.079 23.3627 129.753C23.5159 129.427 23.7352 129.171 24.0207 128.99C24.3063 128.808 24.6332 128.717 25.0098 128.717C25.3863 128.717 25.6967 128.808 25.9781 128.99C26.2554 129.171 26.4747 129.427 26.6361 129.753C26.7933 130.079 26.8761 130.458 26.8761 130.891C26.8761 131.325 26.7975 131.704 26.6361 132.03Z" fill="black"/>
<path d="M33.7836 127.16C33.109 127.16 32.509 127.313 31.9834 127.614C31.4579 127.915 31.0523 128.344 30.7626 128.901C30.473 129.458 30.3281 130.106 30.3281 130.844C30.3281 131.583 30.473 132.267 30.7626 132.833C31.0523 133.398 31.462 133.839 31.9958 134.149C32.5297 134.462 33.1545 134.615 33.8663 134.615C34.4333 134.615 34.934 134.524 35.3685 134.342C35.803 134.161 36.163 133.897 36.4527 133.559C36.7424 133.216 36.9576 132.816 37.1024 132.354H35.3395C35.2154 132.606 35.0292 132.804 34.785 132.952C34.5408 133.101 34.2388 133.175 33.8829 133.175C33.4897 133.175 33.1504 133.101 32.8731 132.952C32.5917 132.804 32.3807 132.585 32.2359 132.296C32.1158 132.057 32.0496 131.785 32.0289 131.475H37.1935C37.2017 131.339 37.21 131.211 37.2141 131.088C37.2183 130.964 37.2224 130.848 37.2224 130.741C37.2224 129.636 36.9162 128.765 36.3037 128.122C35.6913 127.478 34.8512 127.156 33.7836 127.156V127.16ZM35.4885 130.135V130.155H32.0289C32.0455 129.867 32.1117 129.607 32.2317 129.376C32.3724 129.108 32.5752 128.901 32.84 128.757C33.1049 128.612 33.4194 128.542 33.7877 128.542C34.3257 128.542 34.7478 128.687 35.0457 128.975C35.3437 129.264 35.4926 129.644 35.4926 130.114V130.135H35.4885Z" fill="black"/>
<path d="M54.6922 132.6L53.3183 127.484H51.3402L49.9663 132.6L48.5965 127.484H46.8047L48.9152 134.51H50.9512L52.3375 129.411L53.7114 134.51H55.7474L57.8579 127.484H56.0661L54.6922 132.6Z" fill="black"/>
<path d="M60.9908 127.484H59.2734V134.514H60.9908V127.484Z" fill="black"/>
<path d="M61.0685 124.5H59.2188V126.257H61.0685V124.5Z" fill="black"/>
<path d="M65.8305 125.422H64.109V127.48H62.3047V128.994H64.109V132.724C64.109 133.157 64.171 133.503 64.2952 133.759C64.4193 134.019 64.6138 134.209 64.8787 134.328C65.1435 134.448 65.487 134.51 65.9132 134.51H67.9782V132.996H66.4884C66.2567 132.996 66.087 132.942 65.9836 132.839C65.876 132.732 65.8263 132.567 65.8263 132.336V128.994H67.9782V127.48H65.8263V125.422H65.8305Z" fill="black"/>
<path d="M74.6346 127.619C74.2167 127.384 73.7159 127.264 73.1407 127.264C72.7559 127.264 72.4 127.326 72.0772 127.45C71.7544 127.574 71.4813 127.763 71.2537 128.011C71.2454 128.019 71.2413 128.031 71.233 128.04V124.422H69.5156V134.504H71.233V130.486C71.233 130.152 71.2992 129.859 71.4275 129.607C71.5558 129.36 71.742 129.162 71.9779 129.026C72.2138 128.885 72.4869 128.815 72.7931 128.815C73.0993 128.815 73.36 128.877 73.5752 128.997C73.7863 129.116 73.9477 129.294 74.0594 129.529C74.1711 129.764 74.2249 130.065 74.2249 130.428V134.504H75.9423V130.255C75.9423 129.62 75.8306 129.079 75.603 128.634C75.3754 128.188 75.0526 127.846 74.6346 127.611V127.619Z" fill="black"/>
<path d="M111.869 127.632C111.36 127.319 110.772 127.166 110.106 127.166C109.721 127.166 109.365 127.22 109.038 127.331C108.711 127.443 108.434 127.604 108.206 127.822C108.12 127.905 108.049 127.991 107.983 128.082V124.328H106.266V134.41H107.784V133.569C107.867 133.692 107.966 133.808 108.082 133.911C108.326 134.138 108.624 134.311 108.976 134.435C109.328 134.559 109.705 134.621 110.11 134.621C110.776 134.621 111.364 134.464 111.873 134.155C112.382 133.841 112.779 133.404 113.065 132.843C113.35 132.282 113.491 131.63 113.491 130.891C113.491 130.153 113.35 129.501 113.065 128.94C112.779 128.379 112.382 127.942 111.873 127.628L111.869 127.632ZM111.472 132.03C111.314 132.356 111.091 132.612 110.805 132.793C110.52 132.975 110.197 133.065 109.829 133.065C109.46 133.065 109.125 132.975 108.848 132.793C108.566 132.612 108.351 132.356 108.19 132.03C108.033 131.704 107.95 131.325 107.95 130.891C107.95 130.458 108.029 130.079 108.19 129.753C108.347 129.427 108.566 129.171 108.848 128.99C109.125 128.808 109.456 128.717 109.829 128.717C110.201 128.717 110.52 128.808 110.805 128.99C111.091 129.171 111.31 129.427 111.472 129.753C111.629 130.079 111.712 130.458 111.712 130.891C111.712 131.325 111.633 131.704 111.472 132.03Z" fill="black"/>
<path d="M117.843 131.913L115.981 127.375H114.016L116.925 133.872L116.416 134.994C116.35 135.159 116.25 135.279 116.126 135.353C116.002 135.432 115.836 135.469 115.634 135.469H114.26V136.995H116.052C116.387 136.995 116.664 136.954 116.883 136.871C117.099 136.789 117.277 136.669 117.417 136.512C117.558 136.356 117.686 136.149 117.802 135.902L121.618 127.375H119.697L117.848 131.913H117.843Z" fill="black"/>
<path d="M134.345 126.135C134.758 125.891 135.251 125.768 135.818 125.768C136.203 125.768 136.55 125.838 136.865 125.982C137.179 126.127 137.436 126.337 137.647 126.618C137.854 126.898 137.99 127.236 138.061 127.641H139.923C139.815 126.89 139.579 126.255 139.215 125.726C138.851 125.198 138.379 124.798 137.8 124.522C137.221 124.25 136.563 124.109 135.822 124.109C134.878 124.109 134.063 124.307 133.372 124.699C132.685 125.091 132.147 125.685 131.766 126.477C131.386 127.269 131.195 128.239 131.195 129.377C131.195 130.516 131.39 131.485 131.775 132.273C132.16 133.061 132.697 133.647 133.384 134.039C134.071 134.427 134.874 134.621 135.789 134.621C136.542 134.621 137.204 134.472 137.783 134.175C138.363 133.878 138.83 133.453 139.186 132.9C139.542 132.348 139.782 131.696 139.91 130.949H138.061C137.994 131.362 137.862 131.72 137.663 132.022C137.465 132.323 137.208 132.558 136.89 132.719C136.571 132.884 136.207 132.962 135.793 132.962C135.255 132.962 134.775 132.834 134.361 132.579C133.947 132.323 133.62 131.927 133.384 131.39C133.149 130.854 133.029 130.178 133.029 129.361C133.029 128.544 133.144 127.839 133.376 127.302C133.608 126.766 133.931 126.374 134.345 126.127V126.135Z" fill="black"/>
<path d="M146.669 127.63C146.11 127.317 145.469 127.164 144.749 127.164C144.029 127.164 143.4 127.321 142.841 127.63C142.282 127.944 141.848 128.381 141.542 128.946C141.231 129.511 141.078 130.159 141.078 130.889C141.078 131.619 141.231 132.279 141.542 132.84C141.848 133.401 142.282 133.839 142.841 134.152C143.4 134.466 144.037 134.618 144.749 134.618C145.461 134.618 146.11 134.462 146.665 134.152C147.219 133.839 147.654 133.401 147.964 132.836C148.279 132.271 148.432 131.623 148.432 130.893C148.432 130.163 148.279 129.503 147.968 128.942C147.658 128.381 147.228 127.944 146.669 127.63ZM146.416 132.019C146.259 132.35 146.032 132.609 145.746 132.791C145.456 132.972 145.125 133.063 144.749 133.063C144.372 133.063 144.054 132.972 143.768 132.791C143.478 132.609 143.255 132.354 143.098 132.028C142.94 131.702 142.858 131.322 142.858 130.889C142.858 130.456 142.936 130.089 143.098 129.759C143.255 129.429 143.482 129.169 143.768 128.987C144.058 128.806 144.389 128.715 144.765 128.715C145.142 128.715 145.461 128.806 145.746 128.987C146.036 129.169 146.259 129.425 146.416 129.751C146.574 130.076 146.656 130.456 146.656 130.889C146.656 131.322 146.578 131.689 146.416 132.019Z" fill="black"/>
<path d="M151.874 127.375H150.156V134.404H151.874V127.375Z" fill="black"/>
<path d="M151.944 124.398H150.094V126.156H151.944V124.398Z" fill="black"/>
<path d="M159.159 127.511C158.741 127.276 158.24 127.156 157.665 127.156C157.271 127.156 156.907 127.222 156.572 127.358C156.241 127.495 155.96 127.688 155.732 127.948C155.666 128.027 155.604 128.109 155.55 128.2V127.375H154.031V134.404H155.749V130.386C155.749 130.052 155.815 129.759 155.943 129.508C156.071 129.26 156.258 129.062 156.494 128.926C156.729 128.786 157.003 128.716 157.309 128.716C157.615 128.716 157.876 128.777 158.091 128.897C158.302 129.017 158.463 129.194 158.575 129.429C158.687 129.664 158.741 129.966 158.741 130.329V134.404H160.458V130.155C160.458 129.52 160.346 128.98 160.119 128.534C159.891 128.089 159.568 127.746 159.15 127.511H159.159Z" fill="black"/>
<path d="M167.038 127.385L164.944 129.831H164.249V124.328H162.531V134.41H164.249V131.403H164.944L167.067 134.41H169.148L166.446 130.574L169.148 127.385H167.038Z" fill="black"/>
<path d="M172.194 124.398H170.344V126.156H172.194V124.398Z" fill="black"/>
<path d="M172.124 127.375H170.406V134.404H172.124V127.375Z" fill="black"/>
<path d="M176.963 125.312H175.242V127.371H173.438V128.885H175.242V132.614C175.242 133.047 175.304 133.394 175.428 133.65C175.552 133.91 175.747 134.099 176.011 134.219C176.276 134.339 176.62 134.4 177.046 134.4H179.111V132.886H177.621C177.39 132.886 177.22 132.833 177.116 132.73C177.009 132.622 176.959 132.457 176.959 132.226V128.885H179.111V127.371H176.959V125.312H176.963Z" fill="black"/>
<path d="M186.046 128.122C185.433 127.478 184.593 127.156 183.526 127.156C182.851 127.156 182.251 127.309 181.726 127.61C181.2 127.911 180.794 128.34 180.505 128.897C180.215 129.454 180.07 130.102 180.07 130.84C180.07 131.579 180.215 132.263 180.505 132.828C180.794 133.394 181.204 133.835 181.738 134.144C182.272 134.458 182.897 134.611 183.608 134.611C184.175 134.611 184.676 134.52 185.111 134.338C185.545 134.157 185.905 133.893 186.195 133.555C186.485 133.212 186.7 132.812 186.845 132.35H185.082C184.958 132.602 184.771 132.8 184.527 132.948C184.283 133.097 183.981 133.171 183.625 133.171C183.232 133.171 182.893 133.097 182.615 132.948C182.334 132.8 182.123 132.581 181.978 132.292C181.858 132.053 181.792 131.781 181.771 131.471H186.936C186.944 131.335 186.952 131.207 186.956 131.083C186.96 130.96 186.965 130.844 186.965 130.737C186.965 129.631 186.658 128.761 186.046 128.117V128.122ZM185.227 130.131V130.151H181.767C181.784 129.862 181.85 129.603 181.97 129.372C182.11 129.103 182.313 128.897 182.578 128.753C182.843 128.608 183.157 128.538 183.526 128.538C184.064 128.538 184.486 128.683 184.784 128.971C185.082 129.26 185.231 129.64 185.231 130.11V130.131H185.227Z" fill="black"/>
<path d="M91.499 134.565L96.527 129.495C96.6305 129.392 96.6884 129.252 96.6884 129.108V127.342C96.6884 127.194 96.6305 127.053 96.5229 126.95L94.3668 125.143C94.1475 124.925 93.7875 124.933 93.5764 125.16L91.3666 127.214C91.2259 127.363 90.9859 127.363 90.8452 127.214L88.6354 125.16C88.4243 124.933 88.0643 124.925 87.845 125.143L85.689 126.95C85.5855 127.053 85.5234 127.194 85.5234 127.342V129.108C85.5234 129.252 85.5814 129.392 85.6848 129.495L90.7128 134.565C90.928 134.784 91.2797 134.784 91.499 134.565Z" fill="#E20000"/>
<path d="M133.834 54.407H104.75C101.018 54.407 97.9844 51.379 97.9844 47.6622V5.25033C97.9844 2.4039 100.302 0.09375 103.157 0.09375C106.013 0.09375 108.33 2.4039 108.33 5.25033V44.0938H133.834C136.689 44.0938 139.007 46.404 139.007 49.2504C139.007 52.0968 136.689 54.407 133.834 54.407Z" fill="#E20000"/>
<path d="M76.8002 54.7257H62.2088C60.8349 54.7257 59.5189 54.1812 58.5506 53.2159L50.5224 45.2129C49.5541 44.2476 49.0078 42.9357 49.0078 41.5662V13.1596C49.0078 11.79 49.5541 10.4782 50.5224 9.51286L58.5506 1.50985C59.5189 0.544535 60.8349 0 62.2088 0H76.8002C78.1741 0 79.4859 0.544535 80.4584 1.50985L88.4866 9.51286C89.4549 10.4782 90.0012 11.79 90.0012 13.1596V41.5662C90.0012 42.9357 89.4549 44.2476 88.4866 45.2129L80.4584 53.2159C79.49 54.1812 78.1741 54.7257 76.8002 54.7257ZM64.3483 44.4126H74.6566L79.6556 39.4293V15.2965L74.6566 10.3132H64.3483L59.3493 15.2965V39.4293L64.3483 44.4126Z" fill="#E20000"/>
<path d="M174.797 54.7257H152.173C149.317 54.7257 147 52.4156 147 49.5692V5.15658C147 2.31015 149.317 0 152.173 0H174.797C176.17 0 177.486 0.544535 178.455 1.50985L186.483 9.51286C187.451 10.4782 187.997 11.79 187.997 13.1596V41.5662C187.997 42.9357 187.451 44.2476 186.483 45.2129L178.455 53.2159C177.486 54.1812 176.17 54.7257 174.797 54.7257ZM157.35 44.4126H172.657L177.656 39.4293V15.2965L172.657 10.3132H157.35V44.4126Z" fill="#E20000"/>
<path d="M27.7965 54.7257H13.201C11.8271 54.7257 10.5153 54.1812 9.54277 53.2159L1.51459 45.2129C0.546247 44.2476 0 42.9357 0 41.5662V13.1596C0 11.79 0.546247 10.4782 1.51459 9.51286L9.54277 1.50985C10.5111 0.544535 11.8271 0 13.201 0H27.7924C29.1663 0 30.4822 0.544535 31.4506 1.50985L39.4788 9.51286C41.4982 11.526 41.4982 14.7932 39.4788 16.8063C37.4593 18.8195 34.1818 18.8195 32.1624 16.8063L25.6488 10.3132H15.3404L10.3414 15.2965V39.4293L15.3404 44.4126H25.6488L32.1624 37.9194C34.1818 35.9063 37.4593 35.9063 39.4788 37.9194C41.4982 39.9325 41.4982 43.1998 39.4788 45.2129L31.4506 53.2159C30.4822 54.1812 29.1663 54.7257 27.7924 54.7257H27.7965Z" fill="#E20000"/>
<path d="M174.797 117.71H152.173C149.317 117.71 147 115.4 147 112.554V68.141C147 65.2945 149.317 62.9844 152.173 62.9844H174.797C176.17 62.9844 177.486 63.5289 178.455 64.4942L186.483 72.4972C187.451 73.4625 187.997 74.7744 187.997 76.144V104.551C187.997 105.92 187.451 107.232 186.483 108.197L178.455 116.2C177.486 117.166 176.17 117.71 174.797 117.71ZM157.35 107.397H172.657L177.656 102.414V78.2809L172.657 73.2975H157.35V107.397Z" fill="#E20000"/>
<path d="M27.7965 117.71H13.201C11.8271 117.71 10.5153 117.166 9.54277 116.2L1.51459 108.197C0.546247 107.232 0 105.92 0 104.551V76.144C0 74.7744 0.546247 73.4625 1.51459 72.4972L9.54277 64.4942C10.5111 63.5289 11.8271 62.9844 13.201 62.9844H27.7924C29.1663 62.9844 30.4822 63.5289 31.4506 64.4942L39.4788 72.4972C41.4982 74.5104 41.4982 77.7776 39.4788 79.7907C37.4593 81.8038 34.1818 81.8038 32.1624 79.7907L25.6488 73.2975H15.3404L10.3414 78.2809V102.414L15.3404 107.397H25.6488L32.1624 100.904C34.1818 98.8907 37.4593 98.8907 39.4788 100.904C41.4982 102.917 41.4982 106.184 39.4788 108.197L31.4506 116.2C30.4822 117.166 29.1663 117.71 27.7924 117.71H27.7965Z" fill="#E20000"/>
<path d="M88.4866 72.4972L80.4584 64.4942C79.4901 63.5289 78.1741 62.9844 76.8002 62.9844H62.2088C60.8349 62.9844 59.5189 63.5289 58.5506 64.4942L50.5224 72.4972C49.5541 73.4625 49.0078 74.7744 49.0078 76.144V112.554C49.0078 115.4 51.3252 117.71 54.1806 117.71C57.036 117.71 59.3534 115.4 59.3534 112.554V101.539H79.6597V112.554C79.6597 115.4 81.9771 117.71 84.8325 117.71C87.6879 117.71 90.0053 115.4 90.0053 112.554V76.144C90.0053 74.7744 89.4591 73.4625 88.4907 72.4972H88.4866ZM59.3493 91.2259V78.2809L64.3483 73.2975H74.6566L79.6556 78.2809V91.2259H59.3493Z" fill="#E20000"/>
<path d="M136.295 93.5773C138.041 91.8365 139.001 89.5222 139.001 87.0635V77.8229C139.001 75.3643 138.041 73.05 136.295 71.3092L130.65 65.6823C128.904 63.9414 126.582 62.9844 124.116 62.9844H103.181C100.325 62.9844 98.0078 65.2945 98.0078 68.141V112.554C98.0078 115.4 100.325 117.71 103.181 117.71C106.036 117.71 108.353 115.4 108.353 112.554V101.902H117.549L129.955 115.895C130.977 117.046 132.401 117.636 133.833 117.636C135.049 117.636 136.274 117.211 137.255 116.345C139.394 114.459 139.597 111.2 137.706 109.068L129.69 100.029C130.025 99.7776 130.348 99.5095 130.65 99.2083L136.295 93.5815V93.5773ZM108.353 73.2975H123.661L128.66 78.2809V86.6056L123.661 91.5889H108.353V73.2975Z" fill="#E20000"/>
<path d="M183.436 113.979L183.093 113.641L181.438 115.291L181.781 115.633L182.422 114.99L184.169 116.73L184.537 116.363L182.791 114.622L183.436 113.979Z" fill="black"/>
<path d="M187.727 113.177L185.641 111.094L185.128 111.605L186.159 113.775L183.982 112.744L183.469 113.255L185.559 115.339L185.914 114.984L184.329 113.404L186.477 114.423L186.808 114.097L185.794 111.96L187.371 113.532L187.727 113.177Z" fill="black"/>
</svg>
