<svg width="94" height="43" viewBox="0 0 94 43" fill="none" xmlns="http://www.w3.org/2000/svg">
<g clip-path="url(#clip0_1457_2527)">
<path d="M36.0016 15.1001H26.0016C24.9522 15.1001 24.1016 15.9508 24.1016 17.0001V26.0001C24.1016 27.0494 24.9522 27.9001 26.0016 27.9001H36.0016C37.0509 27.9001 37.9016 27.0494 37.9016 26.0001V17.0001C37.9016 15.9508 37.0509 15.1001 36.0016 15.1001Z" fill="white"/>
<path d="M28.0016 30.1001H18.0016C16.9522 30.1001 16.1016 30.9508 16.1016 32.0001V41.0001C16.1016 42.0494 16.9522 42.9001 18.0016 42.9001H28.0016C29.0509 42.9001 29.9016 42.0494 29.9016 41.0001V32.0001C29.9016 30.9508 29.0509 30.1001 28.0016 30.1001Z" fill="white"/>
<path d="M20.0016 15.1001H10.0016C8.95222 15.1001 8.10156 15.9508 8.10156 17.0001V26.0001C8.10156 27.0494 8.95222 27.9001 10.0016 27.9001H20.0016C21.0509 27.9001 21.9016 27.0494 21.9016 26.0001V17.0001C21.9016 15.9508 21.0509 15.1001 20.0016 15.1001Z" fill="white"/>
<path d="M52.0016 15.1001H42.0016C40.9522 15.1001 40.1016 15.9508 40.1016 17.0001V26.0001C40.1016 27.0494 40.9522 27.9001 42.0016 27.9001H52.0016C53.0509 27.9001 53.9016 27.0494 53.9016 26.0001V17.0001C53.9016 15.9508 53.0509 15.1001 52.0016 15.1001Z" fill="white"/>
<path d="M44.0016 30.1001H34.0016C32.9522 30.1001 32.1016 30.9508 32.1016 32.0001V41.0001C32.1016 42.0494 32.9522 42.9001 34.0016 42.9001H44.0016C45.0509 42.9001 45.9016 42.0494 45.9016 41.0001V32.0001C45.9016 30.9508 45.0509 30.1001 44.0016 30.1001Z" fill="white"/>
<path d="M68.0016 15.1001H58.0016C56.9522 15.1001 56.1016 15.9508 56.1016 17.0001V26.0001C56.1016 27.0494 56.9522 27.9001 58.0016 27.9001H68.0016C69.0509 27.9001 69.9016 27.0494 69.9016 26.0001V17.0001C69.9016 15.9508 69.0509 15.1001 68.0016 15.1001Z" fill="white"/>
<path d="M60.0016 30.1001H50.0016C48.9522 30.1001 48.1016 30.9508 48.1016 32.0001V41.0001C48.1016 42.0494 48.9522 42.9001 50.0016 42.9001H60.0016C61.0509 42.9001 61.9016 42.0494 61.9016 41.0001V32.0001C61.9016 30.9508 61.0509 30.1001 60.0016 30.1001Z" fill="white"/>
<path d="M84.0016 15.1001H74.0016C72.9522 15.1001 72.1016 15.9508 72.1016 17.0001V26.0001C72.1016 27.0494 72.9522 27.9001 74.0016 27.9001H84.0016C85.0509 27.9001 85.9016 27.0494 85.9016 26.0001V17.0001C85.9016 15.9508 85.0509 15.1001 84.0016 15.1001Z" fill="white"/>
<path d="M76.0016 30.1001H66.0016C64.9522 30.1001 64.1016 30.9508 64.1016 32.0001V41.0001C64.1016 42.0494 64.9522 42.9001 66.0016 42.9001H76.0016C77.0509 42.9001 77.9016 42.0494 77.9016 41.0001V32.0001C77.9016 30.9508 77.0509 30.1001 76.0016 30.1001Z" fill="white"/>
<path d="M8.28844 6.39988C8.28844 7.81988 7.61844 8.45988 6.71844 8.45988C5.81844 8.45988 5.14844 7.81988 5.14844 6.39988C5.14844 4.97988 5.81844 4.37988 6.71844 4.37988C7.61844 4.37988 8.28844 5.00988 8.28844 6.39988Z" fill="white"/>
<path d="M12.0016 0.100098H2.00156C0.951563 0.100098 0.101562 0.950098 0.101562 2.0001V11.0001C0.101562 12.0501 0.951563 12.9001 2.00156 12.9001H12.0016C13.0516 12.9001 13.9016 12.0501 13.9016 11.0001V2.0001C13.9016 0.950098 13.0516 0.100098 12.0016 0.100098ZM10.2316 10.0001H6.72156C4.81156 10.0001 3.45156 8.7301 3.45156 6.4001C3.45156 4.0701 4.81156 2.8301 6.72156 2.8301C8.63156 2.8301 9.99156 4.0801 9.99156 6.3001C9.99156 7.1401 9.70156 7.9601 9.14156 8.5501H10.2316V10.0001Z" fill="white"/>
<path d="M28.0016 0.100098H18.0016C16.9516 0.100098 16.1016 0.950098 16.1016 2.0001V11.0001C16.1016 12.0501 16.9516 12.9001 18.0016 12.9001H28.0016C29.0516 12.9001 29.9016 12.0501 29.9016 11.0001V2.0001C29.9016 0.950098 29.0516 0.100098 28.0016 0.100098ZM25.7316 10.0001H23.7816L22.8116 5.3201L21.8316 10.0001H19.8816L18.2016 3.0001H19.9816L20.9416 7.7001L21.9016 3.0001H23.7116L24.6716 7.6801L25.6316 3.0001H27.4116L25.7316 10.0001Z" fill="white"/>
<path d="M44.0016 0.100098H34.0016C32.9516 0.100098 32.1016 0.950098 32.1016 2.0001V11.0001C32.1016 12.0501 32.9516 12.9001 34.0016 12.9001H44.0016C45.0516 12.9001 45.9016 12.0501 45.9016 11.0001V2.0001C45.9016 0.950098 45.0516 0.100098 44.0016 0.100098ZM40.9316 4.5501H37.9516V5.5701H40.9316V7.1201H37.9516V8.4501H40.9316V10.0001H36.3016V3.0001H40.9316V4.5501Z" fill="white"/>
<path d="M55.8292 5.23005C55.8292 5.64005 55.5292 5.91005 55.0092 5.91005H53.4492V4.55005H55.0092C55.5292 4.55005 55.8292 4.82005 55.8292 5.23005Z" fill="white"/>
<path d="M60.0016 0.100098H50.0016C48.9516 0.100098 48.1016 0.950098 48.1016 2.0001V11.0001C48.1016 12.0501 48.9516 12.9001 50.0016 12.9001H60.0016C61.0516 12.9001 61.9016 12.0501 61.9016 11.0001V2.0001C61.9016 0.950098 61.0516 0.100098 60.0016 0.100098ZM55.7016 10.0001L53.9316 7.4101H53.4516V10.0001H51.8016V3.0001H55.0216C56.5116 3.0001 57.5016 3.8401 57.5016 5.2301C57.5016 6.3301 56.8716 7.0901 55.8716 7.3601L57.7016 10.0001H55.7016Z" fill="white"/>
<path d="M76.0016 0.100098H66.0016C64.9516 0.100098 64.1016 0.950098 64.1016 2.0001V11.0001C64.1016 12.0501 64.9516 12.9001 66.0016 12.9001H76.0016C77.0516 12.9001 77.9016 12.0501 77.9016 11.0001V2.0001C77.9016 0.950098 77.0516 0.100098 76.0016 0.100098ZM73.4816 4.5501H71.3916V10.0001H69.7416V4.5501H67.6516V3.0001H73.4816V4.5501Z" fill="white"/>
<path d="M92.0016 0.100098H82.0016C80.9516 0.100098 80.1016 0.950098 80.1016 2.0001V11.0001C80.1016 12.0501 80.9516 12.9001 82.0016 12.9001H92.0016C93.0516 12.9001 93.9016 12.0501 93.9016 11.0001V2.0001C93.9016 0.950098 93.0516 0.100098 92.0016 0.100098ZM87.3816 7.1501V10.0001H85.7316V7.1501L83.0516 3.0001H85.0116L86.5616 5.5001L88.1016 3.0001H90.0616L87.3816 7.1501Z" fill="white"/>
</g>
<defs>
<clipPath id="clip0_1457_2527">
<rect width="94" height="43" fill="white"/>
</clipPath>
</defs>
</svg>
