<svg width="72" height="66" viewBox="0 0 72 66" fill="none" xmlns="http://www.w3.org/2000/svg">
<path d="M36.8371 10.082H41.202V12.2643H39.0197V14.4468H34.654V20.9952H30.2891V18.8122H32.4714V12.2642H36.8371V10.082Z" fill="white"/>
<path d="M12.8359 10.082V25.3602H28.1143V10.082H12.8359ZM25.9311 23.177H15.0184V12.2645H25.9311V23.177Z" fill="white"/>
<path d="M43.3906 10.082V25.3602H58.6682V10.082H43.3906ZM56.485 23.177H45.5731V12.2645H56.4858V23.177H56.485Z" fill="white"/>
<path d="M17.2031 14.4492H23.7509V20.9969H17.2031V14.4492Z" fill="white"/>
<path d="M47.7578 14.4492H54.3056V20.9969H47.7578V14.4492Z" fill="white"/>
<path d="M36.8438 16.6289H39.0261V18.8112H36.8438V16.6289Z" fill="white"/>
<path d="M39.0296 18.8125H41.212V27.5426H39.0296V23.177H36.8471V25.3602H34.6641V20.9953H39.0297L39.0296 18.8125Z" fill="white"/>
<path d="M30.3033 23.1758H32.4856V25.359H34.6681V27.5413H32.4856V31.9061H34.6681V29.7237H36.8512V27.5414H39.0337V34.089H34.668V36.2715H32.4855V34.089H30.3032V29.7234H25.9375V27.5411H30.3032L30.3033 23.1758Z" fill="white"/>
<path d="M17.2031 27.543H21.568V29.726H17.2031V27.543Z" fill="white"/>
<path d="M41.2109 27.543H45.5766V29.7253H43.3941V31.9077H41.2111L41.2109 27.543Z" fill="white"/>
<path d="M47.7578 27.543H49.9409V29.726H47.7578V27.543Z" fill="white"/>
<path d="M12.8359 29.7227H17.2009V31.9051H19.3839V34.0882H17.2009V36.2706H15.0184V31.905H12.836L12.8359 29.7227Z" fill="white"/>
<path d="M21.5703 29.7227H25.9348V31.9051H23.7525V34.0882H25.9348V36.2706H21.5703V29.7227Z" fill="white"/>
<path d="M49.9351 29.7227H52.1183V31.9051H54.3007V38.4528H52.1183V36.2705H47.7519V38.4528H45.5703V34.0879H49.9348L49.9351 29.7227Z" fill="white"/>
<path d="M25.9375 31.9062H28.1198V34.0893H25.9375V31.9062Z" fill="white"/>
<path d="M56.4844 31.9062H58.6674V34.0893H56.4844V31.9062Z" fill="white"/>
<path d="M28.1208 34.0898H30.3032V38.4547H25.9375V36.2724H28.1207L28.1208 34.0898Z" fill="white"/>
<path d="M39.0234 34.0898H41.2065V36.2722H39.0234V34.0898Z" fill="white"/>
<path d="M12.8359 36.2734H15.0183V38.4565H12.8359V36.2734Z" fill="white"/>
<path d="M17.2031 36.2734H19.3855V38.4565H17.2031V36.2734Z" fill="white"/>
<path d="M34.6538 36.2734H39.0195V38.4558H36.837V42.8214H34.6539V47.1858H32.4714V42.8214H30.2891V38.4558H32.4714V40.6381H34.6539L34.6538 36.2734Z" fill="white"/>
<path d="M41.2109 36.2734H43.394V38.4565H41.2109V36.2734Z" fill="white"/>
<path d="M56.4844 36.2734H58.6674V38.4565H56.4844V36.2734Z" fill="white"/>
<path d="M39.0234 38.4531H41.2065V42.818H39.0234V38.4531Z" fill="white"/>
<path d="M49.9375 38.4531H52.1206V42.818H49.9375V38.4531Z" fill="white"/>
<path d="M54.3047 38.4531H56.487V40.6354H54.3047V38.4531Z" fill="white"/>
<path d="M45.5801 40.6367H47.7617V42.8199H49.9447V47.1844H56.4921V49.3669H47.7619V53.7317H45.5803V49.3669H43.3978V51.5499H41.2148V53.7316H43.3978V55.9146H32.4844V53.7316H39.0325V49.3667H41.2149V42.8198H45.5805L45.5801 40.6367Z" fill="white"/>
<path d="M12.8359 40.6367V55.9149H28.1143V40.6367H12.8359ZM25.9311 53.7317H15.0184V42.8199H25.9311V53.7317Z" fill="white"/>
<path d="M36.8438 42.8203H39.0261V45.0026H36.8438V42.8203Z" fill="white"/>
<path d="M52.125 42.8203H56.4892V45.0026H52.125V42.8203Z" fill="white"/>
<path d="M17.2031 45.0039H23.7509V51.5516H17.2031V45.0039Z" fill="white"/>
<path d="M56.4844 45.0039H58.6674V47.1869H56.4844V45.0039Z" fill="white"/>
<path d="M30.2891 47.1836H32.4715V49.3661H34.654V51.5491H30.2891L30.2891 47.1836Z" fill="white"/>
<path d="M34.6641 47.1836H39.029V49.3659H34.6641V47.1836Z" fill="white"/>
<path d="M52.125 51.5508H54.3073V53.7331H52.125V51.5508Z" fill="white"/>
<path d="M56.4844 51.5508H58.6674V53.7331H56.4844V51.5508Z" fill="white"/>
<path d="M47.7578 53.7305H49.9409V55.9135H47.7578V53.7305Z" fill="white"/>
<path d="M2 28L2 8.34465e-07" stroke="white" stroke-width="4"/>
<path d="M43 2L71 2" stroke="white" stroke-width="4"/>
<path d="M28 64L8.34465e-07 64" stroke="white" stroke-width="4"/>
<path d="M28 1.99999L1 2" stroke="white" stroke-width="4"/>
<path d="M43 64L71 64" stroke="white" stroke-width="4"/>
<path d="M70 28L70 1" stroke="white" stroke-width="4"/>
<path d="M2 38L2 65" stroke="white" stroke-width="4"/>
<path d="M70 38L70 66" stroke="white" stroke-width="4"/>
</svg>
