<svg width="27" height="51" viewBox="0 0 27 51" fill="none" xmlns="http://www.w3.org/2000/svg">
<path fill-rule="evenodd" clip-rule="evenodd" d="M5 8C2.23858 8 0 10.2386 0 13V46C0 48.7614 2.23858 51 5 51H22C24.7614 51 27 48.7614 27 46V13C27 10.2386 24.7614 8 22 8H5ZM21 14H6V45H21V14Z" fill="white"/>
<path d="M7 3.31818V6H20V3.31818C20 2.09889 19.2756 1.21511 18.5397 0.723428C17.7995 0.22883 16.8964 0 16 0H11.0714C10.1776 0 9.2749 0.227169 8.53339 0.699041C7.81649 1.15525 7 2.03229 7 3.31818Z" fill="white"/>
<path d="M16.6995 22.6276C16.7819 22.3733 16.6482 22.1606 16.4822 22.0655C16.3256 21.9757 16.0846 21.9596 15.9125 22.1371L8.47132 30.4281L8.10229 30.8088C7.96843 30.9478 7.9914 31.1278 8.02951 31.2261C8.05057 31.2805 8.08396 31.335 8.13052 31.3796C8.175 31.4222 8.25174 31.4738 8.35498 31.4738L8.57821 31.474L12.3001 31.3345L10.1295 37.1121L10.1258 37.1235C10.0435 37.3778 10.1771 37.5905 10.3431 37.6856C10.4998 37.7753 10.7407 37.7914 10.9128 37.6139L18.354 29.3229L18.723 28.9422C18.7718 28.8916 18.8128 28.8226 18.8231 28.7365C18.8332 28.6532 18.811 28.583 18.7874 28.5345C18.7499 28.4571 18.6857 28.3915 18.6547 28.3598L18.648 28.3529L18.5746 28.2772L18.2471 28.2771L14.5252 28.4166L16.6958 22.639L16.6995 22.6276Z" fill="white"/>
</svg>
