<svg width="94" height="43" viewBox="0 0 94 43" fill="none" xmlns="http://www.w3.org/2000/svg">
<g clip-path="url(#clip0_3205_3803)">
<path d="M36.0016 15.1016H26.0016C24.9522 15.1016 24.1016 15.9522 24.1016 17.0016V26.0016C24.1016 27.0509 24.9522 27.9016 26.0016 27.9016H36.0016C37.0509 27.9016 37.9016 27.0509 37.9016 26.0016V17.0016C37.9016 15.9522 37.0509 15.1016 36.0016 15.1016Z" fill="white"/>
<path d="M28.0016 30.1016H18.0016C16.9522 30.1016 16.1016 30.9522 16.1016 32.0016V41.0016C16.1016 42.0509 16.9522 42.9016 18.0016 42.9016H28.0016C29.0509 42.9016 29.9016 42.0509 29.9016 41.0016V32.0016C29.9016 30.9522 29.0509 30.1016 28.0016 30.1016Z" fill="white"/>
<path d="M20.0016 15.1016H10.0016C8.95222 15.1016 8.10156 15.9522 8.10156 17.0016V26.0016C8.10156 27.0509 8.95222 27.9016 10.0016 27.9016H20.0016C21.0509 27.9016 21.9016 27.0509 21.9016 26.0016V17.0016C21.9016 15.9522 21.0509 15.1016 20.0016 15.1016Z" fill="white"/>
<path d="M52.0016 15.1016H42.0016C40.9522 15.1016 40.1016 15.9522 40.1016 17.0016V26.0016C40.1016 27.0509 40.9522 27.9016 42.0016 27.9016H52.0016C53.0509 27.9016 53.9016 27.0509 53.9016 26.0016V17.0016C53.9016 15.9522 53.0509 15.1016 52.0016 15.1016Z" fill="white"/>
<path d="M44.0016 30.1016H34.0016C32.9522 30.1016 32.1016 30.9522 32.1016 32.0016V41.0016C32.1016 42.0509 32.9522 42.9016 34.0016 42.9016H44.0016C45.0509 42.9016 45.9016 42.0509 45.9016 41.0016V32.0016C45.9016 30.9522 45.0509 30.1016 44.0016 30.1016Z" fill="white"/>
<path d="M68.0016 15.1016H58.0016C56.9522 15.1016 56.1016 15.9522 56.1016 17.0016V26.0016C56.1016 27.0509 56.9522 27.9016 58.0016 27.9016H68.0016C69.0509 27.9016 69.9016 27.0509 69.9016 26.0016V17.0016C69.9016 15.9522 69.0509 15.1016 68.0016 15.1016Z" fill="white"/>
<path d="M60.0016 30.1016H50.0016C48.9522 30.1016 48.1016 30.9522 48.1016 32.0016V41.0016C48.1016 42.0509 48.9522 42.9016 50.0016 42.9016H60.0016C61.0509 42.9016 61.9016 42.0509 61.9016 41.0016V32.0016C61.9016 30.9522 61.0509 30.1016 60.0016 30.1016Z" fill="white"/>
<path d="M84.0016 15.1016H74.0016C72.9522 15.1016 72.1016 15.9522 72.1016 17.0016V26.0016C72.1016 27.0509 72.9522 27.9016 74.0016 27.9016H84.0016C85.0509 27.9016 85.9016 27.0509 85.9016 26.0016V17.0016C85.9016 15.9522 85.0509 15.1016 84.0016 15.1016Z" fill="white"/>
<path d="M76.0016 30.1016H66.0016C64.9522 30.1016 64.1016 30.9522 64.1016 32.0016V41.0016C64.1016 42.0509 64.9522 42.9016 66.0016 42.9016H76.0016C77.0509 42.9016 77.9016 42.0509 77.9016 41.0016V32.0016C77.9016 30.9522 77.0509 30.1016 76.0016 30.1016Z" fill="white"/>
<path d="M8.28844 6.39891C8.28844 7.81891 7.61844 8.45891 6.71844 8.45891C5.81844 8.45891 5.14844 7.81891 5.14844 6.39891C5.14844 4.97891 5.81844 4.37891 6.71844 4.37891C7.61844 4.37891 8.28844 5.00891 8.28844 6.39891Z" fill="white"/>
<path d="M12.0016 0.101562H2.00156C0.951563 0.101562 0.101562 0.951563 0.101562 2.00156V11.0016C0.101562 12.0516 0.951563 12.9016 2.00156 12.9016H12.0016C13.0516 12.9016 13.9016 12.0516 13.9016 11.0016V2.00156C13.9016 0.951563 13.0516 0.101562 12.0016 0.101562ZM10.2316 10.0016H6.72156C4.81156 10.0016 3.45156 8.73156 3.45156 6.40156C3.45156 4.07156 4.81156 2.83156 6.72156 2.83156C8.63156 2.83156 9.99156 4.08156 9.99156 6.30156C9.99156 7.14156 9.70156 7.96156 9.14156 8.55156H10.2316V10.0016Z" fill="white"/>
<path d="M28.0016 0.101562H18.0016C16.9516 0.101562 16.1016 0.951563 16.1016 2.00156V11.0016C16.1016 12.0516 16.9516 12.9016 18.0016 12.9016H28.0016C29.0516 12.9016 29.9016 12.0516 29.9016 11.0016V2.00156C29.9016 0.951563 29.0516 0.101562 28.0016 0.101562ZM25.7316 10.0016H23.7816L22.8116 5.32156L21.8316 10.0016H19.8816L18.2016 3.00156H19.9816L20.9416 7.70156L21.9016 3.00156H23.7116L24.6716 7.68156L25.6316 3.00156H27.4116L25.7316 10.0016Z" fill="white"/>
<path d="M44.0016 0.101562H34.0016C32.9516 0.101562 32.1016 0.951563 32.1016 2.00156V11.0016C32.1016 12.0516 32.9516 12.9016 34.0016 12.9016H44.0016C45.0516 12.9016 45.9016 12.0516 45.9016 11.0016V2.00156C45.9016 0.951563 45.0516 0.101562 44.0016 0.101562ZM40.9316 4.55156H37.9516V5.57156H40.9316V7.12156H37.9516V8.45156H40.9316V10.0016H36.3016V3.00156H40.9316V4.55156Z" fill="white"/>
<path d="M55.8331 5.23078C55.8331 5.64078 55.5331 5.91078 55.0131 5.91078H53.4531V4.55078H55.0131C55.5331 4.55078 55.8331 4.82078 55.8331 5.23078Z" fill="white"/>
<path d="M60.0016 0.101562H50.0016C48.9516 0.101562 48.1016 0.951563 48.1016 2.00156V11.0016C48.1016 12.0516 48.9516 12.9016 50.0016 12.9016H60.0016C61.0516 12.9016 61.9016 12.0516 61.9016 11.0016V2.00156C61.9016 0.951563 61.0516 0.101562 60.0016 0.101562ZM55.7016 10.0016L53.9316 7.41156H53.4516V10.0016H51.8016V3.00156H55.0216C56.5116 3.00156 57.5016 3.84156 57.5016 5.23156C57.5016 6.33156 56.8716 7.09156 55.8716 7.36156L57.7016 10.0016H55.7016Z" fill="white"/>
<path d="M76.0016 0.101562H66.0016C64.9516 0.101562 64.1016 0.951563 64.1016 2.00156V11.0016C64.1016 12.0516 64.9516 12.9016 66.0016 12.9016H76.0016C77.0516 12.9016 77.9016 12.0516 77.9016 11.0016V2.00156C77.9016 0.951563 77.0516 0.101562 76.0016 0.101562ZM73.4816 4.55156H71.3916V10.0016H69.7416V4.55156H67.6516V3.00156H73.4816V4.55156Z" fill="white"/>
<path d="M92.0016 0.101562H82.0016C80.9516 0.101562 80.1016 0.951563 80.1016 2.00156V11.0016C80.1016 12.0516 80.9516 12.9016 82.0016 12.9016H92.0016C93.0516 12.9016 93.9016 12.0516 93.9016 11.0016V2.00156C93.9016 0.951563 93.0516 0.101562 92.0016 0.101562ZM87.3816 7.15156V10.0016H85.7316V7.15156L83.0516 3.00156H85.0116L86.5616 5.50156L88.1016 3.00156H90.0616L87.3816 7.15156Z" fill="white"/>
</g>
<defs>
<clipPath id="clip0_3205_3803">
<rect width="94" height="43" fill="white"/>
</clipPath>
</defs>
</svg>
