<svg width="106" height="106" viewBox="0 0 106 106" fill="none" xmlns="http://www.w3.org/2000/svg">
<path d="M31.0467 2.09642e-07L74.9533 0L106 31.0467V74.9533L74.9533 106H31.0467L2.09642e-07 74.9533L0 31.0467L31.0467 2.09642e-07Z" fill="#EFF1F2"/>
<path d="M44.25 41.8462C44.25 40.9965 44.9216 40.3077 45.75 40.3077H49.5C50.3284 40.3077 51 40.9965 51 41.8462V43.1282C51 43.9779 50.3284 44.6667 49.5 44.6667H45.75C44.9216 44.6667 44.25 43.9779 44.25 43.1282V41.8462Z" fill="#E20000"/>
<path d="M61.75 41.8462C61.75 40.9965 61.0784 40.3077 60.25 40.3077H56.5C55.6716 40.3077 55 40.9965 55 41.8462V43.1282C55 43.9779 55.6716 44.6667 56.5 44.6667H60.25C61.0784 44.6667 61.75 43.9779 61.75 43.1282V41.8462Z" fill="#E20000"/>
<path fill-rule="evenodd" clip-rule="evenodd" d="M65.8787 28.9012C65.3161 28.3242 64.553 28 63.7574 28H42.2426C41.447 28 40.6839 28.3242 40.1213 28.9012L34.3787 34.7911C33.8161 35.3681 33.5 36.1508 33.5 36.9668V48.0075C33.5 48.8236 33.1839 49.6062 32.6213 50.1833L26.8787 56.0732C26.3161 56.6502 26 57.4328 26 58.2489V76.4615C26 77.3112 26.6716 78 27.5 78H32C32.8284 78 33.5 77.3112 33.5 76.4615V58.5128C33.5 57.6632 34.1716 56.9744 35 56.9744H71C71.8284 56.9744 72.5 57.6632 72.5 58.5128V76.4615C72.5 77.3112 73.1716 78 74 78H78.5C79.3284 78 80 77.3112 80 76.4615V58.2489C80 57.4328 79.6839 56.6502 79.1213 56.0732L73.3787 50.1833C72.8161 49.6062 72.5 48.8236 72.5 48.0075V36.9668C72.5 36.1508 72.1839 35.3681 71.6213 34.7911L65.8787 28.9012ZM63.5 49.2821C64.3284 49.2821 65 48.5933 65 47.7436V37.2308C65 36.3811 64.3284 35.6923 63.5 35.6923H42.5C41.6716 35.6923 41 36.3811 41 37.2308V47.7436C41 48.5933 41.6716 49.2821 42.5 49.2821H63.5Z" fill="#E20000"/>
</svg>
