<svg width="106" height="106" viewBox="0 0 106 106" fill="none" xmlns="http://www.w3.org/2000/svg">
<path d="M31.0467 2.09642e-07L74.9533 0L106 31.0467V74.9533L74.9533 106H31.0467L2.09642e-07 74.9533L0 31.0467L31.0467 2.09642e-07Z" fill="#EFF1F2"/>
<path fill-rule="evenodd" clip-rule="evenodd" d="M53.0248 24C36.4219 24 23 37.5208 23 54.2478C23 67.6186 31.5999 78.9368 43.5301 82.9426C45.0217 83.2437 45.5681 82.2918 45.5681 81.491C45.5681 80.7897 45.5189 78.3861 45.5189 75.8817C37.1667 77.6849 35.4275 72.2759 35.4275 72.2759C34.0852 68.7704 32.0964 67.8694 32.0964 67.8694C29.3628 66.0164 32.2956 66.0164 32.2956 66.0164C35.3279 66.2168 36.9191 69.1213 36.9191 69.1213C39.603 73.7282 43.9278 72.4265 45.6677 71.6251C45.9159 69.672 46.7118 68.3199 47.5569 67.5689C40.8954 66.8676 33.8867 64.2636 33.8867 52.645C33.8867 49.3398 35.079 46.6356 36.9682 44.5325C36.6702 43.7815 35.626 40.676 37.2669 36.5196C37.2669 36.5196 39.8021 35.7182 45.5183 39.6245C47.9656 38.9624 50.4895 38.6256 53.0248 38.6227C55.56 38.6227 58.1443 38.9736 60.5307 39.6245C66.2476 35.7182 68.7827 36.5196 68.7827 36.5196C70.4237 40.676 69.3789 43.7815 69.0808 44.5325C71.0198 46.6356 72.1629 49.3398 72.1629 52.645C72.1629 64.2636 65.1542 66.8172 58.443 67.5689C59.5369 68.5202 60.4809 70.3228 60.4809 73.1775C60.4809 77.2338 60.4318 80.4892 60.4318 81.4903C60.4318 82.2918 60.9788 83.2437 62.4697 82.9432C74.4 78.9361 82.9999 67.6186 82.9999 54.2478C83.049 37.5208 69.578 24 53.0248 24Z" fill="#E20000"/>
</svg>
