<svg width="106" height="106" viewBox="0 0 106 106" fill="none" xmlns="http://www.w3.org/2000/svg">
<path d="M31.0467 2.09642e-07L74.9533 0L106 31.0467V74.9533L74.9533 106H31.0467L2.09642e-07 74.9533L0 31.0467L31.0467 2.09642e-07Z" fill="#EFF1F2"/>
<path fill-rule="evenodd" clip-rule="evenodd" d="M47.9366 43.9802C48.526 43.3829 48.8571 42.5729 48.8571 41.7282V31.6273C48.8571 30.7826 49.1883 29.9725 49.7777 29.3752L53.1747 25.9328C53.7641 25.3355 54.5635 25 55.3971 25H70.6029C71.4365 25 72.2359 25.3355 72.8253 25.9328L76.2223 29.3752C76.8117 29.9725 77.1429 30.7826 77.1429 31.6273V41.7282C77.1429 42.5729 77.474 43.3829 78.0634 43.9802L84.0795 50.0767C84.6689 50.6739 85 51.484 85 52.3287V74.3727C85 75.2174 84.6689 76.0275 84.0795 76.6248L80.6824 80.0672C80.093 80.6645 79.2936 81 78.4601 81H47.5399C46.7064 81 45.907 80.6645 45.3176 80.0672L41.9205 76.6248C41.3311 76.0275 41 75.2174 41 74.3727V52.3287C41 51.484 41.3311 50.6739 41.9205 50.0767L47.9366 43.9802ZM56.7143 34.5545C56.7143 33.675 57.4178 32.9621 58.2857 32.9621H67.7143C68.5822 32.9621 69.2857 33.675 69.2857 34.5545V44.109C69.2857 44.9885 68.5822 45.7014 67.7143 45.7014H58.2857C57.4178 45.7014 56.7143 44.9885 56.7143 44.109V34.5545ZM77.1429 55.2559C77.1429 54.3765 76.4393 53.6635 75.5714 53.6635H50.4286C49.5607 53.6635 48.8571 54.3765 48.8571 55.2559V71.4455C48.8571 72.325 49.5607 73.0379 50.4286 73.0379H75.5714C76.4393 73.0379 77.1429 72.325 77.1429 71.4455V55.2559Z" fill="#8F8F8F"/>
<path fill-rule="evenodd" clip-rule="evenodd" d="M25.9366 43.9802C26.526 43.3829 26.8571 42.5729 26.8571 41.7282V31.6273C26.8571 30.7826 27.1883 29.9725 27.7777 29.3752L31.1747 25.9328C31.7641 25.3355 32.5635 25 33.3971 25H48.6029C49.4365 25 50.2359 25.3355 50.8253 25.9328L54.2223 29.3752C54.8117 29.9725 55.1429 30.7826 55.1429 31.6273V41.7282C55.1429 42.5729 55.474 43.3829 56.0634 43.9802L62.0795 50.0767C62.6689 50.6739 63 51.484 63 52.3287V74.3727C63 75.2174 62.6689 76.0275 62.0795 76.6248L58.6824 80.0672C58.093 80.6645 57.2936 81 56.4601 81H25.5399C24.7064 81 23.907 80.6645 23.3176 80.0672L19.9205 76.6248C19.3311 76.0275 19 75.2174 19 74.3727V52.3287C19 51.484 19.3311 50.6739 19.9205 50.0767L25.9366 43.9802ZM34.7143 34.5545C34.7143 33.675 35.4178 32.9621 36.2857 32.9621H45.7143C46.5822 32.9621 47.2857 33.675 47.2857 34.5545V44.109C47.2857 44.9885 46.5822 45.7014 45.7143 45.7014H36.2857C35.4178 45.7014 34.7143 44.9885 34.7143 44.109V34.5545ZM55.1429 55.2559C55.1429 54.3765 54.4393 53.6635 53.5714 53.6635H28.4286C27.5607 53.6635 26.8571 54.3765 26.8571 55.2559V71.4455C26.8571 72.325 27.5607 73.0379 28.4286 73.0379H53.5714C54.4393 73.0379 55.1429 72.325 55.1429 71.4455V55.2559Z" fill="#E20000"/>
</svg>
